<?xml version="1.0" encoding="utf-8" standalone="no"?>
<!DOCTYPE svg PUBLIC "-//W3C//DTD SVG 1.1//EN"
  "http://www.w3.org/Graphics/SVG/1.1/DTD/svg11.dtd">
<svg xmlns:xlink="http://www.w3.org/1999/xlink" width="655.2pt" height="193.06pt" viewBox="0 0 655.2 193.06" xmlns="http://www.w3.org/2000/svg" version="1.1">
 <metadata>
  <rdf:RDF xmlns:dc="http://purl.org/dc/elements/1.1/" xmlns:cc="http://creativecommons.org/ns#" xmlns:rdf="http://www.w3.org/1999/02/22-rdf-syntax-ns#">
   <cc:Work>
    <dc:type rdf:resource="http://purl.org/dc/dcmitype/StillImage"/>
    <dc:date>2026-09-22T06:15:00.556989</dc:date>
    <dc:format>image/svg+xml</dc:format>
    <dc:creator>
     <cc:Agent>
      <dc:title>Matplotlib v3.10.9, https://matplotlib.org/</dc:title>
     </cc:Agent>
    </dc:creator>
   </cc:Work>
  </rdf:RDF>
 </metadata>
 <defs>
  <style type="text/css">*{stroke-linejoin: round; stroke-linecap: butt}</style>
 </defs>
 <g id="figure_1">
  <g id="patch_1">
   <path d="M 0 193.06 
L 655.2 193.06 
L 655.2 0 
L 0 0 
L 0 193.06 
z
" style="fill: none"/>
  </g>
  <g id="axes_1">
   <g id="patch_2">
    <path d="M 179.5752 144.994476 
L 270.5688 144.994476 
Q 274.4136 144.994476 274.4136 140.36819 
L 274.4136 77.142286 
Q 274.4136 72.516 270.5688 72.516 
L 179.5752 72.516 
Q 175.7304 72.516 175.7304 77.142286 
L 175.7304 140.36819 
Q 175.7304 144.994476 179.5752 144.994476 
z
" clip-path="url(#pc84ccb43c7)" style="fill: #e8f0f8; stroke: #0b5cad; stroke-width: 1.6; stroke-linejoin: miter"/>
   </g>
   <g id="patch_3">
    <path d="M 403.8552 144.994476 
L 494.8488 144.994476 
Q 498.6936 144.994476 498.6936 140.36819 
L 498.6936 77.142286 
Q 498.6936 72.516 494.8488 72.516 
L 403.8552 72.516 
Q 400.0104 72.516 400.0104 77.142286 
L 400.0104 140.36819 
Q 400.0104 144.994476 403.8552 144.994476 
z
" clip-path="url(#pc84ccb43c7)" style="fill: #fbeee0; stroke: #b45309; stroke-width: 1.6; stroke-linejoin: miter"/>
   </g>
   <g id="text_1">
    <!-- $g$ -->
    <g style="fill: #0b5cad" transform="translate(220.912 112.316019) scale(0.13 -0.13)">
     <defs>
      <path id="DejaVuSans-Oblique-67" d="M 3816 3500 
L 3219 434 
Q 3047 -456 2561 -893 
Q 2075 -1331 1253 -1331 
Q 950 -1331 690 -1286 
Q 431 -1241 206 -1147 
L 313 -588 
Q 525 -725 762 -790 
Q 1000 -856 1269 -856 
Q 1816 -856 2167 -557 
Q 2519 -259 2631 300 
L 2681 563 
Q 2441 288 2122 144 
Q 1803 0 1434 0 
Q 903 0 598 351 
Q 294 703 294 1319 
Q 294 1803 478 2267 
Q 663 2731 997 3091 
Q 1219 3328 1514 3456 
Q 1809 3584 2131 3584 
Q 2484 3584 2746 3420 
Q 3009 3256 3138 2956 
L 3238 3500 
L 3816 3500 
z
M 2950 2216 
Q 2950 2641 2750 2872 
Q 2550 3103 2181 3103 
Q 1953 3103 1747 3012 
Q 1541 2922 1394 2759 
Q 1156 2491 1023 2127 
Q 891 1763 891 1375 
Q 891 944 1092 712 
Q 1294 481 1672 481 
Q 2219 481 2584 976 
Q 2950 1472 2950 2216 
z
" transform="scale(0.015625)"/>
     </defs>
     <use xlink:href="#DejaVuSans-Oblique-67"/>
    </g>
   </g>
   <g id="text_2">
    <!-- $f$ -->
    <g style="fill: #b45309" transform="translate(447.012 112.342426) scale(0.13 -0.13)">
     <defs>
      <path id="DejaVuSans-Oblique-66" d="M 3059 4863 
L 2969 4384 
L 2419 4384 
Q 2106 4384 1964 4261 
Q 1822 4138 1753 3809 
L 1691 3500 
L 2638 3500 
L 2553 3053 
L 1606 3053 
L 1013 0 
L 434 0 
L 1031 3053 
L 481 3053 
L 563 3500 
L 1113 3500 
L 1159 3744 
Q 1278 4363 1576 4613 
Q 1875 4863 2516 4863 
L 3059 4863 
z
" transform="scale(0.015625)"/>
     </defs>
     <use xlink:href="#DejaVuSans-Oblique-66" transform="translate(0 0.015625)"/>
    </g>
   </g>
   <g id="patch_4">
    <path d="M 66.869318 108.755238 
Q 117.737871 108.755238 167.041176 108.755238 
" style="fill: none; stroke: #6b7280; stroke-width: 1.4; stroke-linecap: round"/>
    <path d="M 163.041176 106.755238 
L 167.041176 108.755238 
L 163.041176 110.755238 
" style="fill: none; stroke: #6b7280; stroke-width: 1.4; stroke-linecap: round"/>
   </g>
   <g id="text_3">
    <!-- $x$ -->
    <g style="fill: #1f2328" transform="translate(114.138 89.296565) scale(0.12 -0.12)">
     <defs>
      <path id="DejaVuSans-Oblique-78" d="M 3841 3500 
L 2234 1784 
L 3219 0 
L 2559 0 
L 1819 1388 
L 531 0 
L -166 0 
L 1556 1844 
L 641 3500 
L 1300 3500 
L 1972 2234 
L 3144 3500 
L 3841 3500 
z
" transform="scale(0.015625)"/>
     </defs>
     <use xlink:href="#DejaVuSans-Oblique-78" transform="translate(0 0.3125)"/>
    </g>
   </g>
   <g id="patch_5">
    <path d="M 281.542891 108.755238 
Q 337.212095 108.755238 391.316052 108.755238 
" style="fill: none; stroke: #6b7280; stroke-width: 1.4; stroke-linecap: round"/>
    <path d="M 387.316052 106.755238 
L 391.316052 108.755238 
L 387.316052 110.755238 
" style="fill: none; stroke: #6b7280; stroke-width: 1.4; stroke-linecap: round"/>
   </g>
   <g id="text_4">
    <!-- $g(x)$ -->
    <g style="fill: #1f2328" transform="translate(325.152 89.27219) scale(0.12 -0.12)">
     <defs>
      <path id="DejaVuSans-28" d="M 1984 4856 
Q 1566 4138 1362 3434 
Q 1159 2731 1159 2009 
Q 1159 1288 1364 580 
Q 1569 -128 1984 -844 
L 1484 -844 
Q 1016 -109 783 600 
Q 550 1309 550 2009 
Q 550 2706 781 3412 
Q 1013 4119 1484 4856 
L 1984 4856 
z
" transform="scale(0.015625)"/>
      <path id="DejaVuSans-29" d="M 513 4856 
L 1013 4856 
Q 1481 4119 1714 3412 
Q 1947 2706 1947 2009 
Q 1947 1309 1714 600 
Q 1481 -109 1013 -844 
L 513 -844 
Q 928 -128 1133 580 
Q 1338 1288 1338 2009 
Q 1338 2731 1133 3434 
Q 928 4138 513 4856 
z
" transform="scale(0.015625)"/>
     </defs>
     <use xlink:href="#DejaVuSans-Oblique-67" transform="translate(0 0.125)"/>
     <use xlink:href="#DejaVuSans-28" transform="translate(63.476562 0.125)"/>
     <use xlink:href="#DejaVuSans-Oblique-78" transform="translate(102.490234 0.125)"/>
     <use xlink:href="#DejaVuSans-29" transform="translate(161.669922 0.125)"/>
    </g>
   </g>
   <g id="patch_6">
    <path d="M 505.822011 108.755238 
Q 559.891065 108.755238 612.394871 108.755238 
" style="fill: none; stroke: #6b7280; stroke-width: 1.4; stroke-linecap: round"/>
    <path d="M 608.394871 106.755238 
L 612.394871 108.755238 
L 608.394871 110.755238 
" style="fill: none; stroke: #6b7280; stroke-width: 1.4; stroke-linecap: round"/>
   </g>
   <g id="text_5">
    <!-- $f(g(x))$ -->
    <g style="fill: #1f2328" transform="translate(541.05 89.27219) scale(0.12 -0.12)">
     <use xlink:href="#DejaVuSans-Oblique-66" transform="translate(0 0.015625)"/>
     <use xlink:href="#DejaVuSans-28" transform="translate(35.205078 0.015625)"/>
     <use xlink:href="#DejaVuSans-Oblique-67" transform="translate(74.21875 0.015625)"/>
     <use xlink:href="#DejaVuSans-28" transform="translate(137.695312 0.015625)"/>
     <use xlink:href="#DejaVuSans-Oblique-78" transform="translate(176.708984 0.015625)"/>
     <use xlink:href="#DejaVuSans-29" transform="translate(235.888672 0.015625)"/>
     <use xlink:href="#DejaVuSans-29" transform="translate(274.902344 0.015625)"/>
    </g>
   </g>
   <g id="text_6">
    <!-- $(f \circ g)(x) = f(g(x))$: $g$ acts first -->
    <g style="fill: #1f2328" transform="translate(7.2 15.94) scale(0.115 -0.115)">
     <defs>
      <path id="DejaVuSans-2218" d="M 2000 2619 
Q 1750 2619 1578 2445 
Q 1406 2272 1406 2022 
Q 1406 1775 1578 1605 
Q 1750 1435 2000 1435 
Q 2250 1435 2422 1605 
Q 2594 1775 2594 2022 
Q 2594 2269 2420 2444 
Q 2247 2619 2000 2619 
z
M 2000 3022 
Q 2200 3022 2384 2945 
Q 2569 2869 2703 2725 
Q 2847 2585 2919 2406 
Q 2991 2228 2991 2022 
Q 2991 1610 2702 1324 
Q 2413 1038 1994 1038 
Q 1572 1038 1290 1319 
Q 1009 1600 1009 2022 
Q 1009 2441 1296 2731 
Q 1584 3022 2000 3022 
z
" transform="scale(0.015625)"/>
      <path id="DejaVuSans-3d" d="M 678 2906 
L 4684 2906 
L 4684 2381 
L 678 2381 
L 678 2906 
z
M 678 1631 
L 4684 1631 
L 4684 1100 
L 678 1100 
L 678 1631 
z
" transform="scale(0.015625)"/>
      <path id="DejaVuSans-3a" d="M 750 794 
L 1409 794 
L 1409 0 
L 750 0 
L 750 794 
z
M 750 3309 
L 1409 3309 
L 1409 2516 
L 750 2516 
L 750 3309 
z
" transform="scale(0.015625)"/>
      <path id="DejaVuSans-20" transform="scale(0.015625)"/>
      <path id="DejaVuSans-61" d="M 2194 1759 
Q 1497 1759 1228 1600 
Q 959 1441 959 1056 
Q 959 750 1161 570 
Q 1363 391 1709 391 
Q 2188 391 2477 730 
Q 2766 1069 2766 1631 
L 2766 1759 
L 2194 1759 
z
M 3341 1997 
L 3341 0 
L 2766 0 
L 2766 531 
Q 2569 213 2275 61 
Q 1981 -91 1556 -91 
Q 1019 -91 701 211 
Q 384 513 384 1019 
Q 384 1609 779 1909 
Q 1175 2209 1959 2209 
L 2766 2209 
L 2766 2266 
Q 2766 2663 2505 2880 
Q 2244 3097 1772 3097 
Q 1472 3097 1187 3025 
Q 903 2953 641 2809 
L 641 3341 
Q 956 3463 1253 3523 
Q 1550 3584 1831 3584 
Q 2591 3584 2966 3190 
Q 3341 2797 3341 1997 
z
" transform="scale(0.015625)"/>
      <path id="DejaVuSans-63" d="M 3122 3366 
L 3122 2828 
Q 2878 2963 2633 3030 
Q 2388 3097 2138 3097 
Q 1578 3097 1268 2742 
Q 959 2388 959 1747 
Q 959 1106 1268 751 
Q 1578 397 2138 397 
Q 2388 397 2633 464 
Q 2878 531 3122 666 
L 3122 134 
Q 2881 22 2623 -34 
Q 2366 -91 2075 -91 
Q 1284 -91 818 406 
Q 353 903 353 1747 
Q 353 2603 823 3093 
Q 1294 3584 2113 3584 
Q 2378 3584 2631 3529 
Q 2884 3475 3122 3366 
z
" transform="scale(0.015625)"/>
      <path id="DejaVuSans-74" d="M 1172 4494 
L 1172 3500 
L 2356 3500 
L 2356 3053 
L 1172 3053 
L 1172 1153 
Q 1172 725 1289 603 
Q 1406 481 1766 481 
L 2356 481 
L 2356 0 
L 1766 0 
Q 1100 0 847 248 
Q 594 497 594 1153 
L 594 3053 
L 172 3053 
L 172 3500 
L 594 3500 
L 594 4494 
L 1172 4494 
z
" transform="scale(0.015625)"/>
      <path id="DejaVuSans-73" d="M 2834 3397 
L 2834 2853 
Q 2591 2978 2328 3040 
Q 2066 3103 1784 3103 
Q 1356 3103 1142 2972 
Q 928 2841 928 2578 
Q 928 2378 1081 2264 
Q 1234 2150 1697 2047 
L 1894 2003 
Q 2506 1872 2764 1633 
Q 3022 1394 3022 966 
Q 3022 478 2636 193 
Q 2250 -91 1575 -91 
Q 1294 -91 989 -36 
Q 684 19 347 128 
L 347 722 
Q 666 556 975 473 
Q 1284 391 1588 391 
Q 1994 391 2212 530 
Q 2431 669 2431 922 
Q 2431 1156 2273 1281 
Q 2116 1406 1581 1522 
L 1381 1569 
Q 847 1681 609 1914 
Q 372 2147 372 2553 
Q 372 3047 722 3315 
Q 1072 3584 1716 3584 
Q 2034 3584 2315 3537 
Q 2597 3491 2834 3397 
z
" transform="scale(0.015625)"/>
      <path id="DejaVuSans-66" d="M 2375 4863 
L 2375 4384 
L 1825 4384 
Q 1516 4384 1395 4259 
Q 1275 4134 1275 3809 
L 1275 3500 
L 2222 3500 
L 2222 3053 
L 1275 3053 
L 1275 0 
L 697 0 
L 697 3053 
L 147 3053 
L 147 3500 
L 697 3500 
L 697 3744 
Q 697 4328 969 4595 
Q 1241 4863 1831 4863 
L 2375 4863 
z
" transform="scale(0.015625)"/>
      <path id="DejaVuSans-69" d="M 603 3500 
L 1178 3500 
L 1178 0 
L 603 0 
L 603 3500 
z
M 603 4863 
L 1178 4863 
L 1178 4134 
L 603 4134 
L 603 4863 
z
" transform="scale(0.015625)"/>
      <path id="DejaVuSans-72" d="M 2631 2963 
Q 2534 3019 2420 3045 
Q 2306 3072 2169 3072 
Q 1681 3072 1420 2755 
Q 1159 2438 1159 1844 
L 1159 0 
L 581 0 
L 581 3500 
L 1159 3500 
L 1159 2956 
Q 1341 3275 1631 3429 
Q 1922 3584 2338 3584 
Q 2397 3584 2469 3576 
Q 2541 3569 2628 3553 
L 2631 2963 
z
" transform="scale(0.015625)"/>
     </defs>
     <use xlink:href="#DejaVuSans-28" transform="translate(0 0.015625)"/>
     <use xlink:href="#DejaVuSans-Oblique-66" transform="translate(39.013672 0.015625)"/>
     <use xlink:href="#DejaVuSans-2218" transform="translate(93.701172 0.015625)"/>
     <use xlink:href="#DejaVuSans-Oblique-67" transform="translate(175.78125 0.015625)"/>
     <use xlink:href="#DejaVuSans-29" transform="translate(239.257812 0.015625)"/>
     <use xlink:href="#DejaVuSans-28" transform="translate(278.271484 0.015625)"/>
     <use xlink:href="#DejaVuSans-Oblique-78" transform="translate(317.285156 0.015625)"/>
     <use xlink:href="#DejaVuSans-29" transform="translate(376.464844 0.015625)"/>
     <use xlink:href="#DejaVuSans-3d" transform="translate(434.960938 0.015625)"/>
     <use xlink:href="#DejaVuSans-Oblique-66" transform="translate(538.232422 0.015625)"/>
     <use xlink:href="#DejaVuSans-28" transform="translate(573.4375 0.015625)"/>
     <use xlink:href="#DejaVuSans-Oblique-67" transform="translate(612.451172 0.015625)"/>
     <use xlink:href="#DejaVuSans-28" transform="translate(675.927734 0.015625)"/>
     <use xlink:href="#DejaVuSans-Oblique-78" transform="translate(714.941406 0.015625)"/>
     <use xlink:href="#DejaVuSans-29" transform="translate(774.121094 0.015625)"/>
     <use xlink:href="#DejaVuSans-29" transform="translate(813.134766 0.015625)"/>
     <use xlink:href="#DejaVuSans-3a" transform="translate(852.148438 0.015625)"/>
     <use xlink:href="#DejaVuSans-20" transform="translate(885.839844 0.015625)"/>
     <use xlink:href="#DejaVuSans-Oblique-67" transform="translate(917.626953 0.015625)"/>
     <use xlink:href="#DejaVuSans-20" transform="translate(981.103516 0.015625)"/>
     <use xlink:href="#DejaVuSans-61" transform="translate(1012.890625 0.015625)"/>
     <use xlink:href="#DejaVuSans-63" transform="translate(1074.169922 0.015625)"/>
     <use xlink:href="#DejaVuSans-74" transform="translate(1129.150391 0.015625)"/>
     <use xlink:href="#DejaVuSans-73" transform="translate(1168.359375 0.015625)"/>
     <use xlink:href="#DejaVuSans-20" transform="translate(1220.458984 0.015625)"/>
     <use xlink:href="#DejaVuSans-66" transform="translate(1252.246094 0.015625)"/>
     <use xlink:href="#DejaVuSans-69" transform="translate(1287.451172 0.015625)"/>
     <use xlink:href="#DejaVuSans-72" transform="translate(1315.234375 0.015625)"/>
     <use xlink:href="#DejaVuSans-73" transform="translate(1356.347656 0.015625)"/>
     <use xlink:href="#DejaVuSans-74" transform="translate(1408.447266 0.015625)"/>
    </g>
   </g>
  </g>
 </g>
 <defs>
  <clipPath id="pc84ccb43c7">
   <rect x="7.2" y="23.94" width="640.8" height="161.92"/>
  </clipPath>
 </defs>
</svg>
