<?xml version="1.0" encoding="utf-8" standalone="no"?>
<!DOCTYPE svg PUBLIC "-//W3C//DTD SVG 1.1//EN"
  "http://www.w3.org/Graphics/SVG/1.1/DTD/svg11.dtd">
<svg xmlns:xlink="http://www.w3.org/1999/xlink" width="289.52pt" height="307.605pt" viewBox="0 0 289.52 307.605" xmlns="http://www.w3.org/2000/svg" version="1.1">
 <metadata>
  <rdf:RDF xmlns:dc="http://purl.org/dc/elements/1.1/" xmlns:cc="http://creativecommons.org/ns#" xmlns:rdf="http://www.w3.org/1999/02/22-rdf-syntax-ns#">
   <cc:Work>
    <dc:type rdf:resource="http://purl.org/dc/dcmitype/StillImage"/>
    <dc:date>2026-09-20T03:28:38.318996</dc:date>
    <dc:format>image/svg+xml</dc:format>
    <dc:creator>
     <cc:Agent>
      <dc:title>Matplotlib v3.10.9, https://matplotlib.org/</dc:title>
     </cc:Agent>
    </dc:creator>
   </cc:Work>
  </rdf:RDF>
 </metadata>
 <defs>
  <style type="text/css">*{stroke-linejoin: round; stroke-linecap: butt}</style>
 </defs>
 <g id="figure_1">
  <g id="patch_1">
   <path d="M 0 307.605 
L 289.52 307.605 
L 289.52 0 
L 0 0 
z
" style="fill: #ffffff"/>
  </g>
  <g id="axes_1">
   <g id="line2d_1">
    <path d="M 239.628966 162.845 
L 239.523121 158.364868 
L 239.205822 153.894732 
L 238.677778 149.444569 
L 237.940167 145.024306 
L 236.994634 140.643809 
L 235.84329 136.312851 
L 234.488703 132.041097 
L 232.933897 127.838079 
L 231.18234 123.713174 
L 229.237941 119.675588 
L 227.105039 115.73433 
L 224.788392 111.898194 
L 222.293171 108.17574 
L 219.624944 104.575275 
L 216.789663 101.104833 
L 213.793656 97.772157 
L 210.643608 94.584683 
L 207.346548 91.549526 
L 203.909833 88.673456 
L 200.341131 85.962892 
L 196.648406 83.423882 
L 192.839898 81.062092 
L 188.924104 78.882791 
L 184.909764 76.890843 
L 180.805833 75.090692 
L 176.62147 73.486356 
L 172.366012 72.081413 
L 168.048954 70.879 
L 163.679929 69.881798 
L 159.268687 69.092034 
L 154.82507 68.511469 
L 150.358994 68.1414 
L 145.880424 67.982651 
L 141.399354 68.035577 
L 136.925783 68.30006 
L 132.469693 68.77551 
L 128.041028 69.460865 
L 123.649669 70.354598 
L 119.305416 71.454712 
L 115.017962 72.758754 
L 110.796874 74.263813 
L 106.651571 75.966532 
L 102.591302 77.86311 
L 98.625129 79.949317 
L 94.761901 82.220496 
L 91.010237 84.67158 
L 87.378511 87.297099 
L 83.874825 90.091195 
L 80.506998 93.047634 
L 77.282544 96.159817 
L 74.208659 99.420802 
L 71.292202 102.82331 
L 68.53968 106.359751 
L 65.957235 110.022232 
L 63.55063 113.802581 
L 61.325235 117.692363 
L 59.286016 121.682899 
L 57.437522 125.765283 
L 55.783879 129.930406 
L 54.328776 134.168975 
L 53.075461 138.471531 
L 52.02673 142.828474 
L 51.184924 147.230081 
L 50.551919 151.666532 
L 50.12913 156.127926 
L 49.917499 160.604309 
L 49.917499 165.085691 
L 50.12913 169.562074 
L 50.551919 174.023468 
L 51.184924 178.459919 
L 52.02673 182.861526 
L 53.075461 187.218469 
L 54.328776 191.521025 
L 55.783879 195.759594 
L 57.437522 199.924717 
L 59.286016 204.007101 
L 61.325235 207.997637 
L 63.55063 211.887419 
L 65.957235 215.667768 
L 68.53968 219.330249 
L 71.292202 222.86669 
L 74.208659 226.269198 
L 77.282544 229.530183 
L 80.506998 232.642366 
L 83.874825 235.598805 
L 87.378511 238.392901 
L 91.010237 241.01842 
L 94.761901 243.469504 
L 98.625129 245.740683 
L 102.591302 247.82689 
L 106.651571 249.723468 
L 110.796874 251.426187 
L 115.017962 252.931246 
L 119.305416 254.235288 
L 123.649669 255.335402 
L 128.041028 256.229135 
L 132.469693 256.91449 
L 136.925783 257.38994 
L 141.399354 257.654423 
L 145.880424 257.707349 
L 150.358994 257.5486 
L 154.82507 257.178531 
L 159.268687 256.597966 
L 163.679929 255.808202 
L 168.048954 254.811 
L 172.366012 253.608587 
L 176.62147 252.203644 
L 180.805833 250.599308 
L 184.909764 248.799157 
L 188.924104 246.807209 
L 192.839898 244.627908 
L 196.648406 242.266118 
L 200.341131 239.727108 
L 203.909833 237.016544 
L 207.346548 234.140474 
L 210.643608 231.105317 
L 213.793656 227.917843 
L 216.789663 224.585167 
L 219.624944 221.114725 
L 222.293171 217.51426 
L 224.788392 213.791806 
L 227.105039 209.95567 
L 229.237941 206.014412 
L 231.18234 201.976826 
L 232.933897 197.851921 
L 234.488703 193.648903 
L 235.84329 189.377149 
L 236.994634 185.046191 
L 237.940167 180.665694 
L 238.677778 176.245431 
L 239.205822 171.795268 
L 239.523121 167.325132 
L 239.628966 162.845 
L 239.628966 162.845 
" clip-path="url(#peb388b4125)" style="fill: none; stroke: #6b7280; stroke-width: 1.1; stroke-linecap: square"/>
   </g>
   <g id="line2d_2">
    <path d="M 144.76 162.845 
L 199.174603 85.132893 
" clip-path="url(#peb388b4125)" style="fill: none; stroke: #0b5cad; stroke-width: 1.7; stroke-linecap: square"/>
   </g>
   <g id="line2d_3">
    <defs>
     <path id="m92bcf4b0d6" d="M 0 3 
C 0.795609 3 1.55874 2.683901 2.12132 2.12132 
C 2.683901 1.55874 3 0.795609 3 0 
C 3 -0.795609 2.683901 -1.55874 2.12132 -2.12132 
C 1.55874 -2.683901 0.795609 -3 0 -3 
C -0.795609 -3 -1.55874 -2.683901 -2.12132 -2.12132 
C -2.683901 -1.55874 -3 -0.795609 -3 0 
C -3 0.795609 -2.683901 1.55874 -2.12132 2.12132 
C -1.55874 2.683901 -0.795609 3 0 3 
z
" style="stroke: #0b5cad"/>
    </defs>
    <g clip-path="url(#peb388b4125)">
     <use xlink:href="#m92bcf4b0d6" x="199.174603" y="85.132893" style="fill: #0b5cad; stroke: #0b5cad"/>
    </g>
   </g>
   <g id="line2d_4">
    <path d="M 199.174603 162.845 
L 199.174603 85.132893 
" clip-path="url(#peb388b4125)" style="fill: none; stroke-dasharray: 1,1.65; stroke-dashoffset: 0; stroke: #0b5cad"/>
   </g>
   <g id="line2d_5">
    <path d="M 144.76 162.845 
L 90.345397 85.132893 
" clip-path="url(#peb388b4125)" style="fill: none; stroke: #b45309; stroke-width: 1.7; stroke-linecap: square"/>
   </g>
   <g id="line2d_6">
    <defs>
     <path id="m1a5b01ccb0" d="M 0 3 
C 0.795609 3 1.55874 2.683901 2.12132 2.12132 
C 2.683901 1.55874 3 0.795609 3 0 
C 3 -0.795609 2.683901 -1.55874 2.12132 -2.12132 
C 1.55874 -2.683901 0.795609 -3 0 -3 
C -0.795609 -3 -1.55874 -2.683901 -2.12132 -2.12132 
C -2.683901 -1.55874 -3 -0.795609 -3 0 
C -3 0.795609 -2.683901 1.55874 -2.12132 2.12132 
C -1.55874 2.683901 -0.795609 3 0 3 
z
" style="stroke: #b45309"/>
    </defs>
    <g clip-path="url(#peb388b4125)">
     <use xlink:href="#m1a5b01ccb0" x="90.345397" y="85.132893" style="fill: #b45309; stroke: #b45309"/>
    </g>
   </g>
   <g id="line2d_7">
    <path d="M 90.345397 162.845 
L 90.345397 85.132893 
" clip-path="url(#peb388b4125)" style="fill: none; stroke-dasharray: 1,1.65; stroke-dashoffset: 0; stroke: #b45309"/>
   </g>
   <g id="line2d_8">
    <path d="M 90.345397 85.132893 
L 199.174603 85.132893 
" clip-path="url(#peb388b4125)" style="fill: none; stroke-dasharray: 3.33,1.44; stroke-dashoffset: 0; stroke: #6b7280; stroke-width: 0.9"/>
   </g>
   <g id="line2d_9">
    <path d="M 7.2 162.845 
L 282.32 162.845 
" clip-path="url(#peb388b4125)" style="fill: none; stroke: #6b7280; stroke-width: 0.9; stroke-linecap: square"/>
   </g>
   <g id="line2d_10">
    <path d="M 144.76 300.405 
L 144.76 25.285 
" clip-path="url(#peb388b4125)" style="fill: none; stroke: #6b7280; stroke-width: 0.9; stroke-linecap: square"/>
   </g>
   <g id="text_1">
    <!-- $(\cos\theta,\ \sin\theta)$ -->
    <g style="fill: #0b5cad" transform="translate(204.866741 79.440755) scale(0.09 -0.09)">
     <defs>
      <path id="DejaVuSans-28" d="M 1984 4856 
Q 1566 4138 1362 3434 
Q 1159 2731 1159 2009 
Q 1159 1288 1364 580 
Q 1569 -128 1984 -844 
L 1484 -844 
Q 1016 -109 783 600 
Q 550 1309 550 2009 
Q 550 2706 781 3412 
Q 1013 4119 1484 4856 
L 1984 4856 
z
" transform="scale(0.015625)"/>
      <path id="DejaVuSans-63" d="M 3122 3366 
L 3122 2828 
Q 2878 2963 2633 3030 
Q 2388 3097 2138 3097 
Q 1578 3097 1268 2742 
Q 959 2388 959 1747 
Q 959 1106 1268 751 
Q 1578 397 2138 397 
Q 2388 397 2633 464 
Q 2878 531 3122 666 
L 3122 134 
Q 2881 22 2623 -34 
Q 2366 -91 2075 -91 
Q 1284 -91 818 406 
Q 353 903 353 1747 
Q 353 2603 823 3093 
Q 1294 3584 2113 3584 
Q 2378 3584 2631 3529 
Q 2884 3475 3122 3366 
z
" transform="scale(0.015625)"/>
      <path id="DejaVuSans-6f" d="M 1959 3097 
Q 1497 3097 1228 2736 
Q 959 2375 959 1747 
Q 959 1119 1226 758 
Q 1494 397 1959 397 
Q 2419 397 2687 759 
Q 2956 1122 2956 1747 
Q 2956 2369 2687 2733 
Q 2419 3097 1959 3097 
z
M 1959 3584 
Q 2709 3584 3137 3096 
Q 3566 2609 3566 1747 
Q 3566 888 3137 398 
Q 2709 -91 1959 -91 
Q 1206 -91 779 398 
Q 353 888 353 1747 
Q 353 2609 779 3096 
Q 1206 3584 1959 3584 
z
" transform="scale(0.015625)"/>
      <path id="DejaVuSans-73" d="M 2834 3397 
L 2834 2853 
Q 2591 2978 2328 3040 
Q 2066 3103 1784 3103 
Q 1356 3103 1142 2972 
Q 928 2841 928 2578 
Q 928 2378 1081 2264 
Q 1234 2150 1697 2047 
L 1894 2003 
Q 2506 1872 2764 1633 
Q 3022 1394 3022 966 
Q 3022 478 2636 193 
Q 2250 -91 1575 -91 
Q 1294 -91 989 -36 
Q 684 19 347 128 
L 347 722 
Q 666 556 975 473 
Q 1284 391 1588 391 
Q 1994 391 2212 530 
Q 2431 669 2431 922 
Q 2431 1156 2273 1281 
Q 2116 1406 1581 1522 
L 1381 1569 
Q 847 1681 609 1914 
Q 372 2147 372 2553 
Q 372 3047 722 3315 
Q 1072 3584 1716 3584 
Q 2034 3584 2315 3537 
Q 2597 3491 2834 3397 
z
" transform="scale(0.015625)"/>
      <path id="DejaVuSans-Oblique-3b8" d="M 2913 2219 
L 925 2219 
Q 791 1284 928 888 
Q 1100 400 1566 400 
Q 2034 400 2391 891 
Q 2703 1322 2913 2219 
z
M 3009 2750 
Q 3094 3638 2984 3950 
Q 2813 4444 2353 4444 
Q 1875 4444 1525 3956 
Q 1250 3563 1034 2750 
L 3009 2750 
z
M 2444 4913 
Q 3194 4913 3494 4250 
Q 3794 3591 3566 2422 
Q 3341 1256 2781 594 
Q 2225 -72 1475 -72 
Q 722 -72 425 594 
Q 128 1256 353 2422 
Q 581 3591 1134 4250 
Q 1691 4913 2444 4913 
z
" transform="scale(0.015625)"/>
      <path id="DejaVuSans-2c" d="M 750 794 
L 1409 794 
L 1409 256 
L 897 -744 
L 494 -744 
L 750 256 
L 750 794 
z
" transform="scale(0.015625)"/>
      <path id="DejaVuSans-69" d="M 603 3500 
L 1178 3500 
L 1178 0 
L 603 0 
L 603 3500 
z
M 603 4863 
L 1178 4863 
L 1178 4134 
L 603 4134 
L 603 4863 
z
" transform="scale(0.015625)"/>
      <path id="DejaVuSans-6e" d="M 3513 2113 
L 3513 0 
L 2938 0 
L 2938 2094 
Q 2938 2591 2744 2837 
Q 2550 3084 2163 3084 
Q 1697 3084 1428 2787 
Q 1159 2491 1159 1978 
L 1159 0 
L 581 0 
L 581 3500 
L 1159 3500 
L 1159 2956 
Q 1366 3272 1645 3428 
Q 1925 3584 2291 3584 
Q 2894 3584 3203 3211 
Q 3513 2838 3513 2113 
z
" transform="scale(0.015625)"/>
      <path id="DejaVuSans-29" d="M 513 4856 
L 1013 4856 
Q 1481 4119 1714 3412 
Q 1947 2706 1947 2009 
Q 1947 1309 1714 600 
Q 1481 -109 1013 -844 
L 513 -844 
Q 928 -128 1133 580 
Q 1338 1288 1338 2009 
Q 1338 2731 1133 3434 
Q 928 4138 513 4856 
z
" transform="scale(0.015625)"/>
     </defs>
     <use xlink:href="#DejaVuSans-28" transform="translate(0 0.234375)"/>
     <use xlink:href="#DejaVuSans-63" transform="translate(39.013672 0.234375)"/>
     <use xlink:href="#DejaVuSans-6f" transform="translate(93.994141 0.234375)"/>
     <use xlink:href="#DejaVuSans-73" transform="translate(155.175781 0.234375)"/>
     <use xlink:href="#DejaVuSans-Oblique-3b8" transform="translate(223.511067 0.234375)"/>
     <use xlink:href="#DejaVuSans-2c" transform="translate(284.692708 0.234375)"/>
     <use xlink:href="#DejaVuSans-73" transform="translate(368.432617 0.234375)"/>
     <use xlink:href="#DejaVuSans-69" transform="translate(420.532227 0.234375)"/>
     <use xlink:href="#DejaVuSans-6e" transform="translate(448.31543 0.234375)"/>
     <use xlink:href="#DejaVuSans-Oblique-3b8" transform="translate(527.930012 0.234375)"/>
     <use xlink:href="#DejaVuSans-29" transform="translate(589.111653 0.234375)"/>
    </g>
   </g>
   <g id="text_2">
    <!-- $(-\cos\theta,\ \sin\theta)$ -->
    <g style="fill: #b45309" transform="translate(20.573259 75.645996) scale(0.09 -0.09)">
     <defs>
      <path id="DejaVuSans-2212" d="M 678 2272 
L 4684 2272 
L 4684 1741 
L 678 1741 
L 678 2272 
z
" transform="scale(0.015625)"/>
     </defs>
     <use xlink:href="#DejaVuSans-28" transform="translate(0 0.234375)"/>
     <use xlink:href="#DejaVuSans-2212" transform="translate(39.013672 0.234375)"/>
     <use xlink:href="#DejaVuSans-63" transform="translate(122.802734 0.234375)"/>
     <use xlink:href="#DejaVuSans-6f" transform="translate(177.783203 0.234375)"/>
     <use xlink:href="#DejaVuSans-73" transform="translate(238.964844 0.234375)"/>
     <use xlink:href="#DejaVuSans-Oblique-3b8" transform="translate(307.300129 0.234375)"/>
     <use xlink:href="#DejaVuSans-2c" transform="translate(368.48177 0.234375)"/>
     <use xlink:href="#DejaVuSans-73" transform="translate(452.22168 0.234375)"/>
     <use xlink:href="#DejaVuSans-69" transform="translate(504.321289 0.234375)"/>
     <use xlink:href="#DejaVuSans-6e" transform="translate(532.104492 0.234375)"/>
     <use xlink:href="#DejaVuSans-Oblique-3b8" transform="translate(611.719075 0.234375)"/>
     <use xlink:href="#DejaVuSans-29" transform="translate(672.900715 0.234375)"/>
    </g>
   </g>
   <g id="text_3">
    <!-- $\theta$ -->
    <g style="fill: #0b5cad" transform="translate(173.22069 150.512034) scale(0.1 -0.1)">
     <use xlink:href="#DejaVuSans-Oblique-3b8" transform="translate(0 0.234375)"/>
    </g>
   </g>
   <g id="text_4">
    <!-- $\pi-\theta$ -->
    <g style="fill: #b45309" transform="translate(104.915034 150.512034) scale(0.1 -0.1)">
     <defs>
      <path id="DejaVuSans-Oblique-3c0" d="M 584 3500 
L 3938 3500 
L 3825 2925 
L 3384 2925 
L 2966 775 
Q 2922 550 2981 450 
Q 3038 353 3209 353 
Q 3256 353 3325 363 
Q 3397 369 3419 372 
L 3338 -44 
Q 3222 -84 3103 -103 
Q 2981 -122 2866 -122 
Q 2491 -122 2388 81 
Q 2284 288 2391 838 
L 2797 2925 
L 1506 2925 
L 938 0 
L 350 0 
L 919 2925 
L 472 2925 
L 584 3500 
z
" transform="scale(0.015625)"/>
     </defs>
     <use xlink:href="#DejaVuSans-Oblique-3c0" transform="translate(0 0.234375)"/>
     <use xlink:href="#DejaVuSans-2212" transform="translate(79.6875 0.234375)"/>
     <use xlink:href="#DejaVuSans-Oblique-3b8" transform="translate(182.958984 0.234375)"/>
    </g>
   </g>
   <g id="text_5">
    <!-- the $y$-values agree, the $x$-values are negatives -->
    <g style="fill: #6b7280" transform="translate(39.685 288.072034) scale(0.09 -0.09)">
     <defs>
      <path id="DejaVuSans-74" d="M 1172 4494 
L 1172 3500 
L 2356 3500 
L 2356 3053 
L 1172 3053 
L 1172 1153 
Q 1172 725 1289 603 
Q 1406 481 1766 481 
L 2356 481 
L 2356 0 
L 1766 0 
Q 1100 0 847 248 
Q 594 497 594 1153 
L 594 3053 
L 172 3053 
L 172 3500 
L 594 3500 
L 594 4494 
L 1172 4494 
z
" transform="scale(0.015625)"/>
      <path id="DejaVuSans-68" d="M 3513 2113 
L 3513 0 
L 2938 0 
L 2938 2094 
Q 2938 2591 2744 2837 
Q 2550 3084 2163 3084 
Q 1697 3084 1428 2787 
Q 1159 2491 1159 1978 
L 1159 0 
L 581 0 
L 581 4863 
L 1159 4863 
L 1159 2956 
Q 1366 3272 1645 3428 
Q 1925 3584 2291 3584 
Q 2894 3584 3203 3211 
Q 3513 2838 3513 2113 
z
" transform="scale(0.015625)"/>
      <path id="DejaVuSans-65" d="M 3597 1894 
L 3597 1613 
L 953 1613 
Q 991 1019 1311 708 
Q 1631 397 2203 397 
Q 2534 397 2845 478 
Q 3156 559 3463 722 
L 3463 178 
Q 3153 47 2828 -22 
Q 2503 -91 2169 -91 
Q 1331 -91 842 396 
Q 353 884 353 1716 
Q 353 2575 817 3079 
Q 1281 3584 2069 3584 
Q 2775 3584 3186 3129 
Q 3597 2675 3597 1894 
z
M 3022 2063 
Q 3016 2534 2758 2815 
Q 2500 3097 2075 3097 
Q 1594 3097 1305 2825 
Q 1016 2553 972 2059 
L 3022 2063 
z
" transform="scale(0.015625)"/>
      <path id="DejaVuSans-20" transform="scale(0.015625)"/>
      <path id="DejaVuSans-Oblique-79" d="M 1588 -325 
Q 1188 -997 936 -1164 
Q 684 -1331 294 -1331 
L -159 -1331 
L -63 -850 
L 269 -850 
Q 509 -850 678 -719 
Q 847 -588 1056 -206 
L 1234 128 
L 459 3500 
L 1069 3500 
L 1650 819 
L 3256 3500 
L 3859 3500 
L 1588 -325 
z
" transform="scale(0.015625)"/>
      <path id="DejaVuSans-2d" d="M 313 2009 
L 1997 2009 
L 1997 1497 
L 313 1497 
L 313 2009 
z
" transform="scale(0.015625)"/>
      <path id="DejaVuSans-76" d="M 191 3500 
L 800 3500 
L 1894 563 
L 2988 3500 
L 3597 3500 
L 2284 0 
L 1503 0 
L 191 3500 
z
" transform="scale(0.015625)"/>
      <path id="DejaVuSans-61" d="M 2194 1759 
Q 1497 1759 1228 1600 
Q 959 1441 959 1056 
Q 959 750 1161 570 
Q 1363 391 1709 391 
Q 2188 391 2477 730 
Q 2766 1069 2766 1631 
L 2766 1759 
L 2194 1759 
z
M 3341 1997 
L 3341 0 
L 2766 0 
L 2766 531 
Q 2569 213 2275 61 
Q 1981 -91 1556 -91 
Q 1019 -91 701 211 
Q 384 513 384 1019 
Q 384 1609 779 1909 
Q 1175 2209 1959 2209 
L 2766 2209 
L 2766 2266 
Q 2766 2663 2505 2880 
Q 2244 3097 1772 3097 
Q 1472 3097 1187 3025 
Q 903 2953 641 2809 
L 641 3341 
Q 956 3463 1253 3523 
Q 1550 3584 1831 3584 
Q 2591 3584 2966 3190 
Q 3341 2797 3341 1997 
z
" transform="scale(0.015625)"/>
      <path id="DejaVuSans-6c" d="M 603 4863 
L 1178 4863 
L 1178 0 
L 603 0 
L 603 4863 
z
" transform="scale(0.015625)"/>
      <path id="DejaVuSans-75" d="M 544 1381 
L 544 3500 
L 1119 3500 
L 1119 1403 
Q 1119 906 1312 657 
Q 1506 409 1894 409 
Q 2359 409 2629 706 
Q 2900 1003 2900 1516 
L 2900 3500 
L 3475 3500 
L 3475 0 
L 2900 0 
L 2900 538 
Q 2691 219 2414 64 
Q 2138 -91 1772 -91 
Q 1169 -91 856 284 
Q 544 659 544 1381 
z
M 1991 3584 
L 1991 3584 
z
" transform="scale(0.015625)"/>
      <path id="DejaVuSans-67" d="M 2906 1791 
Q 2906 2416 2648 2759 
Q 2391 3103 1925 3103 
Q 1463 3103 1205 2759 
Q 947 2416 947 1791 
Q 947 1169 1205 825 
Q 1463 481 1925 481 
Q 2391 481 2648 825 
Q 2906 1169 2906 1791 
z
M 3481 434 
Q 3481 -459 3084 -895 
Q 2688 -1331 1869 -1331 
Q 1566 -1331 1297 -1286 
Q 1028 -1241 775 -1147 
L 775 -588 
Q 1028 -725 1275 -790 
Q 1522 -856 1778 -856 
Q 2344 -856 2625 -561 
Q 2906 -266 2906 331 
L 2906 616 
Q 2728 306 2450 153 
Q 2172 0 1784 0 
Q 1141 0 747 490 
Q 353 981 353 1791 
Q 353 2603 747 3093 
Q 1141 3584 1784 3584 
Q 2172 3584 2450 3431 
Q 2728 3278 2906 2969 
L 2906 3500 
L 3481 3500 
L 3481 434 
z
" transform="scale(0.015625)"/>
      <path id="DejaVuSans-72" d="M 2631 2963 
Q 2534 3019 2420 3045 
Q 2306 3072 2169 3072 
Q 1681 3072 1420 2755 
Q 1159 2438 1159 1844 
L 1159 0 
L 581 0 
L 581 3500 
L 1159 3500 
L 1159 2956 
Q 1341 3275 1631 3429 
Q 1922 3584 2338 3584 
Q 2397 3584 2469 3576 
Q 2541 3569 2628 3553 
L 2631 2963 
z
" transform="scale(0.015625)"/>
      <path id="DejaVuSans-Oblique-78" d="M 3841 3500 
L 2234 1784 
L 3219 0 
L 2559 0 
L 1819 1388 
L 531 0 
L -166 0 
L 1556 1844 
L 641 3500 
L 1300 3500 
L 1972 2234 
L 3144 3500 
L 3841 3500 
z
" transform="scale(0.015625)"/>
     </defs>
     <use xlink:href="#DejaVuSans-74" transform="translate(0 0.015625)"/>
     <use xlink:href="#DejaVuSans-68" transform="translate(39.208984 0.015625)"/>
     <use xlink:href="#DejaVuSans-65" transform="translate(102.587891 0.015625)"/>
     <use xlink:href="#DejaVuSans-20" transform="translate(164.111328 0.015625)"/>
     <use xlink:href="#DejaVuSans-Oblique-79" transform="translate(195.898438 0.015625)"/>
     <use xlink:href="#DejaVuSans-2d" transform="translate(255.078125 0.015625)"/>
     <use xlink:href="#DejaVuSans-76" transform="translate(291.162109 0.015625)"/>
     <use xlink:href="#DejaVuSans-61" transform="translate(350.341797 0.015625)"/>
     <use xlink:href="#DejaVuSans-6c" transform="translate(411.621094 0.015625)"/>
     <use xlink:href="#DejaVuSans-75" transform="translate(439.404297 0.015625)"/>
     <use xlink:href="#DejaVuSans-65" transform="translate(502.783203 0.015625)"/>
     <use xlink:href="#DejaVuSans-73" transform="translate(564.306641 0.015625)"/>
     <use xlink:href="#DejaVuSans-20" transform="translate(616.40625 0.015625)"/>
     <use xlink:href="#DejaVuSans-61" transform="translate(648.193359 0.015625)"/>
     <use xlink:href="#DejaVuSans-67" transform="translate(709.472656 0.015625)"/>
     <use xlink:href="#DejaVuSans-72" transform="translate(772.949219 0.015625)"/>
     <use xlink:href="#DejaVuSans-65" transform="translate(814.0625 0.015625)"/>
     <use xlink:href="#DejaVuSans-65" transform="translate(875.585938 0.015625)"/>
     <use xlink:href="#DejaVuSans-2c" transform="translate(937.109375 0.015625)"/>
     <use xlink:href="#DejaVuSans-20" transform="translate(968.896484 0.015625)"/>
     <use xlink:href="#DejaVuSans-74" transform="translate(1000.683594 0.015625)"/>
     <use xlink:href="#DejaVuSans-68" transform="translate(1039.892578 0.015625)"/>
     <use xlink:href="#DejaVuSans-65" transform="translate(1103.271484 0.015625)"/>
     <use xlink:href="#DejaVuSans-20" transform="translate(1164.794922 0.015625)"/>
     <use xlink:href="#DejaVuSans-Oblique-78" transform="translate(1196.582031 0.015625)"/>
     <use xlink:href="#DejaVuSans-2d" transform="translate(1255.761719 0.015625)"/>
     <use xlink:href="#DejaVuSans-76" transform="translate(1291.845703 0.015625)"/>
     <use xlink:href="#DejaVuSans-61" transform="translate(1351.025391 0.015625)"/>
     <use xlink:href="#DejaVuSans-6c" transform="translate(1412.304688 0.015625)"/>
     <use xlink:href="#DejaVuSans-75" transform="translate(1440.087891 0.015625)"/>
     <use xlink:href="#DejaVuSans-65" transform="translate(1503.466797 0.015625)"/>
     <use xlink:href="#DejaVuSans-73" transform="translate(1564.990234 0.015625)"/>
     <use xlink:href="#DejaVuSans-20" transform="translate(1617.089844 0.015625)"/>
     <use xlink:href="#DejaVuSans-61" transform="translate(1648.876953 0.015625)"/>
     <use xlink:href="#DejaVuSans-72" transform="translate(1710.15625 0.015625)"/>
     <use xlink:href="#DejaVuSans-65" transform="translate(1751.269531 0.015625)"/>
     <use xlink:href="#DejaVuSans-20" transform="translate(1812.792969 0.015625)"/>
     <use xlink:href="#DejaVuSans-6e" transform="translate(1844.580078 0.015625)"/>
     <use xlink:href="#DejaVuSans-65" transform="translate(1907.958984 0.015625)"/>
     <use xlink:href="#DejaVuSans-67" transform="translate(1969.482422 0.015625)"/>
     <use xlink:href="#DejaVuSans-61" transform="translate(2032.958984 0.015625)"/>
     <use xlink:href="#DejaVuSans-74" transform="translate(2094.238281 0.015625)"/>
     <use xlink:href="#DejaVuSans-69" transform="translate(2133.447266 0.015625)"/>
     <use xlink:href="#DejaVuSans-76" transform="translate(2161.230469 0.015625)"/>
     <use xlink:href="#DejaVuSans-65" transform="translate(2220.410156 0.015625)"/>
     <use xlink:href="#DejaVuSans-73" transform="translate(2281.933594 0.015625)"/>
    </g>
   </g>
   <g id="text_6">
    <!-- $\theta$ and $\pi-\theta$: same height, opposite across -->
    <g style="fill: #1f2328" transform="translate(7.2 15.285) scale(0.105 -0.105)">
     <defs>
      <path id="DejaVuSans-64" d="M 2906 2969 
L 2906 4863 
L 3481 4863 
L 3481 0 
L 2906 0 
L 2906 525 
Q 2725 213 2448 61 
Q 2172 -91 1784 -91 
Q 1150 -91 751 415 
Q 353 922 353 1747 
Q 353 2572 751 3078 
Q 1150 3584 1784 3584 
Q 2172 3584 2448 3432 
Q 2725 3281 2906 2969 
z
M 947 1747 
Q 947 1113 1208 752 
Q 1469 391 1925 391 
Q 2381 391 2643 752 
Q 2906 1113 2906 1747 
Q 2906 2381 2643 2742 
Q 2381 3103 1925 3103 
Q 1469 3103 1208 2742 
Q 947 2381 947 1747 
z
" transform="scale(0.015625)"/>
      <path id="DejaVuSans-3a" d="M 750 794 
L 1409 794 
L 1409 0 
L 750 0 
L 750 794 
z
M 750 3309 
L 1409 3309 
L 1409 2516 
L 750 2516 
L 750 3309 
z
" transform="scale(0.015625)"/>
      <path id="DejaVuSans-6d" d="M 3328 2828 
Q 3544 3216 3844 3400 
Q 4144 3584 4550 3584 
Q 5097 3584 5394 3201 
Q 5691 2819 5691 2113 
L 5691 0 
L 5113 0 
L 5113 2094 
Q 5113 2597 4934 2840 
Q 4756 3084 4391 3084 
Q 3944 3084 3684 2787 
Q 3425 2491 3425 1978 
L 3425 0 
L 2847 0 
L 2847 2094 
Q 2847 2600 2669 2842 
Q 2491 3084 2119 3084 
Q 1678 3084 1418 2786 
Q 1159 2488 1159 1978 
L 1159 0 
L 581 0 
L 581 3500 
L 1159 3500 
L 1159 2956 
Q 1356 3278 1631 3431 
Q 1906 3584 2284 3584 
Q 2666 3584 2933 3390 
Q 3200 3197 3328 2828 
z
" transform="scale(0.015625)"/>
      <path id="DejaVuSans-70" d="M 1159 525 
L 1159 -1331 
L 581 -1331 
L 581 3500 
L 1159 3500 
L 1159 2969 
Q 1341 3281 1617 3432 
Q 1894 3584 2278 3584 
Q 2916 3584 3314 3078 
Q 3713 2572 3713 1747 
Q 3713 922 3314 415 
Q 2916 -91 2278 -91 
Q 1894 -91 1617 61 
Q 1341 213 1159 525 
z
M 3116 1747 
Q 3116 2381 2855 2742 
Q 2594 3103 2138 3103 
Q 1681 3103 1420 2742 
Q 1159 2381 1159 1747 
Q 1159 1113 1420 752 
Q 1681 391 2138 391 
Q 2594 391 2855 752 
Q 3116 1113 3116 1747 
z
" transform="scale(0.015625)"/>
     </defs>
     <use xlink:href="#DejaVuSans-Oblique-3b8" transform="translate(0 0.234375)"/>
     <use xlink:href="#DejaVuSans-20" transform="translate(61.181641 0.234375)"/>
     <use xlink:href="#DejaVuSans-61" transform="translate(92.96875 0.234375)"/>
     <use xlink:href="#DejaVuSans-6e" transform="translate(154.248047 0.234375)"/>
     <use xlink:href="#DejaVuSans-64" transform="translate(217.626953 0.234375)"/>
     <use xlink:href="#DejaVuSans-20" transform="translate(281.103516 0.234375)"/>
     <use xlink:href="#DejaVuSans-Oblique-3c0" transform="translate(312.890625 0.234375)"/>
     <use xlink:href="#DejaVuSans-2212" transform="translate(392.578125 0.234375)"/>
     <use xlink:href="#DejaVuSans-Oblique-3b8" transform="translate(495.849609 0.234375)"/>
     <use xlink:href="#DejaVuSans-3a" transform="translate(557.03125 0.234375)"/>
     <use xlink:href="#DejaVuSans-20" transform="translate(590.722656 0.234375)"/>
     <use xlink:href="#DejaVuSans-73" transform="translate(622.509766 0.234375)"/>
     <use xlink:href="#DejaVuSans-61" transform="translate(674.609375 0.234375)"/>
     <use xlink:href="#DejaVuSans-6d" transform="translate(735.888672 0.234375)"/>
     <use xlink:href="#DejaVuSans-65" transform="translate(833.300781 0.234375)"/>
     <use xlink:href="#DejaVuSans-20" transform="translate(894.824219 0.234375)"/>
     <use xlink:href="#DejaVuSans-68" transform="translate(926.611328 0.234375)"/>
     <use xlink:href="#DejaVuSans-65" transform="translate(989.990234 0.234375)"/>
     <use xlink:href="#DejaVuSans-69" transform="translate(1051.513672 0.234375)"/>
     <use xlink:href="#DejaVuSans-67" transform="translate(1079.296875 0.234375)"/>
     <use xlink:href="#DejaVuSans-68" transform="translate(1142.773438 0.234375)"/>
     <use xlink:href="#DejaVuSans-74" transform="translate(1206.152344 0.234375)"/>
     <use xlink:href="#DejaVuSans-2c" transform="translate(1245.361328 0.234375)"/>
     <use xlink:href="#DejaVuSans-20" transform="translate(1277.148438 0.234375)"/>
     <use xlink:href="#DejaVuSans-6f" transform="translate(1308.935547 0.234375)"/>
     <use xlink:href="#DejaVuSans-70" transform="translate(1370.117188 0.234375)"/>
     <use xlink:href="#DejaVuSans-70" transform="translate(1433.59375 0.234375)"/>
     <use xlink:href="#DejaVuSans-6f" transform="translate(1497.070312 0.234375)"/>
     <use xlink:href="#DejaVuSans-73" transform="translate(1558.251953 0.234375)"/>
     <use xlink:href="#DejaVuSans-69" transform="translate(1610.351562 0.234375)"/>
     <use xlink:href="#DejaVuSans-74" transform="translate(1638.134766 0.234375)"/>
     <use xlink:href="#DejaVuSans-65" transform="translate(1677.34375 0.234375)"/>
     <use xlink:href="#DejaVuSans-20" transform="translate(1738.867188 0.234375)"/>
     <use xlink:href="#DejaVuSans-61" transform="translate(1770.654297 0.234375)"/>
     <use xlink:href="#DejaVuSans-63" transform="translate(1831.933594 0.234375)"/>
     <use xlink:href="#DejaVuSans-72" transform="translate(1886.914062 0.234375)"/>
     <use xlink:href="#DejaVuSans-6f" transform="translate(1928.027344 0.234375)"/>
     <use xlink:href="#DejaVuSans-73" transform="translate(1989.208984 0.234375)"/>
     <use xlink:href="#DejaVuSans-73" transform="translate(2041.308594 0.234375)"/>
    </g>
   </g>
  </g>
 </g>
 <defs>
  <clipPath id="peb388b4125">
   <rect x="7.2" y="25.285" width="275.12" height="275.12"/>
  </clipPath>
 </defs>
</svg>
