<?xml version="1.0" encoding="utf-8" standalone="no"?>
<!DOCTYPE svg PUBLIC "-//W3C//DTD SVG 1.1//EN"
  "http://www.w3.org/Graphics/SVG/1.1/DTD/svg11.dtd">
<svg xmlns:xlink="http://www.w3.org/1999/xlink" width="374.4pt" height="279.987197pt" viewBox="0 0 374.4 279.987197" xmlns="http://www.w3.org/2000/svg" version="1.1">
 <metadata>
  <rdf:RDF xmlns:dc="http://purl.org/dc/elements/1.1/" xmlns:cc="http://creativecommons.org/ns#" xmlns:rdf="http://www.w3.org/1999/02/22-rdf-syntax-ns#">
   <cc:Work>
    <dc:type rdf:resource="http://purl.org/dc/dcmitype/StillImage"/>
    <dc:date>2026-10-01T07:48:22.787701</dc:date>
    <dc:format>image/svg+xml</dc:format>
    <dc:creator>
     <cc:Agent>
      <dc:title>Matplotlib v3.10.9, https://matplotlib.org/</dc:title>
     </cc:Agent>
    </dc:creator>
   </cc:Work>
  </rdf:RDF>
 </metadata>
 <defs>
  <style type="text/css">*{stroke-linejoin: round; stroke-linecap: butt}</style>
 </defs>
 <g id="figure_1">
  <g id="patch_1">
   <path d="M -0 279.987197 
L 374.4 279.987197 
L 374.4 0 
L -0 0 
L -0 279.987197 
z
" style="fill: none"/>
  </g>
  <g id="axes_1">
   <g id="line2d_1">
    <path d="M 37.561446 231.582378 
L 225.374184 123.148643 
" clip-path="url(#p746e0973d5)" style="fill: none; stroke: #0b5cad; stroke-width: 2.2; stroke-linecap: square"/>
   </g>
   <g id="line2d_2">
    <path d="M 355.494666 123.148643 
L 355.379763 117.681549 
L 355.035259 112.224112 
L 354.461762 106.785968 
L 353.660283 101.376721 
L 352.63224 96.005927 
L 351.379447 90.683068 
L 349.904117 85.417547 
L 348.208856 80.218663 
L 346.296657 75.095596 
L 344.170898 70.057396 
L 341.835334 65.11296 
L 339.294088 60.271021 
L 336.551649 55.540129 
L 333.61286 50.92864 
L 330.482912 46.444698 
L 327.167332 42.096222 
L 323.671976 37.890893 
L 320.003017 33.836136 
L 316.166934 29.939114 
L 312.170504 26.206708 
L 308.020783 22.645511 
L 303.7251 19.261811 
L 299.291043 16.061585 
L 294.726441 13.050485 
L 290.039357 10.233829 
L 285.238068 7.61659 
L 280.331055 5.203392 
L 275.326982 2.998496 
L 270.234688 1.005796 
L 264.322035 -1 
M 186.423162 -1 
L 181.799487 0.541197 
L 176.686538 2.480284 
L 171.659575 4.632481 
L 166.727477 6.993989 
L 161.898954 9.560637 
L 157.182535 12.327892 
L 152.586548 15.290866 
L 148.119111 18.444328 
L 143.788114 21.782707 
L 139.601205 25.300107 
L 135.56578 28.990317 
L 131.688964 32.846819 
L 127.977605 36.862803 
L 124.438257 41.031175 
L 121.077171 45.344575 
L 117.900284 49.795383 
L 114.913206 54.375741 
L 112.121211 59.077557 
L 109.529232 63.892529 
L 107.141846 68.812153 
L 104.963269 73.82774 
L 102.997349 78.930432 
L 101.247558 84.111218 
L 99.716986 89.360948 
L 98.408336 94.670349 
L 97.323919 100.030046 
L 96.465651 105.430573 
L 95.835048 110.862391 
L 95.433222 116.315908 
L 95.260884 121.781492 
L 95.318339 127.249491 
L 95.605484 132.710247 
L 96.121812 138.154117 
L 96.866412 143.571485 
L 97.837969 148.952785 
L 99.034767 154.288512 
L 100.454691 159.569244 
L 102.095235 164.785653 
L 103.953501 169.928528 
L 106.026207 174.988785 
L 108.309693 179.957487 
L 110.799925 184.82586 
L 113.492507 189.585305 
L 116.382681 194.227417 
L 119.465345 198.743997 
L 122.735053 203.127069 
L 126.186031 207.368891 
L 129.812185 211.461973 
L 133.607111 215.399085 
L 137.564105 219.173274 
L 141.67618 222.777875 
L 145.936074 226.206522 
L 150.336263 229.453159 
L 154.868975 232.512052 
L 159.526206 235.3778 
L 164.299731 238.04534 
L 169.181119 240.509962 
L 174.161749 242.767313 
L 179.232825 244.813407 
L 184.385391 246.644629 
L 189.610347 248.257746 
L 194.898465 249.649909 
L 200.240406 250.818659 
L 205.626736 251.761932 
L 211.047941 252.478062 
L 216.494448 252.965784 
L 221.956638 253.224237 
L 227.424863 253.252964 
L 232.889466 253.051916 
L 238.340797 252.621446 
L 243.769227 251.962315 
L 249.16517 251.075687 
L 254.519096 249.963129 
L 259.82155 248.626604 
L 265.063166 247.068474 
L 270.234688 245.291489 
L 275.326982 243.29879 
L 280.331055 241.093894 
L 285.238068 238.680695 
L 290.039357 236.063457 
L 294.726441 233.2468 
L 299.291043 230.2357 
L 303.7251 227.035474 
L 308.020783 223.651775 
L 312.170504 220.090577 
L 316.166934 216.358172 
L 320.003017 212.461149 
L 323.671976 208.406393 
L 327.167332 204.201063 
L 330.482912 199.852588 
L 333.61286 195.368646 
L 336.551649 190.757157 
L 339.294088 186.026265 
L 341.835334 181.184325 
L 344.170898 176.239889 
L 346.296657 171.201689 
L 348.208856 166.078623 
L 349.904117 160.879738 
L 351.379447 155.614217 
L 352.63224 150.291359 
L 353.660283 144.920564 
L 354.461762 139.511318 
L 355.035259 134.073174 
L 355.379763 128.615736 
L 355.494666 123.148643 
L 355.494666 123.148643 
" clip-path="url(#p746e0973d5)" style="fill: none; stroke-dasharray: 4,4; stroke-dashoffset: 0; stroke: #6b7280"/>
   </g>
   <g id="line2d_3">
    <path d="M 225.374184 123.148643 
L 153.447381 231.582378 
" clip-path="url(#p746e0973d5)" style="fill: none; stroke: #b45309; stroke-width: 2; stroke-linecap: square"/>
   </g>
   <g id="line2d_4">
    <path d="M 225.374184 123.148643 
L 297.300987 231.582378 
" clip-path="url(#p746e0973d5)" style="fill: none; stroke: #b45309; stroke-width: 2; stroke-linecap: square"/>
   </g>
   <g id="line2d_5">
    <path d="M 225.374184 231.582378 
L 225.374184 123.148643 
" clip-path="url(#p746e0973d5)" style="fill: none; stroke-dasharray: 4.2,4.2; stroke-dashoffset: 0; stroke: #15803d; stroke-width: 1.4"/>
   </g>
   <g id="line2d_6">
    <path d="M 74.428916 231.582378 
L 74.427464 231.2552 
L 74.423109 230.928047 
L 74.41585 230.600946 
L 74.405689 230.273923 
L 74.392627 229.947002 
L 74.376663 229.620211 
L 74.3578 229.293574 
L 74.33604 228.967117 
L 74.311382 228.640866 
L 74.283831 228.314847 
L 74.253387 227.989085 
L 74.220054 227.663606 
L 74.183834 227.338435 
L 74.144729 227.013599 
L 74.102743 226.689123 
L 74.057879 226.365032 
L 74.010141 226.041353 
L 73.959532 225.718109 
L 73.906057 225.395327 
L 73.849719 225.073033 
L 73.790523 224.751251 
L 73.728474 224.430007 
L 73.663577 224.109327 
L 73.595836 223.789235 
L 73.525257 223.469757 
L 73.451846 223.150918 
L 73.375608 222.832743 
L 73.29655 222.515257 
L 73.214677 222.198485 
L 73.129996 221.882452 
L 73.042514 221.567183 
L 72.952238 221.252703 
L 72.859174 220.939036 
L 72.76333 220.626208 
L 72.664714 220.314242 
L 72.563334 220.003164 
L 72.459196 219.692998 
L 72.35231 219.383768 
L 72.242685 219.075499 
L 72.130327 218.768215 
L 72.015248 218.46194 
L 71.897454 218.156699 
L 71.776957 217.852514 
L 71.653765 217.549412 
L 71.527887 217.247414 
L 71.399335 216.946545 
L 71.268118 216.646829 
L 71.134246 216.34829 
L 70.99773 216.05095 
L 70.85858 215.754833 
L 70.716809 215.459963 
L 70.572426 215.166363 
L 70.425443 214.874055 
L 70.275872 214.583064 
L 70.123724 214.293411 
L 69.969012 214.00512 
L 69.811747 213.718213 
L 69.651943 213.432713 
L 69.489611 213.148643 
" clip-path="url(#p746e0973d5)" style="fill: none; stroke: #1f2328; stroke-width: 1.2; stroke-linecap: square"/>
   </g>
   <g id="patch_2">
    <path d="M 39.558509 231.582378 
Q 191.534488 231.582378 342.168826 231.582378 
" style="fill: none; stroke: #6b7280; stroke-width: 1.2; stroke-linecap: round"/>
    <path d="M 338.168826 229.582378 
L 342.168826 231.582378 
L 338.168826 233.582378 
" style="fill: none; stroke: #6b7280; stroke-width: 1.2; stroke-linecap: round"/>
   </g>
   <g id="line2d_7">
    <path d="M 37.561446 231.582378 
" clip-path="url(#p746e0973d5)" style="fill: none; stroke: #1f2328; stroke-width: 1.5; stroke-linecap: square"/>
    <defs>
     <path id="m88ac3717bb" d="M 0 2.6 
C 0.689528 2.6 1.350908 2.326048 1.838478 1.838478 
C 2.326048 1.350908 2.6 0.689528 2.6 0 
C 2.6 -0.689528 2.326048 -1.350908 1.838478 -1.838478 
C 1.350908 -2.326048 0.689528 -2.6 0 -2.6 
C -0.689528 -2.6 -1.350908 -2.326048 -1.838478 -1.838478 
C -2.326048 -1.350908 -2.6 -0.689528 -2.6 0 
C -2.6 0.689528 -2.326048 1.350908 -1.838478 1.838478 
C -1.350908 2.326048 -0.689528 2.6 0 2.6 
z
" style="stroke: #1f2328"/>
    </defs>
    <g clip-path="url(#p746e0973d5)">
     <use xlink:href="#m88ac3717bb" x="37.561446" y="231.582378" style="fill: #1f2328; stroke: #1f2328"/>
    </g>
   </g>
   <g id="text_1">
    <!-- $A$ -->
    <g style="fill: #1f2328" transform="translate(22.814458 244.594426) scale(0.11 -0.11)">
     <defs>
      <path id="DejaVuSans-Oblique-41" d="M 2356 4666 
L 3072 4666 
L 3938 0 
L 3278 0 
L 3084 1197 
L 984 1197 
L 325 0 
L -341 0 
L 2356 4666 
z
M 2584 4044 
L 1275 1722 
L 2988 1722 
L 2584 4044 
z
" transform="scale(0.015625)"/>
     </defs>
     <use xlink:href="#DejaVuSans-Oblique-41" transform="translate(0 0.09375)"/>
    </g>
   </g>
   <g id="line2d_8">
    <path d="M 225.374184 123.148643 
" clip-path="url(#p746e0973d5)" style="fill: none; stroke: #1f2328; stroke-width: 1.5; stroke-linecap: square"/>
    <g clip-path="url(#p746e0973d5)">
     <use xlink:href="#m88ac3717bb" x="225.374184" y="123.148643" style="fill: #1f2328; stroke: #1f2328"/>
    </g>
   </g>
   <g id="text_2">
    <!-- $C$ -->
    <g style="fill: #1f2328" transform="translate(229.711533 117.076354) scale(0.11 -0.11)">
     <defs>
      <path id="DejaVuSans-Oblique-43" d="M 4447 4306 
L 4319 3641 
Q 4019 3944 3683 4091 
Q 3347 4238 2956 4238 
Q 2422 4238 2017 3981 
Q 1613 3725 1319 3200 
Q 1131 2863 1032 2486 
Q 934 2109 934 1728 
Q 934 1091 1264 756 
Q 1594 422 2222 422 
Q 2656 422 3056 561 
Q 3456 700 3834 978 
L 3688 231 
Q 3316 72 2936 -9 
Q 2556 -91 2175 -91 
Q 1278 -91 773 396 
Q 269 884 269 1753 
Q 269 2309 461 2846 
Q 653 3384 1013 3828 
Q 1394 4300 1883 4525 
Q 2372 4750 3022 4750 
Q 3422 4750 3780 4639 
Q 4138 4528 4447 4306 
z
" transform="scale(0.015625)"/>
     </defs>
     <use xlink:href="#DejaVuSans-Oblique-43" transform="translate(0 0.78125)"/>
    </g>
   </g>
   <g id="line2d_9">
    <path d="M 153.447381 231.582378 
" clip-path="url(#p746e0973d5)" style="fill: none; stroke: #1f2328; stroke-width: 1.5; stroke-linecap: square"/>
    <g clip-path="url(#p746e0973d5)">
     <use xlink:href="#m88ac3717bb" x="153.447381" y="231.582378" style="fill: #1f2328; stroke: #1f2328"/>
    </g>
   </g>
   <g id="text_3">
    <!-- $B_{1}$ -->
    <g style="fill: #1f2328" transform="translate(146.507622 254.136595) scale(0.11 -0.11)">
     <defs>
      <path id="DejaVuSans-Oblique-42" d="M 1081 4666 
L 2694 4666 
Q 3350 4666 3675 4422 
Q 4000 4178 4000 3688 
Q 4000 3238 3720 2911 
Q 3441 2584 2988 2516 
Q 3375 2428 3569 2181 
Q 3763 1934 3763 1522 
Q 3763 819 3242 409 
Q 2722 0 1819 0 
L 172 0 
L 1081 4666 
z
M 1234 2228 
L 903 519 
L 1919 519 
Q 2491 519 2800 781 
Q 3109 1044 3109 1522 
Q 3109 1891 2904 2059 
Q 2700 2228 2247 2228 
L 1234 2228 
z
M 1606 4147 
L 1331 2741 
L 2272 2741 
Q 2775 2741 3058 2959 
Q 3341 3178 3341 3566 
Q 3341 3869 3150 4008 
Q 2959 4147 2541 4147 
L 1606 4147 
z
" transform="scale(0.015625)"/>
      <path id="DejaVuSans-31" d="M 794 531 
L 1825 531 
L 1825 4091 
L 703 3866 
L 703 4441 
L 1819 4666 
L 2450 4666 
L 2450 531 
L 3481 531 
L 3481 0 
L 794 0 
L 794 531 
z
" transform="scale(0.015625)"/>
     </defs>
     <use xlink:href="#DejaVuSans-Oblique-42" transform="translate(0 0.09375)"/>
     <use xlink:href="#DejaVuSans-31" transform="translate(68.603516 -16.3125) scale(0.7)"/>
    </g>
   </g>
   <g id="line2d_10">
    <path d="M 297.300987 231.582378 
" clip-path="url(#p746e0973d5)" style="fill: none; stroke: #1f2328; stroke-width: 1.5; stroke-linecap: square"/>
    <g clip-path="url(#p746e0973d5)">
     <use xlink:href="#m88ac3717bb" x="297.300987" y="231.582378" style="fill: #1f2328; stroke: #1f2328"/>
    </g>
   </g>
   <g id="text_4">
    <!-- $B_{2}$ -->
    <g style="fill: #1f2328" transform="translate(290.361228 254.136595) scale(0.11 -0.11)">
     <defs>
      <path id="DejaVuSans-32" d="M 1228 531 
L 3431 531 
L 3431 0 
L 469 0 
L 469 531 
Q 828 903 1448 1529 
Q 2069 2156 2228 2338 
Q 2531 2678 2651 2914 
Q 2772 3150 2772 3378 
Q 2772 3750 2511 3984 
Q 2250 4219 1831 4219 
Q 1534 4219 1204 4116 
Q 875 4013 500 3803 
L 500 4441 
Q 881 4594 1212 4672 
Q 1544 4750 1819 4750 
Q 2544 4750 2975 4387 
Q 3406 4025 3406 3419 
Q 3406 3131 3298 2873 
Q 3191 2616 2906 2266 
Q 2828 2175 2409 1742 
Q 1991 1309 1228 531 
z
" transform="scale(0.015625)"/>
     </defs>
     <use xlink:href="#DejaVuSans-Oblique-42" transform="translate(0 0.09375)"/>
     <use xlink:href="#DejaVuSans-32" transform="translate(68.603516 -16.3125) scale(0.7)"/>
    </g>
   </g>
   <g id="text_5">
    <!-- $A$ -->
    <g style="fill: #1f2328" transform="translate(78.766265 224.642619) scale(0.11 -0.11)">
     <use xlink:href="#DejaVuSans-Oblique-41" transform="translate(0 0.09375)"/>
    </g>
   </g>
   <g id="text_6">
    <!-- $b$ -->
    <g style="fill: #0b5cad" transform="translate(124.308434 161.317317) scale(0.11 -0.11)">
     <defs>
      <path id="DejaVuSans-Oblique-62" d="M 3169 2138 
Q 3169 2591 2961 2847 
Q 2753 3103 2388 3103 
Q 2122 3103 1889 2973 
Q 1656 2844 1484 2597 
Q 1303 2338 1198 1995 
Q 1094 1653 1094 1313 
Q 1094 881 1298 636 
Q 1503 391 1863 391 
Q 2134 391 2365 517 
Q 2597 644 2772 891 
Q 2950 1147 3059 1487 
Q 3169 1828 3169 2138 
z
M 1381 2969 
Q 1594 3256 1914 3420 
Q 2234 3584 2584 3584 
Q 3122 3584 3439 3221 
Q 3756 2859 3756 2241 
Q 3756 1734 3570 1259 
Q 3384 784 3041 416 
Q 2816 172 2522 40 
Q 2228 -91 1906 -91 
Q 1566 -91 1316 65 
Q 1066 222 909 531 
L 806 0 
L 231 0 
L 1178 4863 
L 1753 4863 
L 1381 2969 
z
" transform="scale(0.015625)"/>
     </defs>
     <use xlink:href="#DejaVuSans-Oblique-62" transform="translate(0 0.015625)"/>
    </g>
   </g>
   <g id="text_7">
    <!-- $a$ -->
    <g style="fill: #b45309" transform="translate(191.537349 161.317317) scale(0.11 -0.11)">
     <defs>
      <path id="DejaVuSans-Oblique-61" d="M 3438 1997 
L 3047 0 
L 2472 0 
L 2578 531 
Q 2325 219 2001 64 
Q 1678 -91 1281 -91 
Q 834 -91 548 182 
Q 263 456 263 884 
Q 263 1497 752 1853 
Q 1241 2209 2100 2209 
L 2900 2209 
L 2931 2363 
Q 2938 2388 2941 2417 
Q 2944 2447 2944 2509 
Q 2944 2788 2717 2942 
Q 2491 3097 2081 3097 
Q 1800 3097 1504 3025 
Q 1209 2953 897 2809 
L 997 3341 
Q 1322 3463 1633 3523 
Q 1944 3584 2234 3584 
Q 2853 3584 3176 3315 
Q 3500 3047 3500 2534 
Q 3500 2431 3484 2292 
Q 3469 2153 3438 1997 
z
M 2816 1759 
L 2241 1759 
Q 1534 1759 1195 1570 
Q 856 1381 856 984 
Q 856 709 1029 553 
Q 1203 397 1509 397 
Q 1978 397 2328 733 
Q 2678 1069 2791 1631 
L 2816 1759 
z
" transform="scale(0.015625)"/>
     </defs>
     <use xlink:href="#DejaVuSans-Oblique-61"/>
    </g>
   </g>
   <g id="text_8">
    <!-- $a$ -->
    <g style="fill: #b45309" transform="translate(263.103614 161.317317) scale(0.11 -0.11)">
     <use xlink:href="#DejaVuSans-Oblique-61"/>
    </g>
   </g>
   <g id="text_9">
    <!-- $b\sin A$ -->
    <g style="fill: #15803d" transform="translate(229.711533 188.208884) scale(0.1 -0.1)">
     <defs>
      <path id="DejaVuSans-73" d="M 2834 3397 
L 2834 2853 
Q 2591 2978 2328 3040 
Q 2066 3103 1784 3103 
Q 1356 3103 1142 2972 
Q 928 2841 928 2578 
Q 928 2378 1081 2264 
Q 1234 2150 1697 2047 
L 1894 2003 
Q 2506 1872 2764 1633 
Q 3022 1394 3022 966 
Q 3022 478 2636 193 
Q 2250 -91 1575 -91 
Q 1294 -91 989 -36 
Q 684 19 347 128 
L 347 722 
Q 666 556 975 473 
Q 1284 391 1588 391 
Q 1994 391 2212 530 
Q 2431 669 2431 922 
Q 2431 1156 2273 1281 
Q 2116 1406 1581 1522 
L 1381 1569 
Q 847 1681 609 1914 
Q 372 2147 372 2553 
Q 372 3047 722 3315 
Q 1072 3584 1716 3584 
Q 2034 3584 2315 3537 
Q 2597 3491 2834 3397 
z
" transform="scale(0.015625)"/>
      <path id="DejaVuSans-69" d="M 603 3500 
L 1178 3500 
L 1178 0 
L 603 0 
L 603 3500 
z
M 603 4863 
L 1178 4863 
L 1178 4134 
L 603 4134 
L 603 4863 
z
" transform="scale(0.015625)"/>
      <path id="DejaVuSans-6e" d="M 3513 2113 
L 3513 0 
L 2938 0 
L 2938 2094 
Q 2938 2591 2744 2837 
Q 2550 3084 2163 3084 
Q 1697 3084 1428 2787 
Q 1159 2491 1159 1978 
L 1159 0 
L 581 0 
L 581 3500 
L 1159 3500 
L 1159 2956 
Q 1366 3272 1645 3428 
Q 1925 3584 2291 3584 
Q 2894 3584 3203 3211 
Q 3513 2838 3513 2113 
z
" transform="scale(0.015625)"/>
     </defs>
     <use xlink:href="#DejaVuSans-Oblique-62" transform="translate(0 0.015625)"/>
     <use xlink:href="#DejaVuSans-73" transform="translate(63.476562 0.015625)"/>
     <use xlink:href="#DejaVuSans-69" transform="translate(115.576172 0.015625)"/>
     <use xlink:href="#DejaVuSans-6e" transform="translate(143.359375 0.015625)"/>
     <use xlink:href="#DejaVuSans-Oblique-41" transform="translate(222.973958 0.015625)"/>
    </g>
   </g>
   <g id="text_10">
    <!-- The ambiguous case -->
    <g style="fill: #1f2328" transform="translate(7.2 15.558281) scale(0.11 -0.11)">
     <defs>
      <path id="DejaVuSans-54" d="M -19 4666 
L 3928 4666 
L 3928 4134 
L 2272 4134 
L 2272 0 
L 1638 0 
L 1638 4134 
L -19 4134 
L -19 4666 
z
" transform="scale(0.015625)"/>
      <path id="DejaVuSans-68" d="M 3513 2113 
L 3513 0 
L 2938 0 
L 2938 2094 
Q 2938 2591 2744 2837 
Q 2550 3084 2163 3084 
Q 1697 3084 1428 2787 
Q 1159 2491 1159 1978 
L 1159 0 
L 581 0 
L 581 4863 
L 1159 4863 
L 1159 2956 
Q 1366 3272 1645 3428 
Q 1925 3584 2291 3584 
Q 2894 3584 3203 3211 
Q 3513 2838 3513 2113 
z
" transform="scale(0.015625)"/>
      <path id="DejaVuSans-65" d="M 3597 1894 
L 3597 1613 
L 953 1613 
Q 991 1019 1311 708 
Q 1631 397 2203 397 
Q 2534 397 2845 478 
Q 3156 559 3463 722 
L 3463 178 
Q 3153 47 2828 -22 
Q 2503 -91 2169 -91 
Q 1331 -91 842 396 
Q 353 884 353 1716 
Q 353 2575 817 3079 
Q 1281 3584 2069 3584 
Q 2775 3584 3186 3129 
Q 3597 2675 3597 1894 
z
M 3022 2063 
Q 3016 2534 2758 2815 
Q 2500 3097 2075 3097 
Q 1594 3097 1305 2825 
Q 1016 2553 972 2059 
L 3022 2063 
z
" transform="scale(0.015625)"/>
      <path id="DejaVuSans-20" transform="scale(0.015625)"/>
      <path id="DejaVuSans-61" d="M 2194 1759 
Q 1497 1759 1228 1600 
Q 959 1441 959 1056 
Q 959 750 1161 570 
Q 1363 391 1709 391 
Q 2188 391 2477 730 
Q 2766 1069 2766 1631 
L 2766 1759 
L 2194 1759 
z
M 3341 1997 
L 3341 0 
L 2766 0 
L 2766 531 
Q 2569 213 2275 61 
Q 1981 -91 1556 -91 
Q 1019 -91 701 211 
Q 384 513 384 1019 
Q 384 1609 779 1909 
Q 1175 2209 1959 2209 
L 2766 2209 
L 2766 2266 
Q 2766 2663 2505 2880 
Q 2244 3097 1772 3097 
Q 1472 3097 1187 3025 
Q 903 2953 641 2809 
L 641 3341 
Q 956 3463 1253 3523 
Q 1550 3584 1831 3584 
Q 2591 3584 2966 3190 
Q 3341 2797 3341 1997 
z
" transform="scale(0.015625)"/>
      <path id="DejaVuSans-6d" d="M 3328 2828 
Q 3544 3216 3844 3400 
Q 4144 3584 4550 3584 
Q 5097 3584 5394 3201 
Q 5691 2819 5691 2113 
L 5691 0 
L 5113 0 
L 5113 2094 
Q 5113 2597 4934 2840 
Q 4756 3084 4391 3084 
Q 3944 3084 3684 2787 
Q 3425 2491 3425 1978 
L 3425 0 
L 2847 0 
L 2847 2094 
Q 2847 2600 2669 2842 
Q 2491 3084 2119 3084 
Q 1678 3084 1418 2786 
Q 1159 2488 1159 1978 
L 1159 0 
L 581 0 
L 581 3500 
L 1159 3500 
L 1159 2956 
Q 1356 3278 1631 3431 
Q 1906 3584 2284 3584 
Q 2666 3584 2933 3390 
Q 3200 3197 3328 2828 
z
" transform="scale(0.015625)"/>
      <path id="DejaVuSans-62" d="M 3116 1747 
Q 3116 2381 2855 2742 
Q 2594 3103 2138 3103 
Q 1681 3103 1420 2742 
Q 1159 2381 1159 1747 
Q 1159 1113 1420 752 
Q 1681 391 2138 391 
Q 2594 391 2855 752 
Q 3116 1113 3116 1747 
z
M 1159 2969 
Q 1341 3281 1617 3432 
Q 1894 3584 2278 3584 
Q 2916 3584 3314 3078 
Q 3713 2572 3713 1747 
Q 3713 922 3314 415 
Q 2916 -91 2278 -91 
Q 1894 -91 1617 61 
Q 1341 213 1159 525 
L 1159 0 
L 581 0 
L 581 4863 
L 1159 4863 
L 1159 2969 
z
" transform="scale(0.015625)"/>
      <path id="DejaVuSans-67" d="M 2906 1791 
Q 2906 2416 2648 2759 
Q 2391 3103 1925 3103 
Q 1463 3103 1205 2759 
Q 947 2416 947 1791 
Q 947 1169 1205 825 
Q 1463 481 1925 481 
Q 2391 481 2648 825 
Q 2906 1169 2906 1791 
z
M 3481 434 
Q 3481 -459 3084 -895 
Q 2688 -1331 1869 -1331 
Q 1566 -1331 1297 -1286 
Q 1028 -1241 775 -1147 
L 775 -588 
Q 1028 -725 1275 -790 
Q 1522 -856 1778 -856 
Q 2344 -856 2625 -561 
Q 2906 -266 2906 331 
L 2906 616 
Q 2728 306 2450 153 
Q 2172 0 1784 0 
Q 1141 0 747 490 
Q 353 981 353 1791 
Q 353 2603 747 3093 
Q 1141 3584 1784 3584 
Q 2172 3584 2450 3431 
Q 2728 3278 2906 2969 
L 2906 3500 
L 3481 3500 
L 3481 434 
z
" transform="scale(0.015625)"/>
      <path id="DejaVuSans-75" d="M 544 1381 
L 544 3500 
L 1119 3500 
L 1119 1403 
Q 1119 906 1312 657 
Q 1506 409 1894 409 
Q 2359 409 2629 706 
Q 2900 1003 2900 1516 
L 2900 3500 
L 3475 3500 
L 3475 0 
L 2900 0 
L 2900 538 
Q 2691 219 2414 64 
Q 2138 -91 1772 -91 
Q 1169 -91 856 284 
Q 544 659 544 1381 
z
M 1991 3584 
L 1991 3584 
z
" transform="scale(0.015625)"/>
      <path id="DejaVuSans-6f" d="M 1959 3097 
Q 1497 3097 1228 2736 
Q 959 2375 959 1747 
Q 959 1119 1226 758 
Q 1494 397 1959 397 
Q 2419 397 2687 759 
Q 2956 1122 2956 1747 
Q 2956 2369 2687 2733 
Q 2419 3097 1959 3097 
z
M 1959 3584 
Q 2709 3584 3137 3096 
Q 3566 2609 3566 1747 
Q 3566 888 3137 398 
Q 2709 -91 1959 -91 
Q 1206 -91 779 398 
Q 353 888 353 1747 
Q 353 2609 779 3096 
Q 1206 3584 1959 3584 
z
" transform="scale(0.015625)"/>
      <path id="DejaVuSans-63" d="M 3122 3366 
L 3122 2828 
Q 2878 2963 2633 3030 
Q 2388 3097 2138 3097 
Q 1578 3097 1268 2742 
Q 959 2388 959 1747 
Q 959 1106 1268 751 
Q 1578 397 2138 397 
Q 2388 397 2633 464 
Q 2878 531 3122 666 
L 3122 134 
Q 2881 22 2623 -34 
Q 2366 -91 2075 -91 
Q 1284 -91 818 406 
Q 353 903 353 1747 
Q 353 2603 823 3093 
Q 1294 3584 2113 3584 
Q 2378 3584 2631 3529 
Q 2884 3475 3122 3366 
z
" transform="scale(0.015625)"/>
     </defs>
     <use xlink:href="#DejaVuSans-54"/>
     <use xlink:href="#DejaVuSans-68" transform="translate(61.083984 0)"/>
     <use xlink:href="#DejaVuSans-65" transform="translate(124.462891 0)"/>
     <use xlink:href="#DejaVuSans-20" transform="translate(185.986328 0)"/>
     <use xlink:href="#DejaVuSans-61" transform="translate(217.773438 0)"/>
     <use xlink:href="#DejaVuSans-6d" transform="translate(279.052734 0)"/>
     <use xlink:href="#DejaVuSans-62" transform="translate(376.464844 0)"/>
     <use xlink:href="#DejaVuSans-69" transform="translate(439.941406 0)"/>
     <use xlink:href="#DejaVuSans-67" transform="translate(467.724609 0)"/>
     <use xlink:href="#DejaVuSans-75" transform="translate(531.201172 0)"/>
     <use xlink:href="#DejaVuSans-6f" transform="translate(594.580078 0)"/>
     <use xlink:href="#DejaVuSans-75" transform="translate(655.761719 0)"/>
     <use xlink:href="#DejaVuSans-73" transform="translate(719.140625 0)"/>
     <use xlink:href="#DejaVuSans-20" transform="translate(771.240234 0)"/>
     <use xlink:href="#DejaVuSans-63" transform="translate(803.027344 0)"/>
     <use xlink:href="#DejaVuSans-61" transform="translate(858.007812 0)"/>
     <use xlink:href="#DejaVuSans-73" transform="translate(919.287109 0)"/>
     <use xlink:href="#DejaVuSans-65" transform="translate(971.386719 0)"/>
    </g>
   </g>
  </g>
 </g>
 <defs>
  <clipPath id="p746e0973d5">
   <rect x="7.2" y="25.558281" width="360" height="247.228916"/>
  </clipPath>
 </defs>
</svg>
