<?xml version="1.0" encoding="utf-8" standalone="no"?>
<!DOCTYPE svg PUBLIC "-//W3C//DTD SVG 1.1//EN"
  "http://www.w3.org/Graphics/SVG/1.1/DTD/svg11.dtd">
<svg xmlns:xlink="http://www.w3.org/1999/xlink" width="760.949531pt" height="471.570969pt" viewBox="0 0 760.949531 471.570969" xmlns="http://www.w3.org/2000/svg" version="1.1">
 <metadata>
  <rdf:RDF xmlns:dc="http://purl.org/dc/elements/1.1/" xmlns:cc="http://creativecommons.org/ns#" xmlns:rdf="http://www.w3.org/1999/02/22-rdf-syntax-ns#">
   <cc:Work>
    <dc:type rdf:resource="http://purl.org/dc/dcmitype/StillImage"/>
    <dc:date>2026-09-15T05:16:33.144490</dc:date>
    <dc:format>image/svg+xml</dc:format>
    <dc:creator>
     <cc:Agent>
      <dc:title>Matplotlib v3.10.9, https://matplotlib.org/</dc:title>
     </cc:Agent>
    </dc:creator>
   </cc:Work>
  </rdf:RDF>
 </metadata>
 <defs>
  <style type="text/css">*{stroke-linejoin: round; stroke-linecap: butt}</style>
 </defs>
 <g id="figure_1">
  <g id="patch_1">
   <path d="M 0 471.570969 
L 760.949531 471.570969 
L 760.949531 0 
L 0 0 
L 0 471.570969 
z
" style="fill: none"/>
  </g>
  <g id="axes_1">
   <g id="patch_2">
    <path d="M 46.030156 354.855312 
L 360.190156 354.855312 
L 360.190156 40.695312 
L 46.030156 40.695312 
L 46.030156 354.855312 
z
" style="fill: none"/>
   </g>
   <g id="matplotlib.axis_1">
    <g id="xtick_1">
     <g id="line2d_1">
      <path d="M 46.030156 354.855312 
L 46.030156 40.695312 
" clip-path="url(#p7421f90629)" style="fill: none; stroke: #dfe3e8; stroke-width: 0.8; stroke-linecap: square"/>
     </g>
     <g id="line2d_2">
      <defs>
       <path id="m95c9a4a4f0" d="M 0 0 
L 0 3.5 
" style="stroke: #000000; stroke-width: 0.8"/>
      </defs>
      <g>
       <use xlink:href="#m95c9a4a4f0" x="46.030156" y="354.855312" style="stroke: #000000; stroke-width: 0.8"/>
      </g>
     </g>
     <g id="text_1">
      <!-- −4 -->
      <g transform="translate(37.921953 370.213594) scale(0.11 -0.11)">
       <defs>
        <path id="DejaVuSans-2212" d="M 678 2272 
L 4684 2272 
L 4684 1741 
L 678 1741 
L 678 2272 
z
" transform="scale(0.015625)"/>
        <path id="DejaVuSans-34" d="M 2419 4116 
L 825 1625 
L 2419 1625 
L 2419 4116 
z
M 2253 4666 
L 3047 4666 
L 3047 1625 
L 3713 1625 
L 3713 1100 
L 3047 1100 
L 3047 0 
L 2419 0 
L 2419 1100 
L 313 1100 
L 313 1709 
L 2253 4666 
z
" transform="scale(0.015625)"/>
       </defs>
       <use xlink:href="#DejaVuSans-2212"/>
       <use xlink:href="#DejaVuSans-34" transform="translate(83.789062 0)"/>
      </g>
     </g>
    </g>
    <g id="xtick_2">
     <g id="line2d_3">
      <path d="M 124.570156 354.855312 
L 124.570156 40.695312 
" clip-path="url(#p7421f90629)" style="fill: none; stroke: #dfe3e8; stroke-width: 0.8; stroke-linecap: square"/>
     </g>
     <g id="line2d_4">
      <g>
       <use xlink:href="#m95c9a4a4f0" x="124.570156" y="354.855312" style="stroke: #000000; stroke-width: 0.8"/>
      </g>
     </g>
     <g id="text_2">
      <!-- −2 -->
      <g transform="translate(116.461953 370.213594) scale(0.11 -0.11)">
       <defs>
        <path id="DejaVuSans-32" d="M 1228 531 
L 3431 531 
L 3431 0 
L 469 0 
L 469 531 
Q 828 903 1448 1529 
Q 2069 2156 2228 2338 
Q 2531 2678 2651 2914 
Q 2772 3150 2772 3378 
Q 2772 3750 2511 3984 
Q 2250 4219 1831 4219 
Q 1534 4219 1204 4116 
Q 875 4013 500 3803 
L 500 4441 
Q 881 4594 1212 4672 
Q 1544 4750 1819 4750 
Q 2544 4750 2975 4387 
Q 3406 4025 3406 3419 
Q 3406 3131 3298 2873 
Q 3191 2616 2906 2266 
Q 2828 2175 2409 1742 
Q 1991 1309 1228 531 
z
" transform="scale(0.015625)"/>
       </defs>
       <use xlink:href="#DejaVuSans-2212"/>
       <use xlink:href="#DejaVuSans-32" transform="translate(83.789062 0)"/>
      </g>
     </g>
    </g>
    <g id="xtick_3">
     <g id="line2d_5">
      <path d="M 203.110156 354.855312 
L 203.110156 40.695312 
" clip-path="url(#p7421f90629)" style="fill: none; stroke: #dfe3e8; stroke-width: 0.8; stroke-linecap: square"/>
     </g>
     <g id="line2d_6">
      <g>
       <use xlink:href="#m95c9a4a4f0" x="203.110156" y="354.855312" style="stroke: #000000; stroke-width: 0.8"/>
      </g>
     </g>
     <g id="text_3">
      <!-- 0 -->
      <g transform="translate(199.610781 370.213594) scale(0.11 -0.11)">
       <defs>
        <path id="DejaVuSans-30" d="M 2034 4250 
Q 1547 4250 1301 3770 
Q 1056 3291 1056 2328 
Q 1056 1369 1301 889 
Q 1547 409 2034 409 
Q 2525 409 2770 889 
Q 3016 1369 3016 2328 
Q 3016 3291 2770 3770 
Q 2525 4250 2034 4250 
z
M 2034 4750 
Q 2819 4750 3233 4129 
Q 3647 3509 3647 2328 
Q 3647 1150 3233 529 
Q 2819 -91 2034 -91 
Q 1250 -91 836 529 
Q 422 1150 422 2328 
Q 422 3509 836 4129 
Q 1250 4750 2034 4750 
z
" transform="scale(0.015625)"/>
       </defs>
       <use xlink:href="#DejaVuSans-30"/>
      </g>
     </g>
    </g>
    <g id="xtick_4">
     <g id="line2d_7">
      <path d="M 281.650156 354.855312 
L 281.650156 40.695312 
" clip-path="url(#p7421f90629)" style="fill: none; stroke: #dfe3e8; stroke-width: 0.8; stroke-linecap: square"/>
     </g>
     <g id="line2d_8">
      <g>
       <use xlink:href="#m95c9a4a4f0" x="281.650156" y="354.855312" style="stroke: #000000; stroke-width: 0.8"/>
      </g>
     </g>
     <g id="text_4">
      <!-- 2 -->
      <g transform="translate(278.150781 370.213594) scale(0.11 -0.11)">
       <use xlink:href="#DejaVuSans-32"/>
      </g>
     </g>
    </g>
    <g id="xtick_5">
     <g id="line2d_9">
      <path d="M 360.190156 354.855312 
L 360.190156 40.695312 
" clip-path="url(#p7421f90629)" style="fill: none; stroke: #dfe3e8; stroke-width: 0.8; stroke-linecap: square"/>
     </g>
     <g id="line2d_10">
      <g>
       <use xlink:href="#m95c9a4a4f0" x="360.190156" y="354.855312" style="stroke: #000000; stroke-width: 0.8"/>
      </g>
     </g>
     <g id="text_5">
      <!-- 4 -->
      <g transform="translate(356.690781 370.213594) scale(0.11 -0.11)">
       <use xlink:href="#DejaVuSans-34"/>
      </g>
     </g>
    </g>
    <g id="text_6">
     <!-- $x$ -->
     <g transform="translate(199.510156 385.619375) scale(0.12 -0.12)">
      <defs>
       <path id="DejaVuSans-Oblique-78" d="M 3841 3500 
L 2234 1784 
L 3219 0 
L 2559 0 
L 1819 1388 
L 531 0 
L -166 0 
L 1556 1844 
L 641 3500 
L 1300 3500 
L 1972 2234 
L 3144 3500 
L 3841 3500 
z
" transform="scale(0.015625)"/>
      </defs>
      <use xlink:href="#DejaVuSans-Oblique-78" transform="translate(0 0.3125)"/>
     </g>
    </g>
   </g>
   <g id="matplotlib.axis_2">
    <g id="ytick_1">
     <g id="line2d_11">
      <path d="M 46.030156 354.855312 
L 360.190156 354.855312 
" clip-path="url(#p7421f90629)" style="fill: none; stroke: #dfe3e8; stroke-width: 0.8; stroke-linecap: square"/>
     </g>
     <g id="line2d_12">
      <defs>
       <path id="m37c1f4ccf6" d="M 0 0 
L -3.5 0 
" style="stroke: #000000; stroke-width: 0.8"/>
      </defs>
      <g>
       <use xlink:href="#m37c1f4ccf6" x="46.030156" y="354.855312" style="stroke: #000000; stroke-width: 0.8"/>
      </g>
     </g>
     <g id="text_7">
      <!-- −4 -->
      <g transform="translate(22.81375 359.034453) scale(0.11 -0.11)">
       <use xlink:href="#DejaVuSans-2212"/>
       <use xlink:href="#DejaVuSans-34" transform="translate(83.789062 0)"/>
      </g>
     </g>
    </g>
    <g id="ytick_2">
     <g id="line2d_13">
      <path d="M 46.030156 276.315312 
L 360.190156 276.315312 
" clip-path="url(#p7421f90629)" style="fill: none; stroke: #dfe3e8; stroke-width: 0.8; stroke-linecap: square"/>
     </g>
     <g id="line2d_14">
      <g>
       <use xlink:href="#m37c1f4ccf6" x="46.030156" y="276.315312" style="stroke: #000000; stroke-width: 0.8"/>
      </g>
     </g>
     <g id="text_8">
      <!-- −2 -->
      <g transform="translate(22.81375 280.494453) scale(0.11 -0.11)">
       <use xlink:href="#DejaVuSans-2212"/>
       <use xlink:href="#DejaVuSans-32" transform="translate(83.789062 0)"/>
      </g>
     </g>
    </g>
    <g id="ytick_3">
     <g id="line2d_15">
      <path d="M 46.030156 197.775312 
L 360.190156 197.775312 
" clip-path="url(#p7421f90629)" style="fill: none; stroke: #dfe3e8; stroke-width: 0.8; stroke-linecap: square"/>
     </g>
     <g id="line2d_16">
      <g>
       <use xlink:href="#m37c1f4ccf6" x="46.030156" y="197.775312" style="stroke: #000000; stroke-width: 0.8"/>
      </g>
     </g>
     <g id="text_9">
      <!-- 0 -->
      <g transform="translate(32.031406 201.954453) scale(0.11 -0.11)">
       <use xlink:href="#DejaVuSans-30"/>
      </g>
     </g>
    </g>
    <g id="ytick_4">
     <g id="line2d_17">
      <path d="M 46.030156 119.235312 
L 360.190156 119.235312 
" clip-path="url(#p7421f90629)" style="fill: none; stroke: #dfe3e8; stroke-width: 0.8; stroke-linecap: square"/>
     </g>
     <g id="line2d_18">
      <g>
       <use xlink:href="#m37c1f4ccf6" x="46.030156" y="119.235312" style="stroke: #000000; stroke-width: 0.8"/>
      </g>
     </g>
     <g id="text_10">
      <!-- 2 -->
      <g transform="translate(32.031406 123.414453) scale(0.11 -0.11)">
       <use xlink:href="#DejaVuSans-32"/>
      </g>
     </g>
    </g>
    <g id="ytick_5">
     <g id="line2d_19">
      <path d="M 46.030156 40.695312 
L 360.190156 40.695312 
" clip-path="url(#p7421f90629)" style="fill: none; stroke: #dfe3e8; stroke-width: 0.8; stroke-linecap: square"/>
     </g>
     <g id="line2d_20">
      <g>
       <use xlink:href="#m37c1f4ccf6" x="46.030156" y="40.695312" style="stroke: #000000; stroke-width: 0.8"/>
      </g>
     </g>
     <g id="text_11">
      <!-- 4 -->
      <g transform="translate(32.031406 44.874453) scale(0.11 -0.11)">
       <use xlink:href="#DejaVuSans-34"/>
      </g>
     </g>
    </g>
    <g id="text_12">
     <!-- $y$ -->
     <g transform="translate(16.29375 201.375312) rotate(-90) scale(0.12 -0.12)">
      <defs>
       <path id="DejaVuSans-Oblique-79" d="M 1588 -325 
Q 1188 -997 936 -1164 
Q 684 -1331 294 -1331 
L -159 -1331 
L -63 -850 
L 269 -850 
Q 509 -850 678 -719 
Q 847 -588 1056 -206 
L 1234 128 
L 459 3500 
L 1069 3500 
L 1650 819 
L 3256 3500 
L 3859 3500 
L 1588 -325 
z
" transform="scale(0.015625)"/>
      </defs>
      <use xlink:href="#DejaVuSans-Oblique-79" transform="translate(0 0.3125)"/>
     </g>
    </g>
   </g>
   <g id="line2d_21">
    <path d="M 46.030156 197.775312 
L 360.190156 197.775312 
" clip-path="url(#p7421f90629)" style="fill: none; stroke: #7a8592; stroke-opacity: 0.6; stroke-linecap: square"/>
   </g>
   <g id="line2d_22">
    <path d="M 203.110156 354.855312 
L 203.110156 40.695312 
" clip-path="url(#p7421f90629)" style="fill: none; stroke: #7a8592; stroke-opacity: 0.6; stroke-linecap: square"/>
   </g>
   <g id="patch_3">
    <path d="M 46.030156 354.855312 
L 46.030156 40.695312 
" style="fill: none; stroke: #7a8592; stroke-width: 0.8; stroke-linejoin: miter; stroke-linecap: square"/>
   </g>
   <g id="patch_4">
    <path d="M 46.030156 354.855312 
L 360.190156 354.855312 
" style="fill: none; stroke: #7a8592; stroke-width: 0.8; stroke-linejoin: miter; stroke-linecap: square"/>
   </g>
   <g id="text_13">
    <!-- (a)  $\lambda = 5,\ 1$  (both POSITIVE) -->
    <g style="fill: #2874a6" transform="translate(112.422656 16.698047) scale(0.125 -0.125)">
     <defs>
      <path id="DejaVuSans-28" d="M 1984 4856 
Q 1566 4138 1362 3434 
Q 1159 2731 1159 2009 
Q 1159 1288 1364 580 
Q 1569 -128 1984 -844 
L 1484 -844 
Q 1016 -109 783 600 
Q 550 1309 550 2009 
Q 550 2706 781 3412 
Q 1013 4119 1484 4856 
L 1984 4856 
z
" transform="scale(0.015625)"/>
      <path id="DejaVuSans-61" d="M 2194 1759 
Q 1497 1759 1228 1600 
Q 959 1441 959 1056 
Q 959 750 1161 570 
Q 1363 391 1709 391 
Q 2188 391 2477 730 
Q 2766 1069 2766 1631 
L 2766 1759 
L 2194 1759 
z
M 3341 1997 
L 3341 0 
L 2766 0 
L 2766 531 
Q 2569 213 2275 61 
Q 1981 -91 1556 -91 
Q 1019 -91 701 211 
Q 384 513 384 1019 
Q 384 1609 779 1909 
Q 1175 2209 1959 2209 
L 2766 2209 
L 2766 2266 
Q 2766 2663 2505 2880 
Q 2244 3097 1772 3097 
Q 1472 3097 1187 3025 
Q 903 2953 641 2809 
L 641 3341 
Q 956 3463 1253 3523 
Q 1550 3584 1831 3584 
Q 2591 3584 2966 3190 
Q 3341 2797 3341 1997 
z
" transform="scale(0.015625)"/>
      <path id="DejaVuSans-29" d="M 513 4856 
L 1013 4856 
Q 1481 4119 1714 3412 
Q 1947 2706 1947 2009 
Q 1947 1309 1714 600 
Q 1481 -109 1013 -844 
L 513 -844 
Q 928 -128 1133 580 
Q 1338 1288 1338 2009 
Q 1338 2731 1133 3434 
Q 928 4138 513 4856 
z
" transform="scale(0.015625)"/>
      <path id="DejaVuSans-20" transform="scale(0.015625)"/>
      <path id="DejaVuSans-Oblique-3bb" d="M 2350 4316 
L 3125 0 
L 2516 0 
L 2038 2588 
L 328 0 
L -281 0 
L 1903 3356 
L 1794 3975 
Q 1725 4369 1391 4369 
L 1091 4369 
L 1184 4863 
L 1550 4856 
Q 2253 4847 2350 4316 
z
" transform="scale(0.015625)"/>
      <path id="DejaVuSans-3d" d="M 678 2906 
L 4684 2906 
L 4684 2381 
L 678 2381 
L 678 2906 
z
M 678 1631 
L 4684 1631 
L 4684 1100 
L 678 1100 
L 678 1631 
z
" transform="scale(0.015625)"/>
      <path id="DejaVuSans-35" d="M 691 4666 
L 3169 4666 
L 3169 4134 
L 1269 4134 
L 1269 2991 
Q 1406 3038 1543 3061 
Q 1681 3084 1819 3084 
Q 2600 3084 3056 2656 
Q 3513 2228 3513 1497 
Q 3513 744 3044 326 
Q 2575 -91 1722 -91 
Q 1428 -91 1123 -41 
Q 819 9 494 109 
L 494 744 
Q 775 591 1075 516 
Q 1375 441 1709 441 
Q 2250 441 2565 725 
Q 2881 1009 2881 1497 
Q 2881 1984 2565 2268 
Q 2250 2553 1709 2553 
Q 1456 2553 1204 2497 
Q 953 2441 691 2322 
L 691 4666 
z
" transform="scale(0.015625)"/>
      <path id="DejaVuSans-2c" d="M 750 794 
L 1409 794 
L 1409 256 
L 897 -744 
L 494 -744 
L 750 256 
L 750 794 
z
" transform="scale(0.015625)"/>
      <path id="DejaVuSans-31" d="M 794 531 
L 1825 531 
L 1825 4091 
L 703 3866 
L 703 4441 
L 1819 4666 
L 2450 4666 
L 2450 531 
L 3481 531 
L 3481 0 
L 794 0 
L 794 531 
z
" transform="scale(0.015625)"/>
      <path id="DejaVuSans-62" d="M 3116 1747 
Q 3116 2381 2855 2742 
Q 2594 3103 2138 3103 
Q 1681 3103 1420 2742 
Q 1159 2381 1159 1747 
Q 1159 1113 1420 752 
Q 1681 391 2138 391 
Q 2594 391 2855 752 
Q 3116 1113 3116 1747 
z
M 1159 2969 
Q 1341 3281 1617 3432 
Q 1894 3584 2278 3584 
Q 2916 3584 3314 3078 
Q 3713 2572 3713 1747 
Q 3713 922 3314 415 
Q 2916 -91 2278 -91 
Q 1894 -91 1617 61 
Q 1341 213 1159 525 
L 1159 0 
L 581 0 
L 581 4863 
L 1159 4863 
L 1159 2969 
z
" transform="scale(0.015625)"/>
      <path id="DejaVuSans-6f" d="M 1959 3097 
Q 1497 3097 1228 2736 
Q 959 2375 959 1747 
Q 959 1119 1226 758 
Q 1494 397 1959 397 
Q 2419 397 2687 759 
Q 2956 1122 2956 1747 
Q 2956 2369 2687 2733 
Q 2419 3097 1959 3097 
z
M 1959 3584 
Q 2709 3584 3137 3096 
Q 3566 2609 3566 1747 
Q 3566 888 3137 398 
Q 2709 -91 1959 -91 
Q 1206 -91 779 398 
Q 353 888 353 1747 
Q 353 2609 779 3096 
Q 1206 3584 1959 3584 
z
" transform="scale(0.015625)"/>
      <path id="DejaVuSans-74" d="M 1172 4494 
L 1172 3500 
L 2356 3500 
L 2356 3053 
L 1172 3053 
L 1172 1153 
Q 1172 725 1289 603 
Q 1406 481 1766 481 
L 2356 481 
L 2356 0 
L 1766 0 
Q 1100 0 847 248 
Q 594 497 594 1153 
L 594 3053 
L 172 3053 
L 172 3500 
L 594 3500 
L 594 4494 
L 1172 4494 
z
" transform="scale(0.015625)"/>
      <path id="DejaVuSans-68" d="M 3513 2113 
L 3513 0 
L 2938 0 
L 2938 2094 
Q 2938 2591 2744 2837 
Q 2550 3084 2163 3084 
Q 1697 3084 1428 2787 
Q 1159 2491 1159 1978 
L 1159 0 
L 581 0 
L 581 4863 
L 1159 4863 
L 1159 2956 
Q 1366 3272 1645 3428 
Q 1925 3584 2291 3584 
Q 2894 3584 3203 3211 
Q 3513 2838 3513 2113 
z
" transform="scale(0.015625)"/>
      <path id="DejaVuSans-50" d="M 1259 4147 
L 1259 2394 
L 2053 2394 
Q 2494 2394 2734 2622 
Q 2975 2850 2975 3272 
Q 2975 3691 2734 3919 
Q 2494 4147 2053 4147 
L 1259 4147 
z
M 628 4666 
L 2053 4666 
Q 2838 4666 3239 4311 
Q 3641 3956 3641 3272 
Q 3641 2581 3239 2228 
Q 2838 1875 2053 1875 
L 1259 1875 
L 1259 0 
L 628 0 
L 628 4666 
z
" transform="scale(0.015625)"/>
      <path id="DejaVuSans-4f" d="M 2522 4238 
Q 1834 4238 1429 3725 
Q 1025 3213 1025 2328 
Q 1025 1447 1429 934 
Q 1834 422 2522 422 
Q 3209 422 3611 934 
Q 4013 1447 4013 2328 
Q 4013 3213 3611 3725 
Q 3209 4238 2522 4238 
z
M 2522 4750 
Q 3503 4750 4090 4092 
Q 4678 3434 4678 2328 
Q 4678 1225 4090 567 
Q 3503 -91 2522 -91 
Q 1538 -91 948 565 
Q 359 1222 359 2328 
Q 359 3434 948 4092 
Q 1538 4750 2522 4750 
z
" transform="scale(0.015625)"/>
      <path id="DejaVuSans-53" d="M 3425 4513 
L 3425 3897 
Q 3066 4069 2747 4153 
Q 2428 4238 2131 4238 
Q 1616 4238 1336 4038 
Q 1056 3838 1056 3469 
Q 1056 3159 1242 3001 
Q 1428 2844 1947 2747 
L 2328 2669 
Q 3034 2534 3370 2195 
Q 3706 1856 3706 1288 
Q 3706 609 3251 259 
Q 2797 -91 1919 -91 
Q 1588 -91 1214 -16 
Q 841 59 441 206 
L 441 856 
Q 825 641 1194 531 
Q 1563 422 1919 422 
Q 2459 422 2753 634 
Q 3047 847 3047 1241 
Q 3047 1584 2836 1778 
Q 2625 1972 2144 2069 
L 1759 2144 
Q 1053 2284 737 2584 
Q 422 2884 422 3419 
Q 422 4038 858 4394 
Q 1294 4750 2059 4750 
Q 2388 4750 2728 4690 
Q 3069 4631 3425 4513 
z
" transform="scale(0.015625)"/>
      <path id="DejaVuSans-49" d="M 628 4666 
L 1259 4666 
L 1259 0 
L 628 0 
L 628 4666 
z
" transform="scale(0.015625)"/>
      <path id="DejaVuSans-54" d="M -19 4666 
L 3928 4666 
L 3928 4134 
L 2272 4134 
L 2272 0 
L 1638 0 
L 1638 4134 
L -19 4134 
L -19 4666 
z
" transform="scale(0.015625)"/>
      <path id="DejaVuSans-56" d="M 1831 0 
L 50 4666 
L 709 4666 
L 2188 738 
L 3669 4666 
L 4325 4666 
L 2547 0 
L 1831 0 
z
" transform="scale(0.015625)"/>
      <path id="DejaVuSans-45" d="M 628 4666 
L 3578 4666 
L 3578 4134 
L 1259 4134 
L 1259 2753 
L 3481 2753 
L 3481 2222 
L 1259 2222 
L 1259 531 
L 3634 531 
L 3634 0 
L 628 0 
L 628 4666 
z
" transform="scale(0.015625)"/>
     </defs>
     <use xlink:href="#DejaVuSans-28" transform="translate(0 0.015625)"/>
     <use xlink:href="#DejaVuSans-61" transform="translate(39.013672 0.015625)"/>
     <use xlink:href="#DejaVuSans-29" transform="translate(100.292969 0.015625)"/>
     <use xlink:href="#DejaVuSans-20" transform="translate(139.306641 0.015625)"/>
     <use xlink:href="#DejaVuSans-20" transform="translate(171.09375 0.015625)"/>
     <use xlink:href="#DejaVuSans-Oblique-3bb" transform="translate(202.880859 0.015625)"/>
     <use xlink:href="#DejaVuSans-3d" transform="translate(281.542969 0.015625)"/>
     <use xlink:href="#DejaVuSans-35" transform="translate(384.814453 0.015625)"/>
     <use xlink:href="#DejaVuSans-2c" transform="translate(448.4375 0.015625)"/>
     <use xlink:href="#DejaVuSans-31" transform="translate(532.17741 0.015625)"/>
     <use xlink:href="#DejaVuSans-20" transform="translate(595.800457 0.015625)"/>
     <use xlink:href="#DejaVuSans-20" transform="translate(627.587566 0.015625)"/>
     <use xlink:href="#DejaVuSans-28" transform="translate(659.374675 0.015625)"/>
     <use xlink:href="#DejaVuSans-62" transform="translate(698.388347 0.015625)"/>
     <use xlink:href="#DejaVuSans-6f" transform="translate(761.86491 0.015625)"/>
     <use xlink:href="#DejaVuSans-74" transform="translate(823.04655 0.015625)"/>
     <use xlink:href="#DejaVuSans-68" transform="translate(862.255535 0.015625)"/>
     <use xlink:href="#DejaVuSans-20" transform="translate(925.634441 0.015625)"/>
     <use xlink:href="#DejaVuSans-50" transform="translate(957.42155 0.015625)"/>
     <use xlink:href="#DejaVuSans-4f" transform="translate(1017.724285 0.015625)"/>
     <use xlink:href="#DejaVuSans-53" transform="translate(1096.435222 0.015625)"/>
     <use xlink:href="#DejaVuSans-49" transform="translate(1159.911785 0.015625)"/>
     <use xlink:href="#DejaVuSans-54" transform="translate(1189.403972 0.015625)"/>
     <use xlink:href="#DejaVuSans-49" transform="translate(1250.487957 0.015625)"/>
     <use xlink:href="#DejaVuSans-56" transform="translate(1279.980144 0.015625)"/>
     <use xlink:href="#DejaVuSans-45" transform="translate(1348.388347 0.015625)"/>
     <use xlink:href="#DejaVuSans-29" transform="translate(1411.571941 0.015625)"/>
    </g>
    <!-- all paths move AWAY from the origin -->
    <g style="fill: #2874a6" transform="translate(88.998828 30.695312) scale(0.125 -0.125)">
     <defs>
      <path id="DejaVuSans-6c" d="M 603 4863 
L 1178 4863 
L 1178 0 
L 603 0 
L 603 4863 
z
" transform="scale(0.015625)"/>
      <path id="DejaVuSans-70" d="M 1159 525 
L 1159 -1331 
L 581 -1331 
L 581 3500 
L 1159 3500 
L 1159 2969 
Q 1341 3281 1617 3432 
Q 1894 3584 2278 3584 
Q 2916 3584 3314 3078 
Q 3713 2572 3713 1747 
Q 3713 922 3314 415 
Q 2916 -91 2278 -91 
Q 1894 -91 1617 61 
Q 1341 213 1159 525 
z
M 3116 1747 
Q 3116 2381 2855 2742 
Q 2594 3103 2138 3103 
Q 1681 3103 1420 2742 
Q 1159 2381 1159 1747 
Q 1159 1113 1420 752 
Q 1681 391 2138 391 
Q 2594 391 2855 752 
Q 3116 1113 3116 1747 
z
" transform="scale(0.015625)"/>
      <path id="DejaVuSans-73" d="M 2834 3397 
L 2834 2853 
Q 2591 2978 2328 3040 
Q 2066 3103 1784 3103 
Q 1356 3103 1142 2972 
Q 928 2841 928 2578 
Q 928 2378 1081 2264 
Q 1234 2150 1697 2047 
L 1894 2003 
Q 2506 1872 2764 1633 
Q 3022 1394 3022 966 
Q 3022 478 2636 193 
Q 2250 -91 1575 -91 
Q 1294 -91 989 -36 
Q 684 19 347 128 
L 347 722 
Q 666 556 975 473 
Q 1284 391 1588 391 
Q 1994 391 2212 530 
Q 2431 669 2431 922 
Q 2431 1156 2273 1281 
Q 2116 1406 1581 1522 
L 1381 1569 
Q 847 1681 609 1914 
Q 372 2147 372 2553 
Q 372 3047 722 3315 
Q 1072 3584 1716 3584 
Q 2034 3584 2315 3537 
Q 2597 3491 2834 3397 
z
" transform="scale(0.015625)"/>
      <path id="DejaVuSans-6d" d="M 3328 2828 
Q 3544 3216 3844 3400 
Q 4144 3584 4550 3584 
Q 5097 3584 5394 3201 
Q 5691 2819 5691 2113 
L 5691 0 
L 5113 0 
L 5113 2094 
Q 5113 2597 4934 2840 
Q 4756 3084 4391 3084 
Q 3944 3084 3684 2787 
Q 3425 2491 3425 1978 
L 3425 0 
L 2847 0 
L 2847 2094 
Q 2847 2600 2669 2842 
Q 2491 3084 2119 3084 
Q 1678 3084 1418 2786 
Q 1159 2488 1159 1978 
L 1159 0 
L 581 0 
L 581 3500 
L 1159 3500 
L 1159 2956 
Q 1356 3278 1631 3431 
Q 1906 3584 2284 3584 
Q 2666 3584 2933 3390 
Q 3200 3197 3328 2828 
z
" transform="scale(0.015625)"/>
      <path id="DejaVuSans-76" d="M 191 3500 
L 800 3500 
L 1894 563 
L 2988 3500 
L 3597 3500 
L 2284 0 
L 1503 0 
L 191 3500 
z
" transform="scale(0.015625)"/>
      <path id="DejaVuSans-65" d="M 3597 1894 
L 3597 1613 
L 953 1613 
Q 991 1019 1311 708 
Q 1631 397 2203 397 
Q 2534 397 2845 478 
Q 3156 559 3463 722 
L 3463 178 
Q 3153 47 2828 -22 
Q 2503 -91 2169 -91 
Q 1331 -91 842 396 
Q 353 884 353 1716 
Q 353 2575 817 3079 
Q 1281 3584 2069 3584 
Q 2775 3584 3186 3129 
Q 3597 2675 3597 1894 
z
M 3022 2063 
Q 3016 2534 2758 2815 
Q 2500 3097 2075 3097 
Q 1594 3097 1305 2825 
Q 1016 2553 972 2059 
L 3022 2063 
z
" transform="scale(0.015625)"/>
      <path id="DejaVuSans-41" d="M 2188 4044 
L 1331 1722 
L 3047 1722 
L 2188 4044 
z
M 1831 4666 
L 2547 4666 
L 4325 0 
L 3669 0 
L 3244 1197 
L 1141 1197 
L 716 0 
L 50 0 
L 1831 4666 
z
" transform="scale(0.015625)"/>
      <path id="DejaVuSans-57" d="M 213 4666 
L 850 4666 
L 1831 722 
L 2809 4666 
L 3519 4666 
L 4500 722 
L 5478 4666 
L 6119 4666 
L 4947 0 
L 4153 0 
L 3169 4050 
L 2175 0 
L 1381 0 
L 213 4666 
z
" transform="scale(0.015625)"/>
      <path id="DejaVuSans-59" d="M -13 4666 
L 666 4666 
L 1959 2747 
L 3244 4666 
L 3922 4666 
L 2272 2222 
L 2272 0 
L 1638 0 
L 1638 2222 
L -13 4666 
z
" transform="scale(0.015625)"/>
      <path id="DejaVuSans-66" d="M 2375 4863 
L 2375 4384 
L 1825 4384 
Q 1516 4384 1395 4259 
Q 1275 4134 1275 3809 
L 1275 3500 
L 2222 3500 
L 2222 3053 
L 1275 3053 
L 1275 0 
L 697 0 
L 697 3053 
L 147 3053 
L 147 3500 
L 697 3500 
L 697 3744 
Q 697 4328 969 4595 
Q 1241 4863 1831 4863 
L 2375 4863 
z
" transform="scale(0.015625)"/>
      <path id="DejaVuSans-72" d="M 2631 2963 
Q 2534 3019 2420 3045 
Q 2306 3072 2169 3072 
Q 1681 3072 1420 2755 
Q 1159 2438 1159 1844 
L 1159 0 
L 581 0 
L 581 3500 
L 1159 3500 
L 1159 2956 
Q 1341 3275 1631 3429 
Q 1922 3584 2338 3584 
Q 2397 3584 2469 3576 
Q 2541 3569 2628 3553 
L 2631 2963 
z
" transform="scale(0.015625)"/>
      <path id="DejaVuSans-69" d="M 603 3500 
L 1178 3500 
L 1178 0 
L 603 0 
L 603 3500 
z
M 603 4863 
L 1178 4863 
L 1178 4134 
L 603 4134 
L 603 4863 
z
" transform="scale(0.015625)"/>
      <path id="DejaVuSans-67" d="M 2906 1791 
Q 2906 2416 2648 2759 
Q 2391 3103 1925 3103 
Q 1463 3103 1205 2759 
Q 947 2416 947 1791 
Q 947 1169 1205 825 
Q 1463 481 1925 481 
Q 2391 481 2648 825 
Q 2906 1169 2906 1791 
z
M 3481 434 
Q 3481 -459 3084 -895 
Q 2688 -1331 1869 -1331 
Q 1566 -1331 1297 -1286 
Q 1028 -1241 775 -1147 
L 775 -588 
Q 1028 -725 1275 -790 
Q 1522 -856 1778 -856 
Q 2344 -856 2625 -561 
Q 2906 -266 2906 331 
L 2906 616 
Q 2728 306 2450 153 
Q 2172 0 1784 0 
Q 1141 0 747 490 
Q 353 981 353 1791 
Q 353 2603 747 3093 
Q 1141 3584 1784 3584 
Q 2172 3584 2450 3431 
Q 2728 3278 2906 2969 
L 2906 3500 
L 3481 3500 
L 3481 434 
z
" transform="scale(0.015625)"/>
      <path id="DejaVuSans-6e" d="M 3513 2113 
L 3513 0 
L 2938 0 
L 2938 2094 
Q 2938 2591 2744 2837 
Q 2550 3084 2163 3084 
Q 1697 3084 1428 2787 
Q 1159 2491 1159 1978 
L 1159 0 
L 581 0 
L 581 3500 
L 1159 3500 
L 1159 2956 
Q 1366 3272 1645 3428 
Q 1925 3584 2291 3584 
Q 2894 3584 3203 3211 
Q 3513 2838 3513 2113 
z
" transform="scale(0.015625)"/>
     </defs>
     <use xlink:href="#DejaVuSans-61"/>
     <use xlink:href="#DejaVuSans-6c" transform="translate(61.279297 0)"/>
     <use xlink:href="#DejaVuSans-6c" transform="translate(89.0625 0)"/>
     <use xlink:href="#DejaVuSans-20" transform="translate(116.845703 0)"/>
     <use xlink:href="#DejaVuSans-70" transform="translate(148.632812 0)"/>
     <use xlink:href="#DejaVuSans-61" transform="translate(212.109375 0)"/>
     <use xlink:href="#DejaVuSans-74" transform="translate(273.388672 0)"/>
     <use xlink:href="#DejaVuSans-68" transform="translate(312.597656 0)"/>
     <use xlink:href="#DejaVuSans-73" transform="translate(375.976562 0)"/>
     <use xlink:href="#DejaVuSans-20" transform="translate(428.076172 0)"/>
     <use xlink:href="#DejaVuSans-6d" transform="translate(459.863281 0)"/>
     <use xlink:href="#DejaVuSans-6f" transform="translate(557.275391 0)"/>
     <use xlink:href="#DejaVuSans-76" transform="translate(618.457031 0)"/>
     <use xlink:href="#DejaVuSans-65" transform="translate(677.636719 0)"/>
     <use xlink:href="#DejaVuSans-20" transform="translate(739.160156 0)"/>
     <use xlink:href="#DejaVuSans-41" transform="translate(770.947266 0)"/>
     <use xlink:href="#DejaVuSans-57" transform="translate(833.855469 0)"/>
     <use xlink:href="#DejaVuSans-41" transform="translate(927.232422 0)"/>
     <use xlink:href="#DejaVuSans-59" transform="translate(987.890625 0)"/>
     <use xlink:href="#DejaVuSans-20" transform="translate(1048.974609 0)"/>
     <use xlink:href="#DejaVuSans-66" transform="translate(1080.761719 0)"/>
     <use xlink:href="#DejaVuSans-72" transform="translate(1115.966797 0)"/>
     <use xlink:href="#DejaVuSans-6f" transform="translate(1154.830078 0)"/>
     <use xlink:href="#DejaVuSans-6d" transform="translate(1216.011719 0)"/>
     <use xlink:href="#DejaVuSans-20" transform="translate(1313.423828 0)"/>
     <use xlink:href="#DejaVuSans-74" transform="translate(1345.210938 0)"/>
     <use xlink:href="#DejaVuSans-68" transform="translate(1384.419922 0)"/>
     <use xlink:href="#DejaVuSans-65" transform="translate(1447.798828 0)"/>
     <use xlink:href="#DejaVuSans-20" transform="translate(1509.322266 0)"/>
     <use xlink:href="#DejaVuSans-6f" transform="translate(1541.109375 0)"/>
     <use xlink:href="#DejaVuSans-72" transform="translate(1602.291016 0)"/>
     <use xlink:href="#DejaVuSans-69" transform="translate(1643.404297 0)"/>
     <use xlink:href="#DejaVuSans-67" transform="translate(1671.1875 0)"/>
     <use xlink:href="#DejaVuSans-69" transform="translate(1734.664062 0)"/>
     <use xlink:href="#DejaVuSans-6e" transform="translate(1762.447266 0)"/>
    </g>
   </g>
   <g id="line2d_23">
    <path d="M 53.162506 347.722962 
L 353.057806 47.827663 
" clip-path="url(#p7421f90629)" style="fill: none; stroke: #c0392b; stroke-width: 2; stroke-linecap: square"/>
   </g>
   <g id="line2d_24">
    <path d="M 53.162506 47.827663 
L 353.057806 347.722962 
" clip-path="url(#p7421f90629)" style="fill: none; stroke: #1e8449; stroke-width: 2; stroke-linecap: square"/>
   </g>
   <g id="line2d_25">
    <path d="M 226.672156 217.410312 
L 228.776326 218.080615 
L 230.913915 218.530141 
L 233.13572 218.77247 
L 235.49025 218.80645 
L 238.008972 218.620568 
L 240.738191 218.195324 
L 243.745029 217.497085 
L 247.05466 216.493802 
L 250.690646 215.15478 
L 254.766399 213.409703 
L 259.232151 211.253768 
L 264.224696 208.596356 
L 269.80371 205.37508 
L 276.191292 201.42251 
L 283.341045 196.728169 
L 291.331583 191.210355 
L 300.244829 184.783918 
L 310.437186 177.154106 
L 321.798984 168.365909 
L 334.785643 158.029241 
L 349.241353 146.231211 
L 360.294733 137.040379 
L 360.294733 137.040379 
" clip-path="url(#p7421f90629)" style="fill: none; stroke: #2874a6; stroke-width: 2; stroke-linecap: square"/>
   </g>
   <g id="line2d_26">
    <path d="M 222.745156 221.337312 
L 223.415459 223.441483 
L 223.864985 225.579071 
L 224.107314 227.800876 
L 224.141294 230.155406 
L 223.955411 232.674128 
L 223.530167 235.403347 
L 222.831929 238.410185 
L 221.828646 241.719816 
L 220.489624 245.355803 
L 218.744547 249.431556 
L 216.588612 253.897308 
L 213.9312 258.889853 
L 210.709923 264.468866 
L 206.757354 270.856449 
L 202.063013 278.006202 
L 196.545199 285.996739 
L 190.118762 294.909986 
L 182.48895 305.102342 
L 173.700753 316.46414 
L 163.364084 329.450799 
L 151.566055 343.906509 
L 138.186145 359.947969 
L 122.654189 378.216367 
L 105.167767 398.439161 
L 84.993605 421.424584 
L 62.430253 446.794849 
L 39.24891 472.570969 
L 39.24891 472.570969 
" clip-path="url(#p7421f90629)" style="fill: none; stroke: #2874a6; stroke-width: 2; stroke-linecap: square"/>
   </g>
   <g id="line2d_27">
    <path d="M 179.548156 178.140312 
L 177.443986 177.47001 
L 175.306398 177.020484 
L 173.084593 176.778155 
L 170.730062 176.744175 
L 168.211341 176.930057 
L 165.482121 177.355301 
L 162.475284 178.05354 
L 159.165653 179.056823 
L 155.529666 180.395845 
L 151.453913 182.140922 
L 146.988161 184.296857 
L 141.995616 186.954269 
L 136.416603 190.175545 
L 130.02902 194.128115 
L 122.879267 198.822456 
L 114.888729 204.34027 
L 105.975483 210.766707 
L 95.783127 218.396519 
L 84.421329 227.184716 
L 71.43467 237.521384 
L 56.97896 249.319414 
L 40.9375 262.699324 
L 22.669102 278.23128 
L 2.446308 295.717702 
L -1 298.723886 
L -1 298.723886 
" clip-path="url(#p7421f90629)" style="fill: none; stroke: #2874a6; stroke-width: 2; stroke-linecap: square"/>
   </g>
   <g id="line2d_28">
    <path d="M 183.475156 174.213312 
L 182.804853 172.109142 
L 182.355328 169.971554 
L 182.112998 167.749749 
L 182.079019 165.395219 
L 182.264901 162.876497 
L 182.690145 160.147278 
L 183.388384 157.14044 
L 184.391667 153.830809 
L 185.730688 150.194822 
L 187.475766 146.119069 
L 189.6317 141.653317 
L 192.289113 136.660772 
L 195.510389 131.081759 
L 199.462959 124.694176 
L 204.1573 117.544423 
L 209.675114 109.553886 
L 216.10155 100.640639 
L 223.731363 90.448283 
L 232.51956 79.086485 
L 242.856228 66.099826 
L 254.654258 51.644116 
L 268.034168 35.602656 
L 283.566123 17.334258 
L 299.408246 -1 
L 299.408246 -1 
" clip-path="url(#p7421f90629)" style="fill: none; stroke: #2874a6; stroke-width: 2; stroke-linecap: square"/>
   </g>
   <g id="line2d_29">
    <path d="M 224.708656 195.811812 
L 229.437423 192.297206 
L 235.380717 187.593397 
L 242.913724 181.338486 
L 252.42588 173.141328 
L 264.380439 162.536694 
L 279.566877 148.753431 
L 298.507971 131.247807 
L 321.976374 109.244444 
L 351.357538 81.378769 
L 387.390673 46.886707 
L 432.050702 3.816069 
L 437.027292 -1 
L 437.027292 -1 
" clip-path="url(#p7421f90629)" style="fill: none; stroke: #2874a6; stroke-width: 2; stroke-linecap: square"/>
   </g>
   <g id="line2d_30">
    <path d="M 181.511656 199.738812 
L 176.782889 203.253419 
L 170.839595 207.957228 
L 163.306589 214.212139 
L 153.794432 222.409297 
L 141.839873 233.013931 
L 126.653436 246.797194 
L 107.712342 264.302818 
L 84.243938 286.306181 
L 54.862775 314.171856 
L 18.82964 348.663918 
L -1 367.751812 
L -1 367.751812 
" clip-path="url(#p7421f90629)" style="fill: none; stroke: #2874a6; stroke-width: 2; stroke-linecap: square"/>
   </g>
   <g id="patch_5">
    <path d="M 248.954103 151.931366 
Q 262.812308 138.073161 274.773147 126.112322 
" style="fill: none; stroke: #c0392b; stroke-width: 2.4; stroke-linecap: round"/>
    <path d="M 270.106242 127.667957 
L 274.773147 126.112322 
L 273.217512 130.779227 
z
" style="fill: #c0392b; stroke: #c0392b; stroke-width: 2.4; stroke-linecap: round"/>
   </g>
   <g id="patch_6">
    <path d="M 157.26621 243.619259 
Q 143.408004 257.477464 131.447166 269.438303 
" style="fill: none; stroke: #c0392b; stroke-width: 2.4; stroke-linecap: round"/>
    <path d="M 136.11407 267.882668 
L 131.447166 269.438303 
L 133.0028 264.771398 
z
" style="fill: #c0392b; stroke: #c0392b; stroke-width: 2.4; stroke-linecap: round"/>
   </g>
   <g id="patch_7">
    <path d="M 248.954103 243.619259 
Q 262.812308 257.477464 274.773147 269.438303 
" style="fill: none; stroke: #1e8449; stroke-width: 2.4; stroke-linecap: round"/>
    <path d="M 273.217512 264.771398 
L 274.773147 269.438303 
L 270.106242 267.882668 
z
" style="fill: #1e8449; stroke: #1e8449; stroke-width: 2.4; stroke-linecap: round"/>
   </g>
   <g id="patch_8">
    <path d="M 157.26621 151.931366 
Q 143.408004 138.073161 131.447166 126.112322 
" style="fill: none; stroke: #1e8449; stroke-width: 2.4; stroke-linecap: round"/>
    <path d="M 133.0028 130.779227 
L 131.447166 126.112322 
L 136.11407 127.667957 
z
" style="fill: #1e8449; stroke: #1e8449; stroke-width: 2.4; stroke-linecap: round"/>
   </g>
   <g id="patch_9">
    <path d="M 259.658946 211.036089 
Q 259.820693 210.952966 257.695303 212.045217 
" style="fill: none; stroke: #2874a6; stroke-width: 2.3; stroke-linecap: round"/>
    <path d="M 252.776255 212.09964 
L 257.695303 212.045217 
L 254.787412 216.01311 
z
" style="fill: #2874a6; stroke: #2874a6; stroke-width: 2.3; stroke-linecap: round"/>
   </g>
   <g id="patch_10">
    <path d="M 216.370932 254.324102 
Q 216.28781 254.485849 217.380061 252.36046 
" style="fill: none; stroke: #2874a6; stroke-width: 2.3; stroke-linecap: round"/>
    <path d="M 221.347954 249.452569 
L 217.380061 252.36046 
L 217.434484 247.441411 
z
" style="fill: #2874a6; stroke: #2874a6; stroke-width: 2.3; stroke-linecap: round"/>
   </g>
   <g id="patch_11">
    <path d="M 146.561366 184.514536 
Q 146.399619 184.597659 148.525009 183.505408 
" style="fill: none; stroke: #2874a6; stroke-width: 2.3; stroke-linecap: round"/>
    <path d="M 153.444058 183.450985 
L 148.525009 183.505408 
L 151.4329 179.537515 
z
" style="fill: #2874a6; stroke: #2874a6; stroke-width: 2.3; stroke-linecap: round"/>
   </g>
   <g id="patch_12">
    <path d="M 189.84938 141.226523 
Q 189.932503 141.064776 188.840251 143.190165 
" style="fill: none; stroke: #2874a6; stroke-width: 2.3; stroke-linecap: round"/>
    <path d="M 184.872359 146.098056 
L 188.840251 143.190165 
L 188.785829 148.109214 
z
" style="fill: #2874a6; stroke: #2874a6; stroke-width: 2.3; stroke-linecap: round"/>
   </g>
   <g id="patch_13">
    <path d="M 277.392478 150.743268 
Q 277.750947 150.41549 276.211682 151.822967 
" style="fill: none; stroke: #2874a6; stroke-width: 2.3; stroke-linecap: round"/>
    <path d="M 271.479934 153.168539 
L 276.211682 151.822967 
L 274.44909 156.415708 
z
" style="fill: #2874a6; stroke: #2874a6; stroke-width: 2.3; stroke-linecap: round"/>
   </g>
   <g id="patch_14">
    <path d="M 128.827835 244.807357 
Q 128.469366 245.135135 130.008631 243.727658 
" style="fill: none; stroke: #2874a6; stroke-width: 2.3; stroke-linecap: round"/>
    <path d="M 134.740378 242.382086 
L 130.008631 243.727658 
L 131.771222 239.134917 
z
" style="fill: #2874a6; stroke: #2874a6; stroke-width: 2.3; stroke-linecap: round"/>
   </g>
   <g id="line2d_31">
    <defs>
     <path id="m10679084a1" d="M 0 4.5 
C 1.193414 4.5 2.338109 4.025852 3.181981 3.181981 
C 4.025852 2.338109 4.5 1.193414 4.5 0 
C 4.5 -1.193414 4.025852 -2.338109 3.181981 -3.181981 
C 2.338109 -4.025852 1.193414 -4.5 0 -4.5 
C -1.193414 -4.5 -2.338109 -4.025852 -3.181981 -3.181981 
C -4.025852 -2.338109 -4.5 -1.193414 -4.5 0 
C -4.5 1.193414 -4.025852 2.338109 -3.181981 3.181981 
C -2.338109 4.025852 -1.193414 4.5 0 4.5 
z
" style="stroke: #1f2328"/>
    </defs>
    <g clip-path="url(#p7421f90629)">
     <use xlink:href="#m10679084a1" x="203.110156" y="197.775312" style="fill: #1f2328; stroke: #1f2328"/>
    </g>
   </g>
  </g>
  <g id="axes_2">
   <g id="patch_15">
    <path d="M 436.090156 354.855312 
L 750.250156 354.855312 
L 750.250156 40.695312 
L 436.090156 40.695312 
L 436.090156 354.855312 
z
" style="fill: none"/>
   </g>
   <g id="matplotlib.axis_3">
    <g id="xtick_6">
     <g id="line2d_32">
      <path d="M 436.090156 354.855312 
L 436.090156 40.695312 
" clip-path="url(#pc518af0ae3)" style="fill: none; stroke: #dfe3e8; stroke-width: 0.8; stroke-linecap: square"/>
     </g>
     <g id="line2d_33">
      <g>
       <use xlink:href="#m95c9a4a4f0" x="436.090156" y="354.855312" style="stroke: #000000; stroke-width: 0.8"/>
      </g>
     </g>
     <g id="text_14">
      <!-- −4 -->
      <g transform="translate(427.981953 370.213594) scale(0.11 -0.11)">
       <use xlink:href="#DejaVuSans-2212"/>
       <use xlink:href="#DejaVuSans-34" transform="translate(83.789062 0)"/>
      </g>
     </g>
    </g>
    <g id="xtick_7">
     <g id="line2d_34">
      <path d="M 514.630156 354.855312 
L 514.630156 40.695312 
" clip-path="url(#pc518af0ae3)" style="fill: none; stroke: #dfe3e8; stroke-width: 0.8; stroke-linecap: square"/>
     </g>
     <g id="line2d_35">
      <g>
       <use xlink:href="#m95c9a4a4f0" x="514.630156" y="354.855312" style="stroke: #000000; stroke-width: 0.8"/>
      </g>
     </g>
     <g id="text_15">
      <!-- −2 -->
      <g transform="translate(506.521953 370.213594) scale(0.11 -0.11)">
       <use xlink:href="#DejaVuSans-2212"/>
       <use xlink:href="#DejaVuSans-32" transform="translate(83.789062 0)"/>
      </g>
     </g>
    </g>
    <g id="xtick_8">
     <g id="line2d_36">
      <path d="M 593.170156 354.855312 
L 593.170156 40.695312 
" clip-path="url(#pc518af0ae3)" style="fill: none; stroke: #dfe3e8; stroke-width: 0.8; stroke-linecap: square"/>
     </g>
     <g id="line2d_37">
      <g>
       <use xlink:href="#m95c9a4a4f0" x="593.170156" y="354.855312" style="stroke: #000000; stroke-width: 0.8"/>
      </g>
     </g>
     <g id="text_16">
      <!-- 0 -->
      <g transform="translate(589.670781 370.213594) scale(0.11 -0.11)">
       <use xlink:href="#DejaVuSans-30"/>
      </g>
     </g>
    </g>
    <g id="xtick_9">
     <g id="line2d_38">
      <path d="M 671.710156 354.855312 
L 671.710156 40.695312 
" clip-path="url(#pc518af0ae3)" style="fill: none; stroke: #dfe3e8; stroke-width: 0.8; stroke-linecap: square"/>
     </g>
     <g id="line2d_39">
      <g>
       <use xlink:href="#m95c9a4a4f0" x="671.710156" y="354.855312" style="stroke: #000000; stroke-width: 0.8"/>
      </g>
     </g>
     <g id="text_17">
      <!-- 2 -->
      <g transform="translate(668.210781 370.213594) scale(0.11 -0.11)">
       <use xlink:href="#DejaVuSans-32"/>
      </g>
     </g>
    </g>
    <g id="xtick_10">
     <g id="line2d_40">
      <path d="M 750.250156 354.855312 
L 750.250156 40.695312 
" clip-path="url(#pc518af0ae3)" style="fill: none; stroke: #dfe3e8; stroke-width: 0.8; stroke-linecap: square"/>
     </g>
     <g id="line2d_41">
      <g>
       <use xlink:href="#m95c9a4a4f0" x="750.250156" y="354.855312" style="stroke: #000000; stroke-width: 0.8"/>
      </g>
     </g>
     <g id="text_18">
      <!-- 4 -->
      <g transform="translate(746.750781 370.213594) scale(0.11 -0.11)">
       <use xlink:href="#DejaVuSans-34"/>
      </g>
     </g>
    </g>
    <g id="text_19">
     <!-- $x$ -->
     <g transform="translate(589.570156 385.619375) scale(0.12 -0.12)">
      <use xlink:href="#DejaVuSans-Oblique-78" transform="translate(0 0.3125)"/>
     </g>
    </g>
   </g>
   <g id="matplotlib.axis_4">
    <g id="ytick_6">
     <g id="line2d_42">
      <path d="M 436.090156 354.855312 
L 750.250156 354.855312 
" clip-path="url(#pc518af0ae3)" style="fill: none; stroke: #dfe3e8; stroke-width: 0.8; stroke-linecap: square"/>
     </g>
     <g id="line2d_43">
      <g>
       <use xlink:href="#m37c1f4ccf6" x="436.090156" y="354.855312" style="stroke: #000000; stroke-width: 0.8"/>
      </g>
     </g>
     <g id="text_20">
      <!-- −4 -->
      <g transform="translate(412.87375 359.034453) scale(0.11 -0.11)">
       <use xlink:href="#DejaVuSans-2212"/>
       <use xlink:href="#DejaVuSans-34" transform="translate(83.789062 0)"/>
      </g>
     </g>
    </g>
    <g id="ytick_7">
     <g id="line2d_44">
      <path d="M 436.090156 276.315312 
L 750.250156 276.315312 
" clip-path="url(#pc518af0ae3)" style="fill: none; stroke: #dfe3e8; stroke-width: 0.8; stroke-linecap: square"/>
     </g>
     <g id="line2d_45">
      <g>
       <use xlink:href="#m37c1f4ccf6" x="436.090156" y="276.315312" style="stroke: #000000; stroke-width: 0.8"/>
      </g>
     </g>
     <g id="text_21">
      <!-- −2 -->
      <g transform="translate(412.87375 280.494453) scale(0.11 -0.11)">
       <use xlink:href="#DejaVuSans-2212"/>
       <use xlink:href="#DejaVuSans-32" transform="translate(83.789062 0)"/>
      </g>
     </g>
    </g>
    <g id="ytick_8">
     <g id="line2d_46">
      <path d="M 436.090156 197.775312 
L 750.250156 197.775312 
" clip-path="url(#pc518af0ae3)" style="fill: none; stroke: #dfe3e8; stroke-width: 0.8; stroke-linecap: square"/>
     </g>
     <g id="line2d_47">
      <g>
       <use xlink:href="#m37c1f4ccf6" x="436.090156" y="197.775312" style="stroke: #000000; stroke-width: 0.8"/>
      </g>
     </g>
     <g id="text_22">
      <!-- 0 -->
      <g transform="translate(422.091406 201.954453) scale(0.11 -0.11)">
       <use xlink:href="#DejaVuSans-30"/>
      </g>
     </g>
    </g>
    <g id="ytick_9">
     <g id="line2d_48">
      <path d="M 436.090156 119.235312 
L 750.250156 119.235312 
" clip-path="url(#pc518af0ae3)" style="fill: none; stroke: #dfe3e8; stroke-width: 0.8; stroke-linecap: square"/>
     </g>
     <g id="line2d_49">
      <g>
       <use xlink:href="#m37c1f4ccf6" x="436.090156" y="119.235312" style="stroke: #000000; stroke-width: 0.8"/>
      </g>
     </g>
     <g id="text_23">
      <!-- 2 -->
      <g transform="translate(422.091406 123.414453) scale(0.11 -0.11)">
       <use xlink:href="#DejaVuSans-32"/>
      </g>
     </g>
    </g>
    <g id="ytick_10">
     <g id="line2d_50">
      <path d="M 436.090156 40.695312 
L 750.250156 40.695312 
" clip-path="url(#pc518af0ae3)" style="fill: none; stroke: #dfe3e8; stroke-width: 0.8; stroke-linecap: square"/>
     </g>
     <g id="line2d_51">
      <g>
       <use xlink:href="#m37c1f4ccf6" x="436.090156" y="40.695312" style="stroke: #000000; stroke-width: 0.8"/>
      </g>
     </g>
     <g id="text_24">
      <!-- 4 -->
      <g transform="translate(422.091406 44.874453) scale(0.11 -0.11)">
       <use xlink:href="#DejaVuSans-34"/>
      </g>
     </g>
    </g>
    <g id="text_25">
     <!-- $y$ -->
     <g transform="translate(406.35375 201.375312) rotate(-90) scale(0.12 -0.12)">
      <use xlink:href="#DejaVuSans-Oblique-79" transform="translate(0 0.3125)"/>
     </g>
    </g>
   </g>
   <g id="line2d_52">
    <path d="M 436.090156 197.775312 
L 750.250156 197.775312 
" clip-path="url(#pc518af0ae3)" style="fill: none; stroke: #7a8592; stroke-opacity: 0.6; stroke-linecap: square"/>
   </g>
   <g id="line2d_53">
    <path d="M 593.170156 354.855312 
L 593.170156 40.695312 
" clip-path="url(#pc518af0ae3)" style="fill: none; stroke: #7a8592; stroke-opacity: 0.6; stroke-linecap: square"/>
   </g>
   <g id="patch_16">
    <path d="M 436.090156 354.855312 
L 436.090156 40.695312 
" style="fill: none; stroke: #7a8592; stroke-width: 0.8; stroke-linejoin: miter; stroke-linecap: square"/>
   </g>
   <g id="patch_17">
    <path d="M 436.090156 354.855312 
L 750.250156 354.855312 
" style="fill: none; stroke: #7a8592; stroke-width: 0.8; stroke-linejoin: miter; stroke-linecap: square"/>
   </g>
   <g id="text_26">
    <!-- (b)  $\lambda = -1,\ -5$  (both NEGATIVE) -->
    <g style="fill: #2874a6" transform="translate(486.170156 16.698047) scale(0.125 -0.125)">
     <defs>
      <path id="DejaVuSans-4e" d="M 628 4666 
L 1478 4666 
L 3547 763 
L 3547 4666 
L 4159 4666 
L 4159 0 
L 3309 0 
L 1241 3903 
L 1241 0 
L 628 0 
L 628 4666 
z
" transform="scale(0.015625)"/>
      <path id="DejaVuSans-47" d="M 3809 666 
L 3809 1919 
L 2778 1919 
L 2778 2438 
L 4434 2438 
L 4434 434 
Q 4069 175 3628 42 
Q 3188 -91 2688 -91 
Q 1594 -91 976 548 
Q 359 1188 359 2328 
Q 359 3472 976 4111 
Q 1594 4750 2688 4750 
Q 3144 4750 3555 4637 
Q 3966 4525 4313 4306 
L 4313 3634 
Q 3963 3931 3569 4081 
Q 3175 4231 2741 4231 
Q 1884 4231 1454 3753 
Q 1025 3275 1025 2328 
Q 1025 1384 1454 906 
Q 1884 428 2741 428 
Q 3075 428 3337 486 
Q 3600 544 3809 666 
z
" transform="scale(0.015625)"/>
     </defs>
     <use xlink:href="#DejaVuSans-28" transform="translate(0 0.015625)"/>
     <use xlink:href="#DejaVuSans-62" transform="translate(39.013672 0.015625)"/>
     <use xlink:href="#DejaVuSans-29" transform="translate(102.490234 0.015625)"/>
     <use xlink:href="#DejaVuSans-20" transform="translate(141.503906 0.015625)"/>
     <use xlink:href="#DejaVuSans-20" transform="translate(173.291016 0.015625)"/>
     <use xlink:href="#DejaVuSans-Oblique-3bb" transform="translate(205.078125 0.015625)"/>
     <use xlink:href="#DejaVuSans-3d" transform="translate(283.740234 0.015625)"/>
     <use xlink:href="#DejaVuSans-2212" transform="translate(387.011719 0.015625)"/>
     <use xlink:href="#DejaVuSans-31" transform="translate(470.800781 0.015625)"/>
     <use xlink:href="#DejaVuSans-2c" transform="translate(534.423828 0.015625)"/>
     <use xlink:href="#DejaVuSans-2212" transform="translate(637.64616 0.015625)"/>
     <use xlink:href="#DejaVuSans-35" transform="translate(740.917644 0.015625)"/>
     <use xlink:href="#DejaVuSans-20" transform="translate(804.540691 0.015625)"/>
     <use xlink:href="#DejaVuSans-20" transform="translate(836.3278 0.015625)"/>
     <use xlink:href="#DejaVuSans-28" transform="translate(868.11491 0.015625)"/>
     <use xlink:href="#DejaVuSans-62" transform="translate(907.128582 0.015625)"/>
     <use xlink:href="#DejaVuSans-6f" transform="translate(970.605144 0.015625)"/>
     <use xlink:href="#DejaVuSans-74" transform="translate(1031.786785 0.015625)"/>
     <use xlink:href="#DejaVuSans-68" transform="translate(1070.995769 0.015625)"/>
     <use xlink:href="#DejaVuSans-20" transform="translate(1134.374675 0.015625)"/>
     <use xlink:href="#DejaVuSans-4e" transform="translate(1166.161785 0.015625)"/>
     <use xlink:href="#DejaVuSans-45" transform="translate(1240.966472 0.015625)"/>
     <use xlink:href="#DejaVuSans-47" transform="translate(1304.150066 0.015625)"/>
     <use xlink:href="#DejaVuSans-41" transform="translate(1381.6403 0.015625)"/>
     <use xlink:href="#DejaVuSans-54" transform="translate(1450.048503 0.015625)"/>
     <use xlink:href="#DejaVuSans-49" transform="translate(1511.132488 0.015625)"/>
     <use xlink:href="#DejaVuSans-56" transform="translate(1540.624675 0.015625)"/>
     <use xlink:href="#DejaVuSans-45" transform="translate(1609.032878 0.015625)"/>
     <use xlink:href="#DejaVuSans-29" transform="translate(1672.216472 0.015625)"/>
    </g>
    <!-- all paths move TOWARDS the origin -->
    <g style="fill: #2874a6" transform="translate(480.990469 30.695312) scale(0.125 -0.125)">
     <defs>
      <path id="DejaVuSans-52" d="M 2841 2188 
Q 3044 2119 3236 1894 
Q 3428 1669 3622 1275 
L 4263 0 
L 3584 0 
L 2988 1197 
Q 2756 1666 2539 1819 
Q 2322 1972 1947 1972 
L 1259 1972 
L 1259 0 
L 628 0 
L 628 4666 
L 2053 4666 
Q 2853 4666 3247 4331 
Q 3641 3997 3641 3322 
Q 3641 2881 3436 2590 
Q 3231 2300 2841 2188 
z
M 1259 4147 
L 1259 2491 
L 2053 2491 
Q 2509 2491 2742 2702 
Q 2975 2913 2975 3322 
Q 2975 3731 2742 3939 
Q 2509 4147 2053 4147 
L 1259 4147 
z
" transform="scale(0.015625)"/>
      <path id="DejaVuSans-44" d="M 1259 4147 
L 1259 519 
L 2022 519 
Q 2988 519 3436 956 
Q 3884 1394 3884 2338 
Q 3884 3275 3436 3711 
Q 2988 4147 2022 4147 
L 1259 4147 
z
M 628 4666 
L 1925 4666 
Q 3281 4666 3915 4102 
Q 4550 3538 4550 2338 
Q 4550 1131 3912 565 
Q 3275 0 1925 0 
L 628 0 
L 628 4666 
z
" transform="scale(0.015625)"/>
     </defs>
     <use xlink:href="#DejaVuSans-61"/>
     <use xlink:href="#DejaVuSans-6c" transform="translate(61.279297 0)"/>
     <use xlink:href="#DejaVuSans-6c" transform="translate(89.0625 0)"/>
     <use xlink:href="#DejaVuSans-20" transform="translate(116.845703 0)"/>
     <use xlink:href="#DejaVuSans-70" transform="translate(148.632812 0)"/>
     <use xlink:href="#DejaVuSans-61" transform="translate(212.109375 0)"/>
     <use xlink:href="#DejaVuSans-74" transform="translate(273.388672 0)"/>
     <use xlink:href="#DejaVuSans-68" transform="translate(312.597656 0)"/>
     <use xlink:href="#DejaVuSans-73" transform="translate(375.976562 0)"/>
     <use xlink:href="#DejaVuSans-20" transform="translate(428.076172 0)"/>
     <use xlink:href="#DejaVuSans-6d" transform="translate(459.863281 0)"/>
     <use xlink:href="#DejaVuSans-6f" transform="translate(557.275391 0)"/>
     <use xlink:href="#DejaVuSans-76" transform="translate(618.457031 0)"/>
     <use xlink:href="#DejaVuSans-65" transform="translate(677.636719 0)"/>
     <use xlink:href="#DejaVuSans-20" transform="translate(739.160156 0)"/>
     <use xlink:href="#DejaVuSans-54" transform="translate(770.947266 0)"/>
     <use xlink:href="#DejaVuSans-4f" transform="translate(832.03125 0)"/>
     <use xlink:href="#DejaVuSans-57" transform="translate(910.742188 0)"/>
     <use xlink:href="#DejaVuSans-41" transform="translate(1004.119141 0)"/>
     <use xlink:href="#DejaVuSans-52" transform="translate(1072.527344 0)"/>
     <use xlink:href="#DejaVuSans-44" transform="translate(1142.009766 0)"/>
     <use xlink:href="#DejaVuSans-53" transform="translate(1219.011719 0)"/>
     <use xlink:href="#DejaVuSans-20" transform="translate(1282.488281 0)"/>
     <use xlink:href="#DejaVuSans-74" transform="translate(1314.275391 0)"/>
     <use xlink:href="#DejaVuSans-68" transform="translate(1353.484375 0)"/>
     <use xlink:href="#DejaVuSans-65" transform="translate(1416.863281 0)"/>
     <use xlink:href="#DejaVuSans-20" transform="translate(1478.386719 0)"/>
     <use xlink:href="#DejaVuSans-6f" transform="translate(1510.173828 0)"/>
     <use xlink:href="#DejaVuSans-72" transform="translate(1571.355469 0)"/>
     <use xlink:href="#DejaVuSans-69" transform="translate(1612.46875 0)"/>
     <use xlink:href="#DejaVuSans-67" transform="translate(1640.251953 0)"/>
     <use xlink:href="#DejaVuSans-69" transform="translate(1703.728516 0)"/>
     <use xlink:href="#DejaVuSans-6e" transform="translate(1731.511719 0)"/>
    </g>
   </g>
   <g id="line2d_54">
    <path d="M 443.222506 347.722962 
L 743.117806 47.827663 
" clip-path="url(#pc518af0ae3)" style="fill: none; stroke: #c0392b; stroke-width: 2; stroke-linecap: square"/>
   </g>
   <g id="line2d_55">
    <path d="M 443.222506 47.827663 
L 743.117806 347.722962 
" clip-path="url(#pc518af0ae3)" style="fill: none; stroke: #1e8449; stroke-width: 2; stroke-linecap: square"/>
   </g>
   <g id="line2d_56">
    <path d="M 738.469156 158.505312 
L 731.184929 155.101798 
L 724.102602 152.039562 
L 717.6047 149.472309 
L 711.632803 147.343608 
L 705.842092 145.51688 
L 700.524362 144.070096 
L 695.384115 142.906421 
L 690.663325 142.06402 
L 686.109062 141.479049 
L 681.922285 141.158726 
L 677.886542 141.066156 
L 674.007471 141.195177 
L 670.287406 141.536411 
L 666.589496 142.102904 
L 663.069552 142.867105 
L 659.605356 143.846164 
L 656.216519 145.032234 
L 652.821317 146.454978 
L 649.366779 148.148354 
L 645.902188 150.096182 
L 642.323633 152.365118 
L 638.574371 155.008944 
L 634.52531 158.144703 
L 630.088252 161.871024 
L 624.953089 166.48647 
L 618.560533 172.549404 
L 609.07513 181.886421 
L 593.791964 197.153504 
L 593.791964 197.153504 
" clip-path="url(#pc518af0ae3)" style="fill: none; stroke: #2874a6; stroke-width: 2; stroke-linecap: square"/>
   </g>
   <g id="line2d_57">
    <path d="M 447.871156 237.045312 
L 455.155384 240.448827 
L 462.237711 243.511063 
L 468.735612 246.078316 
L 474.707509 248.207017 
L 480.49822 250.033745 
L 485.81595 251.480529 
L 490.956197 252.644204 
L 495.676988 253.486605 
L 500.231251 254.071576 
L 504.418028 254.391899 
L 508.453771 254.484469 
L 512.332841 254.355448 
L 516.052907 254.014214 
L 519.750816 253.447721 
L 523.27076 252.68352 
L 526.734956 251.704461 
L 530.123794 250.518391 
L 533.518995 249.095647 
L 536.973534 247.402271 
L 540.438124 245.454443 
L 544.01668 243.185507 
L 547.765942 240.541681 
L 551.815003 237.405922 
L 556.252061 233.679601 
L 561.387223 229.064155 
L 567.779779 223.001221 
L 577.265182 213.664204 
L 592.548348 198.397121 
L 592.548348 198.397121 
" clip-path="url(#pc518af0ae3)" style="fill: none; stroke: #2874a6; stroke-width: 2; stroke-linecap: square"/>
   </g>
   <g id="line2d_58">
    <path d="M 632.440156 52.476312 
L 635.843671 59.76054 
L 638.905907 66.842867 
L 641.47316 73.340768 
L 643.60186 79.312666 
L 645.428589 85.103377 
L 646.875372 90.421107 
L 648.039048 95.561353 
L 648.881449 100.282144 
L 649.46642 104.836407 
L 649.786743 109.023184 
L 649.879313 113.058927 
L 649.750292 116.937997 
L 649.409058 120.658063 
L 648.842564 124.355973 
L 648.078363 127.875916 
L 647.099305 131.340113 
L 645.913235 134.72895 
L 644.490491 138.124151 
L 642.797115 141.57869 
L 640.849287 145.043281 
L 638.580351 148.621836 
L 635.936525 152.371098 
L 632.800766 156.420159 
L 629.074445 160.857217 
L 624.458999 165.99238 
L 618.396065 172.384935 
L 609.059048 181.870338 
L 593.791964 197.153504 
L 593.791964 197.153504 
" clip-path="url(#pc518af0ae3)" style="fill: none; stroke: #2874a6; stroke-width: 2; stroke-linecap: square"/>
   </g>
   <g id="line2d_59">
    <path d="M 553.900156 343.074312 
L 550.496641 335.790085 
L 547.434405 328.707758 
L 544.867153 322.209857 
L 542.738452 316.237959 
L 540.911723 310.447248 
L 539.46494 305.129518 
L 538.301265 299.989272 
L 537.458863 295.268481 
L 536.873893 290.714218 
L 536.55357 286.527441 
L 536.460999 282.491698 
L 536.590021 278.612628 
L 536.931255 274.892562 
L 537.497748 271.194652 
L 538.261949 267.674709 
L 539.241008 264.210512 
L 540.427078 260.821675 
L 541.849821 257.426474 
L 543.543198 253.971935 
L 545.491026 250.507344 
L 547.759961 246.928789 
L 550.403788 243.179527 
L 553.539547 239.130466 
L 557.265868 234.693408 
L 561.881313 229.558245 
L 567.944248 223.16569 
L 577.281264 213.680287 
L 592.548348 198.397121 
L 592.548348 198.397121 
" clip-path="url(#pc518af0ae3)" style="fill: none; stroke: #2874a6; stroke-width: 2; stroke-linecap: square"/>
   </g>
   <g id="line2d_60">
    <path d="M 734.542156 284.169312 
L 713.438418 265.155223 
L 695.394106 249.184693 
L 680.051028 235.895072 
L 667.071523 224.944495 
L 656.424814 216.24229 
L 647.437978 209.17267 
L 639.879539 203.50064 
L 633.540558 199.014006 
L 628.234762 195.523511 
L 623.798015 192.862308 
L 620.087288 190.884929 
L 616.910909 189.437659 
L 614.256571 188.462016 
L 611.936396 187.840519 
L 609.918947 187.528255 
L 608.137027 187.476853 
L 606.543819 187.650557 
L 605.044124 188.038699 
L 603.595373 188.646466 
L 602.119452 189.511295 
L 600.478666 190.741954 
L 598.398421 192.602254 
L 594.359974 196.585529 
L 593.355376 197.590093 
L 593.355376 197.590093 
" clip-path="url(#pc518af0ae3)" style="fill: none; stroke: #2874a6; stroke-width: 2; stroke-linecap: square"/>
   </g>
   <g id="line2d_61">
    <path d="M 451.798156 111.381312 
L 472.901895 130.395402 
L 490.946207 146.365932 
L 506.289285 159.655553 
L 519.268789 170.60613 
L 529.915498 179.308335 
L 538.902335 186.377955 
L 546.460773 192.049985 
L 552.799754 196.536619 
L 558.105551 200.027114 
L 562.542298 202.688317 
L 566.253025 204.665696 
L 569.429403 206.112966 
L 572.083742 207.088609 
L 574.403917 207.710106 
L 576.421365 208.02237 
L 578.203286 208.073772 
L 579.796493 207.900068 
L 581.296188 207.511926 
L 582.744939 206.904159 
L 584.220861 206.03933 
L 585.861646 204.808671 
L 587.941891 202.948371 
L 591.980338 198.965096 
L 592.984937 197.960532 
L 592.984937 197.960532 
" clip-path="url(#pc518af0ae3)" style="fill: none; stroke: #2874a6; stroke-width: 2; stroke-linecap: square"/>
   </g>
   <g id="patch_18">
    <path d="M 666.728968 124.216501 
Q 652.870763 138.074706 640.909924 150.035545 
" style="fill: none; stroke: #c0392b; stroke-width: 2.4; stroke-linecap: round"/>
    <path d="M 645.576828 148.47991 
L 640.909924 150.035545 
L 642.465559 145.36864 
z
" style="fill: #c0392b; stroke: #c0392b; stroke-width: 2.4; stroke-linecap: round"/>
   </g>
   <g id="patch_19">
    <path d="M 519.611344 271.334124 
Q 533.46955 257.475919 545.430389 245.51508 
" style="fill: none; stroke: #c0392b; stroke-width: 2.4; stroke-linecap: round"/>
    <path d="M 540.763484 247.070715 
L 545.430389 245.51508 
L 543.874754 250.181985 
z
" style="fill: #c0392b; stroke: #c0392b; stroke-width: 2.4; stroke-linecap: round"/>
   </g>
   <g id="patch_20">
    <path d="M 666.728968 271.334124 
Q 652.870763 257.475919 640.909924 245.51508 
" style="fill: none; stroke: #1e8449; stroke-width: 2.4; stroke-linecap: round"/>
    <path d="M 642.465559 250.181985 
L 640.909924 245.51508 
L 645.576828 247.070715 
z
" style="fill: #1e8449; stroke: #1e8449; stroke-width: 2.4; stroke-linecap: round"/>
   </g>
   <g id="patch_21">
    <path d="M 519.611344 124.216501 
Q 533.46955 138.074706 545.430389 150.035545 
" style="fill: none; stroke: #1e8449; stroke-width: 2.4; stroke-linecap: round"/>
    <path d="M 543.874754 145.36864 
L 545.430389 150.035545 
L 540.763484 148.47991 
z
" style="fill: #1e8449; stroke: #1e8449; stroke-width: 2.4; stroke-linecap: round"/>
   </g>
   <g id="patch_22">
    <path d="M 602.897561 188.049287 
Q 602.879351 188.067484 604.68009 186.268012 
" style="fill: none; stroke: #2874a6; stroke-width: 2.3; stroke-linecap: round"/>
    <path d="M 609.347542 184.714019 
L 604.68009 186.268012 
L 606.237367 181.601654 
z
" style="fill: #2874a6; stroke: #2874a6; stroke-width: 2.3; stroke-linecap: round"/>
   </g>
   <g id="patch_23">
    <path d="M 583.442752 207.501338 
Q 583.460962 207.483141 581.660222 209.282613 
" style="fill: none; stroke: #2874a6; stroke-width: 2.3; stroke-linecap: round"/>
    <path d="M 576.992771 210.836606 
L 581.660222 209.282613 
L 580.102946 213.948971 
z
" style="fill: #2874a6; stroke: #2874a6; stroke-width: 2.3; stroke-linecap: round"/>
   </g>
   <g id="patch_24">
    <path d="M 602.896181 188.047908 
Q 602.877984 188.066118 604.677457 186.265379 
" style="fill: none; stroke: #2874a6; stroke-width: 2.3; stroke-linecap: round"/>
    <path d="M 609.343814 184.708102 
L 604.677457 186.265379 
L 606.23145 181.597927 
z
" style="fill: #2874a6; stroke: #2874a6; stroke-width: 2.3; stroke-linecap: round"/>
   </g>
   <g id="patch_25">
    <path d="M 583.444131 207.502717 
Q 583.462328 207.484507 581.662855 209.285246 
" style="fill: none; stroke: #2874a6; stroke-width: 2.3; stroke-linecap: round"/>
    <path d="M 576.996498 210.842523 
L 581.662855 209.285246 
L 580.108862 213.952698 
z
" style="fill: #2874a6; stroke: #2874a6; stroke-width: 2.3; stroke-linecap: round"/>
   </g>
   <g id="patch_26">
    <path d="M 596.068957 194.879475 
Q 596.063521 194.884883 597.881002 193.076601 
" style="fill: none; stroke: #2874a6; stroke-width: 2.3; stroke-linecap: round"/>
    <path d="M 602.551839 191.532813 
L 597.881002 193.076601 
L 599.448473 188.413659 
z
" style="fill: #2874a6; stroke: #2874a6; stroke-width: 2.3; stroke-linecap: round"/>
   </g>
   <g id="patch_27">
    <path d="M 590.271356 200.67115 
Q 590.276792 200.665742 588.45931 202.474024 
" style="fill: none; stroke: #2874a6; stroke-width: 2.3; stroke-linecap: round"/>
    <path d="M 583.788474 204.017812 
L 588.45931 202.474024 
L 586.891839 207.136966 
z
" style="fill: #2874a6; stroke: #2874a6; stroke-width: 2.3; stroke-linecap: round"/>
   </g>
   <g id="line2d_62">
    <g clip-path="url(#pc518af0ae3)">
     <use xlink:href="#m10679084a1" x="593.170156" y="197.775312" style="fill: #1f2328; stroke: #1f2328"/>
    </g>
   </g>
  </g>
  <g id="text_27">
   <!-- The two eigenvector directions are the SKELETON of the picture. -->
   <g style="fill: #1f2328" transform="translate(177.811289 428.021359) scale(0.125 -0.125)">
    <defs>
     <path id="DejaVuSans-77" d="M 269 3500 
L 844 3500 
L 1563 769 
L 2278 3500 
L 2956 3500 
L 3675 769 
L 4391 3500 
L 4966 3500 
L 4050 0 
L 3372 0 
L 2619 2869 
L 1863 0 
L 1184 0 
L 269 3500 
z
" transform="scale(0.015625)"/>
     <path id="DejaVuSans-63" d="M 3122 3366 
L 3122 2828 
Q 2878 2963 2633 3030 
Q 2388 3097 2138 3097 
Q 1578 3097 1268 2742 
Q 959 2388 959 1747 
Q 959 1106 1268 751 
Q 1578 397 2138 397 
Q 2388 397 2633 464 
Q 2878 531 3122 666 
L 3122 134 
Q 2881 22 2623 -34 
Q 2366 -91 2075 -91 
Q 1284 -91 818 406 
Q 353 903 353 1747 
Q 353 2603 823 3093 
Q 1294 3584 2113 3584 
Q 2378 3584 2631 3529 
Q 2884 3475 3122 3366 
z
" transform="scale(0.015625)"/>
     <path id="DejaVuSans-64" d="M 2906 2969 
L 2906 4863 
L 3481 4863 
L 3481 0 
L 2906 0 
L 2906 525 
Q 2725 213 2448 61 
Q 2172 -91 1784 -91 
Q 1150 -91 751 415 
Q 353 922 353 1747 
Q 353 2572 751 3078 
Q 1150 3584 1784 3584 
Q 2172 3584 2448 3432 
Q 2725 3281 2906 2969 
z
M 947 1747 
Q 947 1113 1208 752 
Q 1469 391 1925 391 
Q 2381 391 2643 752 
Q 2906 1113 2906 1747 
Q 2906 2381 2643 2742 
Q 2381 3103 1925 3103 
Q 1469 3103 1208 2742 
Q 947 2381 947 1747 
z
" transform="scale(0.015625)"/>
     <path id="DejaVuSans-4b" d="M 628 4666 
L 1259 4666 
L 1259 2694 
L 3353 4666 
L 4166 4666 
L 1850 2491 
L 4331 0 
L 3500 0 
L 1259 2247 
L 1259 0 
L 628 0 
L 628 4666 
z
" transform="scale(0.015625)"/>
     <path id="DejaVuSans-4c" d="M 628 4666 
L 1259 4666 
L 1259 531 
L 3531 531 
L 3531 0 
L 628 0 
L 628 4666 
z
" transform="scale(0.015625)"/>
     <path id="DejaVuSans-75" d="M 544 1381 
L 544 3500 
L 1119 3500 
L 1119 1403 
Q 1119 906 1312 657 
Q 1506 409 1894 409 
Q 2359 409 2629 706 
Q 2900 1003 2900 1516 
L 2900 3500 
L 3475 3500 
L 3475 0 
L 2900 0 
L 2900 538 
Q 2691 219 2414 64 
Q 2138 -91 1772 -91 
Q 1169 -91 856 284 
Q 544 659 544 1381 
z
M 1991 3584 
L 1991 3584 
z
" transform="scale(0.015625)"/>
     <path id="DejaVuSans-2e" d="M 684 794 
L 1344 794 
L 1344 0 
L 684 0 
L 684 794 
z
" transform="scale(0.015625)"/>
    </defs>
    <use xlink:href="#DejaVuSans-54"/>
    <use xlink:href="#DejaVuSans-68" transform="translate(61.083984 0)"/>
    <use xlink:href="#DejaVuSans-65" transform="translate(124.462891 0)"/>
    <use xlink:href="#DejaVuSans-20" transform="translate(185.986328 0)"/>
    <use xlink:href="#DejaVuSans-74" transform="translate(217.773438 0)"/>
    <use xlink:href="#DejaVuSans-77" transform="translate(256.982422 0)"/>
    <use xlink:href="#DejaVuSans-6f" transform="translate(338.769531 0)"/>
    <use xlink:href="#DejaVuSans-20" transform="translate(399.951172 0)"/>
    <use xlink:href="#DejaVuSans-65" transform="translate(431.738281 0)"/>
    <use xlink:href="#DejaVuSans-69" transform="translate(493.261719 0)"/>
    <use xlink:href="#DejaVuSans-67" transform="translate(521.044922 0)"/>
    <use xlink:href="#DejaVuSans-65" transform="translate(584.521484 0)"/>
    <use xlink:href="#DejaVuSans-6e" transform="translate(646.044922 0)"/>
    <use xlink:href="#DejaVuSans-76" transform="translate(709.423828 0)"/>
    <use xlink:href="#DejaVuSans-65" transform="translate(768.603516 0)"/>
    <use xlink:href="#DejaVuSans-63" transform="translate(830.126953 0)"/>
    <use xlink:href="#DejaVuSans-74" transform="translate(885.107422 0)"/>
    <use xlink:href="#DejaVuSans-6f" transform="translate(924.316406 0)"/>
    <use xlink:href="#DejaVuSans-72" transform="translate(985.498047 0)"/>
    <use xlink:href="#DejaVuSans-20" transform="translate(1026.611328 0)"/>
    <use xlink:href="#DejaVuSans-64" transform="translate(1058.398438 0)"/>
    <use xlink:href="#DejaVuSans-69" transform="translate(1121.875 0)"/>
    <use xlink:href="#DejaVuSans-72" transform="translate(1149.658203 0)"/>
    <use xlink:href="#DejaVuSans-65" transform="translate(1188.521484 0)"/>
    <use xlink:href="#DejaVuSans-63" transform="translate(1250.044922 0)"/>
    <use xlink:href="#DejaVuSans-74" transform="translate(1305.025391 0)"/>
    <use xlink:href="#DejaVuSans-69" transform="translate(1344.234375 0)"/>
    <use xlink:href="#DejaVuSans-6f" transform="translate(1372.017578 0)"/>
    <use xlink:href="#DejaVuSans-6e" transform="translate(1433.199219 0)"/>
    <use xlink:href="#DejaVuSans-73" transform="translate(1496.578125 0)"/>
    <use xlink:href="#DejaVuSans-20" transform="translate(1548.677734 0)"/>
    <use xlink:href="#DejaVuSans-61" transform="translate(1580.464844 0)"/>
    <use xlink:href="#DejaVuSans-72" transform="translate(1641.744141 0)"/>
    <use xlink:href="#DejaVuSans-65" transform="translate(1680.607422 0)"/>
    <use xlink:href="#DejaVuSans-20" transform="translate(1742.130859 0)"/>
    <use xlink:href="#DejaVuSans-74" transform="translate(1773.917969 0)"/>
    <use xlink:href="#DejaVuSans-68" transform="translate(1813.126953 0)"/>
    <use xlink:href="#DejaVuSans-65" transform="translate(1876.505859 0)"/>
    <use xlink:href="#DejaVuSans-20" transform="translate(1938.029297 0)"/>
    <use xlink:href="#DejaVuSans-53" transform="translate(1969.816406 0)"/>
    <use xlink:href="#DejaVuSans-4b" transform="translate(2033.292969 0)"/>
    <use xlink:href="#DejaVuSans-45" transform="translate(2098.869141 0)"/>
    <use xlink:href="#DejaVuSans-4c" transform="translate(2162.052734 0)"/>
    <use xlink:href="#DejaVuSans-45" transform="translate(2217.765625 0)"/>
    <use xlink:href="#DejaVuSans-54" transform="translate(2280.949219 0)"/>
    <use xlink:href="#DejaVuSans-4f" transform="translate(2342.033203 0)"/>
    <use xlink:href="#DejaVuSans-4e" transform="translate(2420.744141 0)"/>
    <use xlink:href="#DejaVuSans-20" transform="translate(2495.548828 0)"/>
    <use xlink:href="#DejaVuSans-6f" transform="translate(2527.335938 0)"/>
    <use xlink:href="#DejaVuSans-66" transform="translate(2588.517578 0)"/>
    <use xlink:href="#DejaVuSans-20" transform="translate(2623.722656 0)"/>
    <use xlink:href="#DejaVuSans-74" transform="translate(2655.509766 0)"/>
    <use xlink:href="#DejaVuSans-68" transform="translate(2694.71875 0)"/>
    <use xlink:href="#DejaVuSans-65" transform="translate(2758.097656 0)"/>
    <use xlink:href="#DejaVuSans-20" transform="translate(2819.621094 0)"/>
    <use xlink:href="#DejaVuSans-70" transform="translate(2851.408203 0)"/>
    <use xlink:href="#DejaVuSans-69" transform="translate(2914.884766 0)"/>
    <use xlink:href="#DejaVuSans-63" transform="translate(2942.667969 0)"/>
    <use xlink:href="#DejaVuSans-74" transform="translate(2997.648438 0)"/>
    <use xlink:href="#DejaVuSans-75" transform="translate(3036.857422 0)"/>
    <use xlink:href="#DejaVuSans-72" transform="translate(3100.236328 0)"/>
    <use xlink:href="#DejaVuSans-65" transform="translate(3139.099609 0)"/>
    <use xlink:href="#DejaVuSans-2e" transform="translate(3200.623047 0)"/>
   </g>
   <!-- A positive $\lambda$ pushes outwards along its own direction, -->
   <g style="fill: #1f2328" transform="translate(213.025156 444.870969) scale(0.125 -0.125)">
    <use xlink:href="#DejaVuSans-41" transform="translate(0 0.015625)"/>
    <use xlink:href="#DejaVuSans-20" transform="translate(68.408203 0.015625)"/>
    <use xlink:href="#DejaVuSans-70" transform="translate(100.195312 0.015625)"/>
    <use xlink:href="#DejaVuSans-6f" transform="translate(163.671875 0.015625)"/>
    <use xlink:href="#DejaVuSans-73" transform="translate(224.853516 0.015625)"/>
    <use xlink:href="#DejaVuSans-69" transform="translate(276.953125 0.015625)"/>
    <use xlink:href="#DejaVuSans-74" transform="translate(304.736328 0.015625)"/>
    <use xlink:href="#DejaVuSans-69" transform="translate(343.945312 0.015625)"/>
    <use xlink:href="#DejaVuSans-76" transform="translate(371.728516 0.015625)"/>
    <use xlink:href="#DejaVuSans-65" transform="translate(430.908203 0.015625)"/>
    <use xlink:href="#DejaVuSans-20" transform="translate(492.431641 0.015625)"/>
    <use xlink:href="#DejaVuSans-Oblique-3bb" transform="translate(524.21875 0.015625)"/>
    <use xlink:href="#DejaVuSans-20" transform="translate(583.398438 0.015625)"/>
    <use xlink:href="#DejaVuSans-70" transform="translate(615.185547 0.015625)"/>
    <use xlink:href="#DejaVuSans-75" transform="translate(678.662109 0.015625)"/>
    <use xlink:href="#DejaVuSans-73" transform="translate(742.041016 0.015625)"/>
    <use xlink:href="#DejaVuSans-68" transform="translate(794.140625 0.015625)"/>
    <use xlink:href="#DejaVuSans-65" transform="translate(857.519531 0.015625)"/>
    <use xlink:href="#DejaVuSans-73" transform="translate(919.042969 0.015625)"/>
    <use xlink:href="#DejaVuSans-20" transform="translate(971.142578 0.015625)"/>
    <use xlink:href="#DejaVuSans-6f" transform="translate(1002.929688 0.015625)"/>
    <use xlink:href="#DejaVuSans-75" transform="translate(1064.111328 0.015625)"/>
    <use xlink:href="#DejaVuSans-74" transform="translate(1127.490234 0.015625)"/>
    <use xlink:href="#DejaVuSans-77" transform="translate(1166.699219 0.015625)"/>
    <use xlink:href="#DejaVuSans-61" transform="translate(1248.486328 0.015625)"/>
    <use xlink:href="#DejaVuSans-72" transform="translate(1309.765625 0.015625)"/>
    <use xlink:href="#DejaVuSans-64" transform="translate(1350.878906 0.015625)"/>
    <use xlink:href="#DejaVuSans-73" transform="translate(1414.355469 0.015625)"/>
    <use xlink:href="#DejaVuSans-20" transform="translate(1466.455078 0.015625)"/>
    <use xlink:href="#DejaVuSans-61" transform="translate(1498.242188 0.015625)"/>
    <use xlink:href="#DejaVuSans-6c" transform="translate(1559.521484 0.015625)"/>
    <use xlink:href="#DejaVuSans-6f" transform="translate(1587.304688 0.015625)"/>
    <use xlink:href="#DejaVuSans-6e" transform="translate(1648.486328 0.015625)"/>
    <use xlink:href="#DejaVuSans-67" transform="translate(1711.865234 0.015625)"/>
    <use xlink:href="#DejaVuSans-20" transform="translate(1775.341797 0.015625)"/>
    <use xlink:href="#DejaVuSans-69" transform="translate(1807.128906 0.015625)"/>
    <use xlink:href="#DejaVuSans-74" transform="translate(1834.912109 0.015625)"/>
    <use xlink:href="#DejaVuSans-73" transform="translate(1874.121094 0.015625)"/>
    <use xlink:href="#DejaVuSans-20" transform="translate(1926.220703 0.015625)"/>
    <use xlink:href="#DejaVuSans-6f" transform="translate(1958.007812 0.015625)"/>
    <use xlink:href="#DejaVuSans-77" transform="translate(2019.189453 0.015625)"/>
    <use xlink:href="#DejaVuSans-6e" transform="translate(2100.976562 0.015625)"/>
    <use xlink:href="#DejaVuSans-20" transform="translate(2164.355469 0.015625)"/>
    <use xlink:href="#DejaVuSans-64" transform="translate(2196.142578 0.015625)"/>
    <use xlink:href="#DejaVuSans-69" transform="translate(2259.619141 0.015625)"/>
    <use xlink:href="#DejaVuSans-72" transform="translate(2287.402344 0.015625)"/>
    <use xlink:href="#DejaVuSans-65" transform="translate(2328.515625 0.015625)"/>
    <use xlink:href="#DejaVuSans-63" transform="translate(2390.039062 0.015625)"/>
    <use xlink:href="#DejaVuSans-74" transform="translate(2445.019531 0.015625)"/>
    <use xlink:href="#DejaVuSans-69" transform="translate(2484.228516 0.015625)"/>
    <use xlink:href="#DejaVuSans-6f" transform="translate(2512.011719 0.015625)"/>
    <use xlink:href="#DejaVuSans-6e" transform="translate(2573.193359 0.015625)"/>
    <use xlink:href="#DejaVuSans-2c" transform="translate(2636.572266 0.015625)"/>
   </g>
   <!-- a negative $\lambda$ pulls inwards along its own direction. -->
   <g style="fill: #1f2328" transform="translate(222.775156 461.745969) scale(0.125 -0.125)">
    <use xlink:href="#DejaVuSans-61" transform="translate(0 0.015625)"/>
    <use xlink:href="#DejaVuSans-20" transform="translate(61.279297 0.015625)"/>
    <use xlink:href="#DejaVuSans-6e" transform="translate(93.066406 0.015625)"/>
    <use xlink:href="#DejaVuSans-65" transform="translate(156.445312 0.015625)"/>
    <use xlink:href="#DejaVuSans-67" transform="translate(217.96875 0.015625)"/>
    <use xlink:href="#DejaVuSans-61" transform="translate(281.445312 0.015625)"/>
    <use xlink:href="#DejaVuSans-74" transform="translate(342.724609 0.015625)"/>
    <use xlink:href="#DejaVuSans-69" transform="translate(381.933594 0.015625)"/>
    <use xlink:href="#DejaVuSans-76" transform="translate(409.716797 0.015625)"/>
    <use xlink:href="#DejaVuSans-65" transform="translate(468.896484 0.015625)"/>
    <use xlink:href="#DejaVuSans-20" transform="translate(530.419922 0.015625)"/>
    <use xlink:href="#DejaVuSans-Oblique-3bb" transform="translate(562.207031 0.015625)"/>
    <use xlink:href="#DejaVuSans-20" transform="translate(621.386719 0.015625)"/>
    <use xlink:href="#DejaVuSans-70" transform="translate(653.173828 0.015625)"/>
    <use xlink:href="#DejaVuSans-75" transform="translate(716.650391 0.015625)"/>
    <use xlink:href="#DejaVuSans-6c" transform="translate(780.029297 0.015625)"/>
    <use xlink:href="#DejaVuSans-6c" transform="translate(807.8125 0.015625)"/>
    <use xlink:href="#DejaVuSans-73" transform="translate(835.595703 0.015625)"/>
    <use xlink:href="#DejaVuSans-20" transform="translate(887.695312 0.015625)"/>
    <use xlink:href="#DejaVuSans-69" transform="translate(919.482422 0.015625)"/>
    <use xlink:href="#DejaVuSans-6e" transform="translate(947.265625 0.015625)"/>
    <use xlink:href="#DejaVuSans-77" transform="translate(1010.644531 0.015625)"/>
    <use xlink:href="#DejaVuSans-61" transform="translate(1092.431641 0.015625)"/>
    <use xlink:href="#DejaVuSans-72" transform="translate(1153.710938 0.015625)"/>
    <use xlink:href="#DejaVuSans-64" transform="translate(1194.824219 0.015625)"/>
    <use xlink:href="#DejaVuSans-73" transform="translate(1258.300781 0.015625)"/>
    <use xlink:href="#DejaVuSans-20" transform="translate(1310.400391 0.015625)"/>
    <use xlink:href="#DejaVuSans-61" transform="translate(1342.1875 0.015625)"/>
    <use xlink:href="#DejaVuSans-6c" transform="translate(1403.466797 0.015625)"/>
    <use xlink:href="#DejaVuSans-6f" transform="translate(1431.25 0.015625)"/>
    <use xlink:href="#DejaVuSans-6e" transform="translate(1492.431641 0.015625)"/>
    <use xlink:href="#DejaVuSans-67" transform="translate(1555.810547 0.015625)"/>
    <use xlink:href="#DejaVuSans-20" transform="translate(1619.287109 0.015625)"/>
    <use xlink:href="#DejaVuSans-69" transform="translate(1651.074219 0.015625)"/>
    <use xlink:href="#DejaVuSans-74" transform="translate(1678.857422 0.015625)"/>
    <use xlink:href="#DejaVuSans-73" transform="translate(1718.066406 0.015625)"/>
    <use xlink:href="#DejaVuSans-20" transform="translate(1770.166016 0.015625)"/>
    <use xlink:href="#DejaVuSans-6f" transform="translate(1801.953125 0.015625)"/>
    <use xlink:href="#DejaVuSans-77" transform="translate(1863.134766 0.015625)"/>
    <use xlink:href="#DejaVuSans-6e" transform="translate(1944.921875 0.015625)"/>
    <use xlink:href="#DejaVuSans-20" transform="translate(2008.300781 0.015625)"/>
    <use xlink:href="#DejaVuSans-64" transform="translate(2040.087891 0.015625)"/>
    <use xlink:href="#DejaVuSans-69" transform="translate(2103.564453 0.015625)"/>
    <use xlink:href="#DejaVuSans-72" transform="translate(2131.347656 0.015625)"/>
    <use xlink:href="#DejaVuSans-65" transform="translate(2172.460938 0.015625)"/>
    <use xlink:href="#DejaVuSans-63" transform="translate(2233.984375 0.015625)"/>
    <use xlink:href="#DejaVuSans-74" transform="translate(2288.964844 0.015625)"/>
    <use xlink:href="#DejaVuSans-69" transform="translate(2328.173828 0.015625)"/>
    <use xlink:href="#DejaVuSans-6f" transform="translate(2355.957031 0.015625)"/>
    <use xlink:href="#DejaVuSans-6e" transform="translate(2417.138672 0.015625)"/>
    <use xlink:href="#DejaVuSans-2e" transform="translate(2480.517578 0.015625)"/>
   </g>
  </g>
 </g>
 <defs>
  <clipPath id="p7421f90629">
   <rect x="46.030156" y="40.695312" width="314.16" height="314.16"/>
  </clipPath>
  <clipPath id="pc518af0ae3">
   <rect x="436.090156" y="40.695312" width="314.16" height="314.16"/>
  </clipPath>
 </defs>
</svg>
