<?xml version="1.0" encoding="utf-8" standalone="no"?>
<!DOCTYPE svg PUBLIC "-//W3C//DTD SVG 1.1//EN"
  "http://www.w3.org/Graphics/SVG/1.1/DTD/svg11.dtd">
<svg xmlns:xlink="http://www.w3.org/1999/xlink" width="336.384pt" height="293.04pt" viewBox="0 0 336.384 293.04" xmlns="http://www.w3.org/2000/svg" version="1.1">
 <metadata>
  <rdf:RDF xmlns:dc="http://purl.org/dc/elements/1.1/" xmlns:cc="http://creativecommons.org/ns#" xmlns:rdf="http://www.w3.org/1999/02/22-rdf-syntax-ns#">
   <cc:Work>
    <dc:type rdf:resource="http://purl.org/dc/dcmitype/StillImage"/>
    <dc:date>2026-09-01T08:53:48.282555</dc:date>
    <dc:format>image/svg+xml</dc:format>
    <dc:creator>
     <cc:Agent>
      <dc:title>Matplotlib v3.10.9, https://matplotlib.org/</dc:title>
     </cc:Agent>
    </dc:creator>
   </cc:Work>
  </rdf:RDF>
 </metadata>
 <defs>
  <style type="text/css">*{stroke-linejoin: round; stroke-linecap: butt}</style>
 </defs>
 <g id="figure_1">
  <g id="patch_1">
   <path d="M 0 293.04 
L 336.384 293.04 
L 336.384 0 
L 0 0 
L 0 293.04 
z
" style="fill: none"/>
  </g>
  <g id="axes_1">
   <g id="line2d_1">
    <path d="M 100.08 56.736 
L 248.688 56.736 
" clip-path="url(#p8f9b22fa29)" style="fill: none; stroke: #7a8592; stroke-width: 2; stroke-linecap: round"/>
   </g>
   <g id="line2d_2">
    <path d="M 95.774478 68.628065 
L 252.993522 199.643935 
" clip-path="url(#p8f9b22fa29)" style="fill: none; stroke: #7a8592; stroke-width: 2; stroke-linecap: round"/>
   </g>
   <g id="line2d_3">
    <path d="M 81.504 75.312 
L 81.504 192.96 
" clip-path="url(#p8f9b22fa29)" style="fill: none; stroke: #7a8592; stroke-width: 2; stroke-linecap: round"/>
   </g>
   <g id="line2d_4">
    <path d="M 267.264 75.312 
L 267.264 192.96 
" clip-path="url(#p8f9b22fa29)" style="fill: none; stroke: #7a8592; stroke-width: 2; stroke-linecap: round"/>
   </g>
   <g id="line2d_5">
    <path d="M 252.993522 68.628065 
L 95.774478 199.643935 
" clip-path="url(#p8f9b22fa29)" style="fill: none; stroke: #7a8592; stroke-width: 2; stroke-linecap: round"/>
   </g>
   <g id="line2d_6">
    <path d="M 248.688 211.536 
L 100.08 211.536 
" clip-path="url(#p8f9b22fa29)" style="fill: none; stroke: #7a8592; stroke-width: 2; stroke-linecap: round"/>
   </g>
   <g id="patch_2">
    <path d="M 81.504 75.312 
C 86.430413 75.312 91.155716 73.354715 94.639216 69.871216 
C 98.122715 66.387716 100.08 61.662413 100.08 56.736 
C 100.08 51.809587 98.122715 47.084284 94.639216 43.600784 
C 91.155716 40.117285 86.430413 38.16 81.504 38.16 
C 76.577587 38.16 71.852284 40.117285 68.368784 43.600784 
C 64.885285 47.084284 62.928 51.809587 62.928 56.736 
C 62.928 61.662413 64.885285 66.387716 68.368784 69.871216 
C 71.852284 73.354715 76.577587 75.312 81.504 75.312 
z
" clip-path="url(#p8f9b22fa29)" style="fill: #ffffff; stroke: #2874a6; stroke-width: 2; stroke-linejoin: miter"/>
   </g>
   <g id="patch_3">
    <path d="M 267.264 75.312 
C 272.190413 75.312 276.915716 73.354715 280.399216 69.871216 
C 283.882715 66.387716 285.84 61.662413 285.84 56.736 
C 285.84 51.809587 283.882715 47.084284 280.399216 43.600784 
C 276.915716 40.117285 272.190413 38.16 267.264 38.16 
C 262.337587 38.16 257.612284 40.117285 254.128784 43.600784 
C 250.645285 47.084284 248.688 51.809587 248.688 56.736 
C 248.688 61.662413 250.645285 66.387716 254.128784 69.871216 
C 257.612284 73.354715 262.337587 75.312 267.264 75.312 
z
" clip-path="url(#p8f9b22fa29)" style="fill: #ffffff; stroke: #2874a6; stroke-width: 2; stroke-linejoin: miter"/>
   </g>
   <g id="patch_4">
    <path d="M 267.264 230.112 
C 272.190413 230.112 276.915716 228.154715 280.399216 224.671216 
C 283.882715 221.187716 285.84 216.462413 285.84 211.536 
C 285.84 206.609587 283.882715 201.884284 280.399216 198.400784 
C 276.915716 194.917285 272.190413 192.96 267.264 192.96 
C 262.337587 192.96 257.612284 194.917285 254.128784 198.400784 
C 250.645285 201.884284 248.688 206.609587 248.688 211.536 
C 248.688 216.462413 250.645285 221.187716 254.128784 224.671216 
C 257.612284 228.154715 262.337587 230.112 267.264 230.112 
z
" clip-path="url(#p8f9b22fa29)" style="fill: #ffffff; stroke: #2874a6; stroke-width: 2; stroke-linejoin: miter"/>
   </g>
   <g id="patch_5">
    <path d="M 81.504 230.112 
C 86.430413 230.112 91.155716 228.154715 94.639216 224.671216 
C 98.122715 221.187716 100.08 216.462413 100.08 211.536 
C 100.08 206.609587 98.122715 201.884284 94.639216 198.400784 
C 91.155716 194.917285 86.430413 192.96 81.504 192.96 
C 76.577587 192.96 71.852284 194.917285 68.368784 198.400784 
C 64.885285 201.884284 62.928 206.609587 62.928 211.536 
C 62.928 216.462413 64.885285 221.187716 68.368784 224.671216 
C 71.852284 228.154715 76.577587 230.112 81.504 230.112 
z
" clip-path="url(#p8f9b22fa29)" style="fill: #ffffff; stroke: #2874a6; stroke-width: 2; stroke-linejoin: miter"/>
   </g>
   <g id="text_1">
    <!-- P -->
    <g style="fill: #2874a6" transform="translate(77.106188 60.04725) scale(0.12 -0.12)">
     <defs>
      <path id="DejaVuSans-Bold-50" d="M 588 4666 
L 2584 4666 
Q 3475 4666 3951 4270 
Q 4428 3875 4428 3144 
Q 4428 2409 3951 2014 
Q 3475 1619 2584 1619 
L 1791 1619 
L 1791 0 
L 588 0 
L 588 4666 
z
M 1791 3794 
L 1791 2491 
L 2456 2491 
Q 2806 2491 2997 2661 
Q 3188 2831 3188 3144 
Q 3188 3456 2997 3625 
Q 2806 3794 2456 3794 
L 1791 3794 
z
" transform="scale(0.015625)"/>
     </defs>
     <use xlink:href="#DejaVuSans-Bold-50"/>
    </g>
   </g>
   <g id="text_2">
    <!-- Q -->
    <g style="fill: #2874a6" transform="translate(262.163063 60.04725) scale(0.12 -0.12)">
     <defs>
      <path id="DejaVuSans-Bold-51" d="M 2847 -84 
L 2753 -84 
Q 1600 -84 959 553 
Q 319 1191 319 2328 
Q 319 3463 958 4106 
Q 1597 4750 2719 4750 
Q 3853 4750 4486 4112 
Q 5119 3475 5119 2328 
Q 5119 1541 4783 972 
Q 4447 403 3816 116 
L 4756 -934 
L 3609 -934 
L 2847 -84 
z
M 2719 3878 
Q 2169 3878 1866 3472 
Q 1563 3066 1563 2328 
Q 1563 1578 1859 1179 
Q 2156 781 2719 781 
Q 3272 781 3575 1187 
Q 3878 1594 3878 2328 
Q 3878 3066 3575 3472 
Q 3272 3878 2719 3878 
z
" transform="scale(0.015625)"/>
     </defs>
     <use xlink:href="#DejaVuSans-Bold-51"/>
    </g>
   </g>
   <g id="text_3">
    <!-- R -->
    <g style="fill: #2874a6" transform="translate(262.644 214.84725) scale(0.12 -0.12)">
     <defs>
      <path id="DejaVuSans-Bold-52" d="M 2297 2597 
Q 2675 2597 2839 2737 
Q 3003 2878 3003 3200 
Q 3003 3519 2839 3656 
Q 2675 3794 2297 3794 
L 1791 3794 
L 1791 2597 
L 2297 2597 
z
M 1791 1766 
L 1791 0 
L 588 0 
L 588 4666 
L 2425 4666 
Q 3347 4666 3776 4356 
Q 4206 4047 4206 3378 
Q 4206 2916 3982 2619 
Q 3759 2322 3309 2181 
Q 3556 2125 3751 1926 
Q 3947 1728 4147 1325 
L 4800 0 
L 3519 0 
L 2950 1159 
Q 2778 1509 2601 1637 
Q 2425 1766 2131 1766 
L 1791 1766 
z
" transform="scale(0.015625)"/>
     </defs>
     <use xlink:href="#DejaVuSans-Bold-52"/>
    </g>
   </g>
   <g id="text_4">
    <!-- S -->
    <g style="fill: #2874a6" transform="translate(77.183063 214.84725) scale(0.12 -0.12)">
     <defs>
      <path id="DejaVuSans-Bold-53" d="M 3834 4519 
L 3834 3531 
Q 3450 3703 3084 3790 
Q 2719 3878 2394 3878 
Q 1963 3878 1756 3759 
Q 1550 3641 1550 3391 
Q 1550 3203 1689 3098 
Q 1828 2994 2194 2919 
L 2706 2816 
Q 3484 2659 3812 2340 
Q 4141 2022 4141 1434 
Q 4141 663 3683 286 
Q 3225 -91 2284 -91 
Q 1841 -91 1394 -6 
Q 947 78 500 244 
L 500 1259 
Q 947 1022 1364 901 
Q 1781 781 2169 781 
Q 2563 781 2772 912 
Q 2981 1044 2981 1288 
Q 2981 1506 2839 1625 
Q 2697 1744 2272 1838 
L 1806 1941 
Q 1106 2091 782 2419 
Q 459 2747 459 3303 
Q 459 4000 909 4375 
Q 1359 4750 2203 4750 
Q 2588 4750 2994 4692 
Q 3400 4634 3834 4519 
z
" transform="scale(0.015625)"/>
     </defs>
     <use xlink:href="#DejaVuSans-Bold-53"/>
    </g>
   </g>
   <g id="text_5">
    <g id="patch_6">
     <path d="M 169.239 63.602016 
L 179.529 63.602016 
L 179.529 49.869984 
L 169.239 49.869984 
z
" style="fill: #ffffff; opacity: 0.94"/>
    </g>
    <!-- $5$ -->
    <g style="fill: #b9770e" transform="translate(171.024 59.633344) scale(0.105 -0.105)">
     <defs>
      <path id="DejaVuSans-35" d="M 691 4666 
L 3169 4666 
L 3169 4134 
L 1269 4134 
L 1269 2991 
Q 1406 3038 1543 3061 
Q 1681 3084 1819 3084 
Q 2600 3084 3056 2656 
Q 3513 2228 3513 1497 
Q 3513 744 3044 326 
Q 2575 -91 1722 -91 
Q 1428 -91 1123 -41 
Q 819 9 494 109 
L 494 744 
Q 775 591 1075 516 
Q 1375 441 1709 441 
Q 2250 441 2565 725 
Q 2881 1009 2881 1497 
Q 2881 1984 2565 2268 
Q 2250 2553 1709 2553 
Q 1456 2553 1204 2497 
Q 953 2441 691 2322 
L 691 4666 
z
" transform="scale(0.015625)"/>
     </defs>
     <use xlink:href="#DejaVuSans-35" transform="translate(0 0.09375)"/>
    </g>
   </g>
   <g id="text_6">
    <g id="patch_7">
     <path d="M 132.087 110.042016 
L 142.377 110.042016 
L 142.377 96.309984 
L 132.087 96.309984 
z
" style="fill: #ffffff; opacity: 0.94"/>
    </g>
    <!-- $9$ -->
    <g style="fill: #b9770e" transform="translate(133.872 106.073344) scale(0.105 -0.105)">
     <defs>
      <path id="DejaVuSans-39" d="M 703 97 
L 703 672 
Q 941 559 1184 500 
Q 1428 441 1663 441 
Q 2288 441 2617 861 
Q 2947 1281 2994 2138 
Q 2813 1869 2534 1725 
Q 2256 1581 1919 1581 
Q 1219 1581 811 2004 
Q 403 2428 403 3163 
Q 403 3881 828 4315 
Q 1253 4750 1959 4750 
Q 2769 4750 3195 4129 
Q 3622 3509 3622 2328 
Q 3622 1225 3098 567 
Q 2575 -91 1691 -91 
Q 1453 -91 1209 -44 
Q 966 3 703 97 
z
M 1959 2075 
Q 2384 2075 2632 2365 
Q 2881 2656 2881 3163 
Q 2881 3666 2632 3958 
Q 2384 4250 1959 4250 
Q 1534 4250 1286 3958 
Q 1038 3666 1038 3163 
Q 1038 2656 1286 2365 
Q 1534 2075 1959 2075 
z
" transform="scale(0.015625)"/>
     </defs>
     <use xlink:href="#DejaVuSans-39" transform="translate(0 0.78125)"/>
    </g>
   </g>
   <g id="text_7">
    <g id="patch_8">
     <path d="M 76.359 141.002016 
L 86.649 141.002016 
L 86.649 127.269984 
L 76.359 127.269984 
z
" style="fill: #ffffff; opacity: 0.94"/>
    </g>
    <!-- $7$ -->
    <g style="fill: #b9770e" transform="translate(78.144 137.033344) scale(0.105 -0.105)">
     <defs>
      <path id="DejaVuSans-37" d="M 525 4666 
L 3525 4666 
L 3525 4397 
L 1831 0 
L 1172 0 
L 2766 4134 
L 525 4134 
L 525 4666 
z
" transform="scale(0.015625)"/>
     </defs>
     <use xlink:href="#DejaVuSans-37" transform="translate(0 0.09375)"/>
    </g>
   </g>
   <g id="text_8">
    <g id="patch_9">
     <path d="M 262.119 141.002016 
L 272.409 141.002016 
L 272.409 127.269984 
L 262.119 127.269984 
z
" style="fill: #ffffff; opacity: 0.94"/>
    </g>
    <!-- $6$ -->
    <g style="fill: #b9770e" transform="translate(263.904 137.033344) scale(0.105 -0.105)">
     <defs>
      <path id="DejaVuSans-36" d="M 2113 2584 
Q 1688 2584 1439 2293 
Q 1191 2003 1191 1497 
Q 1191 994 1439 701 
Q 1688 409 2113 409 
Q 2538 409 2786 701 
Q 3034 994 3034 1497 
Q 3034 2003 2786 2293 
Q 2538 2584 2113 2584 
z
M 3366 4563 
L 3366 3988 
Q 3128 4100 2886 4159 
Q 2644 4219 2406 4219 
Q 1781 4219 1451 3797 
Q 1122 3375 1075 2522 
Q 1259 2794 1537 2939 
Q 1816 3084 2150 3084 
Q 2853 3084 3261 2657 
Q 3669 2231 3669 1497 
Q 3669 778 3244 343 
Q 2819 -91 2113 -91 
Q 1303 -91 875 529 
Q 447 1150 447 2328 
Q 447 3434 972 4092 
Q 1497 4750 2381 4750 
Q 2619 4750 2861 4703 
Q 3103 4656 3366 4563 
z
" transform="scale(0.015625)"/>
     </defs>
     <use xlink:href="#DejaVuSans-36" transform="translate(0 0.78125)"/>
    </g>
   </g>
   <g id="text_9">
    <g id="patch_10">
     <path d="M 206.391 110.042016 
L 216.681 110.042016 
L 216.681 96.309984 
L 206.391 96.309984 
z
" style="fill: #ffffff; opacity: 0.94"/>
    </g>
    <!-- $8$ -->
    <g style="fill: #b9770e" transform="translate(208.176 106.073344) scale(0.105 -0.105)">
     <defs>
      <path id="DejaVuSans-38" d="M 2034 2216 
Q 1584 2216 1326 1975 
Q 1069 1734 1069 1313 
Q 1069 891 1326 650 
Q 1584 409 2034 409 
Q 2484 409 2743 651 
Q 3003 894 3003 1313 
Q 3003 1734 2745 1975 
Q 2488 2216 2034 2216 
z
M 1403 2484 
Q 997 2584 770 2862 
Q 544 3141 544 3541 
Q 544 4100 942 4425 
Q 1341 4750 2034 4750 
Q 2731 4750 3128 4425 
Q 3525 4100 3525 3541 
Q 3525 3141 3298 2862 
Q 3072 2584 2669 2484 
Q 3125 2378 3379 2068 
Q 3634 1759 3634 1313 
Q 3634 634 3220 271 
Q 2806 -91 2034 -91 
Q 1263 -91 848 271 
Q 434 634 434 1313 
Q 434 1759 690 2068 
Q 947 2378 1403 2484 
z
M 1172 3481 
Q 1172 3119 1398 2916 
Q 1625 2713 2034 2713 
Q 2441 2713 2670 2916 
Q 2900 3119 2900 3481 
Q 2900 3844 2670 4047 
Q 2441 4250 2034 4250 
Q 1625 4250 1398 4047 
Q 1172 3844 1172 3481 
z
" transform="scale(0.015625)"/>
     </defs>
     <use xlink:href="#DejaVuSans-38" transform="translate(0 0.78125)"/>
    </g>
   </g>
   <g id="text_10">
    <g id="patch_11">
     <path d="M 169.239 218.402016 
L 179.529 218.402016 
L 179.529 204.669984 
L 169.239 204.669984 
z
" style="fill: #ffffff; opacity: 0.94"/>
    </g>
    <!-- $4$ -->
    <g style="fill: #b9770e" transform="translate(171.024 214.433344) scale(0.105 -0.105)">
     <defs>
      <path id="DejaVuSans-34" d="M 2419 4116 
L 825 1625 
L 2419 1625 
L 2419 4116 
z
M 2253 4666 
L 3047 4666 
L 3047 1625 
L 3713 1625 
L 3713 1100 
L 3047 1100 
L 3047 0 
L 2419 0 
L 2419 1100 
L 313 1100 
L 313 1709 
L 2253 4666 
z
" transform="scale(0.015625)"/>
     </defs>
     <use xlink:href="#DejaVuSans-34" transform="translate(0 0.09375)"/>
    </g>
   </g>
  </g>
 </g>
 <defs>
  <clipPath id="p8f9b22fa29">
   <rect x="7.2" y="7.2" width="321.984" height="278.64"/>
  </clipPath>
 </defs>
</svg>
