<?xml version="1.0" encoding="utf-8" standalone="no"?>
<!DOCTYPE svg PUBLIC "-//W3C//DTD SVG 1.1//EN"
  "http://www.w3.org/Graphics/SVG/1.1/DTD/svg11.dtd">
<svg xmlns:xlink="http://www.w3.org/1999/xlink" width="402.862326pt" height="309.536203pt" viewBox="0 0 402.862326 309.536203" xmlns="http://www.w3.org/2000/svg" version="1.1">
 <metadata>
  <rdf:RDF xmlns:dc="http://purl.org/dc/elements/1.1/" xmlns:cc="http://creativecommons.org/ns#" xmlns:rdf="http://www.w3.org/1999/02/22-rdf-syntax-ns#">
   <cc:Work>
    <dc:type rdf:resource="http://purl.org/dc/dcmitype/StillImage"/>
    <dc:date>2026-08-30T07:29:44.330158</dc:date>
    <dc:format>image/svg+xml</dc:format>
    <dc:creator>
     <cc:Agent>
      <dc:title>Matplotlib v3.10.9, https://matplotlib.org/</dc:title>
     </cc:Agent>
    </dc:creator>
   </cc:Work>
  </rdf:RDF>
 </metadata>
 <defs>
  <style type="text/css">*{stroke-linejoin: round; stroke-linecap: butt}</style>
 </defs>
 <g id="figure_1">
  <g id="patch_1">
   <path d="M -0 309.536203 
L 402.862326 309.536203 
L 402.862326 0 
L -0 0 
L -0 309.536203 
z
" style="fill: none"/>
  </g>
  <g id="axes_1">
   <g id="line2d_1">
    <path d="M 65.469349 185.797505 
L 65.469349 108.10504 
" clip-path="url(#p246481d1ef)" style="fill: none; stroke-dasharray: 5.18,2.24; stroke-dashoffset: 0; stroke: #7a8592; stroke-width: 1.4"/>
   </g>
   <g id="text_1">
    <!-- N -->
    <g style="fill: #7a8592" transform="translate(61.354661 103.371106) scale(0.11 -0.11)">
     <defs>
      <path id="DejaVuSans-4e" d="M 628 4666 
L 1478 4666 
L 3547 763 
L 3547 4666 
L 4159 4666 
L 4159 0 
L 3309 0 
L 1241 3903 
L 1241 0 
L 628 0 
L 628 4666 
z
" transform="scale(0.015625)"/>
     </defs>
     <use xlink:href="#DejaVuSans-4e"/>
    </g>
   </g>
   <g id="line2d_2">
    <path d="M 211.483421 132.652729 
L 211.483421 54.960264 
" clip-path="url(#p246481d1ef)" style="fill: none; stroke-dasharray: 5.18,2.24; stroke-dashoffset: 0; stroke: #7a8592; stroke-width: 1.4"/>
   </g>
   <g id="text_2">
    <!-- N -->
    <g style="fill: #7a8592" transform="translate(207.368734 50.22633) scale(0.11 -0.11)">
     <use xlink:href="#DejaVuSans-4e"/>
    </g>
   </g>
   <g id="text_3">
    <!-- $P$ -->
    <g style="fill: #1f2328" transform="translate(51.22573 193.566752) scale(0.13 -0.13)">
     <defs>
      <path id="DejaVuSans-Oblique-50" d="M 1081 4666 
L 2541 4666 
Q 3178 4666 3512 4369 
Q 3847 4072 3847 3500 
Q 3847 2731 3353 2303 
Q 2859 1875 1966 1875 
L 1172 1875 
L 806 0 
L 172 0 
L 1081 4666 
z
M 1613 4147 
L 1275 2394 
L 2069 2394 
Q 2606 2394 2893 2669 
Q 3181 2944 3181 3456 
Q 3181 3784 2986 3965 
Q 2791 4147 2438 4147 
L 1613 4147 
z
" transform="scale(0.015625)"/>
     </defs>
     <use xlink:href="#DejaVuSans-Oblique-50" transform="translate(0 0.09375)"/>
    </g>
   </g>
   <g id="text_4">
    <!-- $Q$ -->
    <g style="fill: #1f2328" transform="translate(218.60523 125.53092) scale(0.13 -0.13)">
     <defs>
      <path id="DejaVuSans-Oblique-51" d="M 2309 -84 
Q 2275 -88 2237 -89 
Q 2200 -91 2125 -91 
Q 1250 -91 756 411 
Q 263 913 263 1797 
Q 263 2319 452 2844 
Q 641 3369 978 3788 
Q 1369 4269 1858 4509 
Q 2347 4750 2938 4750 
Q 3794 4750 4287 4245 
Q 4781 3741 4781 2869 
Q 4781 1928 4265 1147 
Q 3750 366 2919 44 
L 3553 -825 
L 2847 -825 
L 2309 -84 
z
M 2919 4238 
Q 2400 4238 2003 3986 
Q 1606 3734 1313 3219 
Q 1125 2891 1026 2522 
Q 928 2153 928 1778 
Q 928 1128 1239 775 
Q 1550 422 2119 422 
Q 2631 422 3032 676 
Q 3434 931 3719 1434 
Q 3909 1772 4009 2142 
Q 4109 2513 4109 2881 
Q 4109 3528 3796 3883 
Q 3484 4238 2919 4238 
z
" transform="scale(0.015625)"/>
     </defs>
     <use xlink:href="#DejaVuSans-Oblique-51" transform="translate(0 0.78125)"/>
    </g>
   </g>
   <g id="text_5">
    <!-- $R$ -->
    <g style="fill: #1f2328" transform="translate(260.406124 249.93253) scale(0.13 -0.13)">
     <defs>
      <path id="DejaVuSans-Oblique-52" d="M 1613 4147 
L 1294 2491 
L 2106 2491 
Q 2584 2491 2879 2755 
Q 3175 3019 3175 3444 
Q 3175 3784 2976 3965 
Q 2778 4147 2406 4147 
L 1613 4147 
z
M 2772 2241 
Q 2972 2194 3105 2009 
Q 3238 1825 3413 1275 
L 3809 0 
L 3144 0 
L 2778 1197 
Q 2638 1659 2453 1815 
Q 2269 1972 1888 1972 
L 1191 1972 
L 806 0 
L 172 0 
L 1081 4666 
L 2503 4666 
Q 3150 4666 3495 4373 
Q 3841 4081 3841 3531 
Q 3841 3044 3547 2687 
Q 3253 2331 2772 2241 
z
" transform="scale(0.015625)"/>
     </defs>
     <use xlink:href="#DejaVuSans-Oblique-52" transform="translate(0 0.09375)"/>
    </g>
   </g>
   <g id="text_6">
    <!-- The two North lines are parallel -->
    <g style="fill: #1f2328" transform="translate(110.982764 15.938203) scale(0.115 -0.115)">
     <defs>
      <path id="DejaVuSans-54" d="M -19 4666 
L 3928 4666 
L 3928 4134 
L 2272 4134 
L 2272 0 
L 1638 0 
L 1638 4134 
L -19 4134 
L -19 4666 
z
" transform="scale(0.015625)"/>
      <path id="DejaVuSans-68" d="M 3513 2113 
L 3513 0 
L 2938 0 
L 2938 2094 
Q 2938 2591 2744 2837 
Q 2550 3084 2163 3084 
Q 1697 3084 1428 2787 
Q 1159 2491 1159 1978 
L 1159 0 
L 581 0 
L 581 4863 
L 1159 4863 
L 1159 2956 
Q 1366 3272 1645 3428 
Q 1925 3584 2291 3584 
Q 2894 3584 3203 3211 
Q 3513 2838 3513 2113 
z
" transform="scale(0.015625)"/>
      <path id="DejaVuSans-65" d="M 3597 1894 
L 3597 1613 
L 953 1613 
Q 991 1019 1311 708 
Q 1631 397 2203 397 
Q 2534 397 2845 478 
Q 3156 559 3463 722 
L 3463 178 
Q 3153 47 2828 -22 
Q 2503 -91 2169 -91 
Q 1331 -91 842 396 
Q 353 884 353 1716 
Q 353 2575 817 3079 
Q 1281 3584 2069 3584 
Q 2775 3584 3186 3129 
Q 3597 2675 3597 1894 
z
M 3022 2063 
Q 3016 2534 2758 2815 
Q 2500 3097 2075 3097 
Q 1594 3097 1305 2825 
Q 1016 2553 972 2059 
L 3022 2063 
z
" transform="scale(0.015625)"/>
      <path id="DejaVuSans-20" transform="scale(0.015625)"/>
      <path id="DejaVuSans-74" d="M 1172 4494 
L 1172 3500 
L 2356 3500 
L 2356 3053 
L 1172 3053 
L 1172 1153 
Q 1172 725 1289 603 
Q 1406 481 1766 481 
L 2356 481 
L 2356 0 
L 1766 0 
Q 1100 0 847 248 
Q 594 497 594 1153 
L 594 3053 
L 172 3053 
L 172 3500 
L 594 3500 
L 594 4494 
L 1172 4494 
z
" transform="scale(0.015625)"/>
      <path id="DejaVuSans-77" d="M 269 3500 
L 844 3500 
L 1563 769 
L 2278 3500 
L 2956 3500 
L 3675 769 
L 4391 3500 
L 4966 3500 
L 4050 0 
L 3372 0 
L 2619 2869 
L 1863 0 
L 1184 0 
L 269 3500 
z
" transform="scale(0.015625)"/>
      <path id="DejaVuSans-6f" d="M 1959 3097 
Q 1497 3097 1228 2736 
Q 959 2375 959 1747 
Q 959 1119 1226 758 
Q 1494 397 1959 397 
Q 2419 397 2687 759 
Q 2956 1122 2956 1747 
Q 2956 2369 2687 2733 
Q 2419 3097 1959 3097 
z
M 1959 3584 
Q 2709 3584 3137 3096 
Q 3566 2609 3566 1747 
Q 3566 888 3137 398 
Q 2709 -91 1959 -91 
Q 1206 -91 779 398 
Q 353 888 353 1747 
Q 353 2609 779 3096 
Q 1206 3584 1959 3584 
z
" transform="scale(0.015625)"/>
      <path id="DejaVuSans-72" d="M 2631 2963 
Q 2534 3019 2420 3045 
Q 2306 3072 2169 3072 
Q 1681 3072 1420 2755 
Q 1159 2438 1159 1844 
L 1159 0 
L 581 0 
L 581 3500 
L 1159 3500 
L 1159 2956 
Q 1341 3275 1631 3429 
Q 1922 3584 2338 3584 
Q 2397 3584 2469 3576 
Q 2541 3569 2628 3553 
L 2631 2963 
z
" transform="scale(0.015625)"/>
      <path id="DejaVuSans-6c" d="M 603 4863 
L 1178 4863 
L 1178 0 
L 603 0 
L 603 4863 
z
" transform="scale(0.015625)"/>
      <path id="DejaVuSans-69" d="M 603 3500 
L 1178 3500 
L 1178 0 
L 603 0 
L 603 3500 
z
M 603 4863 
L 1178 4863 
L 1178 4134 
L 603 4134 
L 603 4863 
z
" transform="scale(0.015625)"/>
      <path id="DejaVuSans-6e" d="M 3513 2113 
L 3513 0 
L 2938 0 
L 2938 2094 
Q 2938 2591 2744 2837 
Q 2550 3084 2163 3084 
Q 1697 3084 1428 2787 
Q 1159 2491 1159 1978 
L 1159 0 
L 581 0 
L 581 3500 
L 1159 3500 
L 1159 2956 
Q 1366 3272 1645 3428 
Q 1925 3584 2291 3584 
Q 2894 3584 3203 3211 
Q 3513 2838 3513 2113 
z
" transform="scale(0.015625)"/>
      <path id="DejaVuSans-73" d="M 2834 3397 
L 2834 2853 
Q 2591 2978 2328 3040 
Q 2066 3103 1784 3103 
Q 1356 3103 1142 2972 
Q 928 2841 928 2578 
Q 928 2378 1081 2264 
Q 1234 2150 1697 2047 
L 1894 2003 
Q 2506 1872 2764 1633 
Q 3022 1394 3022 966 
Q 3022 478 2636 193 
Q 2250 -91 1575 -91 
Q 1294 -91 989 -36 
Q 684 19 347 128 
L 347 722 
Q 666 556 975 473 
Q 1284 391 1588 391 
Q 1994 391 2212 530 
Q 2431 669 2431 922 
Q 2431 1156 2273 1281 
Q 2116 1406 1581 1522 
L 1381 1569 
Q 847 1681 609 1914 
Q 372 2147 372 2553 
Q 372 3047 722 3315 
Q 1072 3584 1716 3584 
Q 2034 3584 2315 3537 
Q 2597 3491 2834 3397 
z
" transform="scale(0.015625)"/>
      <path id="DejaVuSans-61" d="M 2194 1759 
Q 1497 1759 1228 1600 
Q 959 1441 959 1056 
Q 959 750 1161 570 
Q 1363 391 1709 391 
Q 2188 391 2477 730 
Q 2766 1069 2766 1631 
L 2766 1759 
L 2194 1759 
z
M 3341 1997 
L 3341 0 
L 2766 0 
L 2766 531 
Q 2569 213 2275 61 
Q 1981 -91 1556 -91 
Q 1019 -91 701 211 
Q 384 513 384 1019 
Q 384 1609 779 1909 
Q 1175 2209 1959 2209 
L 2766 2209 
L 2766 2266 
Q 2766 2663 2505 2880 
Q 2244 3097 1772 3097 
Q 1472 3097 1187 3025 
Q 903 2953 641 2809 
L 641 3341 
Q 956 3463 1253 3523 
Q 1550 3584 1831 3584 
Q 2591 3584 2966 3190 
Q 3341 2797 3341 1997 
z
" transform="scale(0.015625)"/>
      <path id="DejaVuSans-70" d="M 1159 525 
L 1159 -1331 
L 581 -1331 
L 581 3500 
L 1159 3500 
L 1159 2969 
Q 1341 3281 1617 3432 
Q 1894 3584 2278 3584 
Q 2916 3584 3314 3078 
Q 3713 2572 3713 1747 
Q 3713 922 3314 415 
Q 2916 -91 2278 -91 
Q 1894 -91 1617 61 
Q 1341 213 1159 525 
z
M 3116 1747 
Q 3116 2381 2855 2742 
Q 2594 3103 2138 3103 
Q 1681 3103 1420 2742 
Q 1159 2381 1159 1747 
Q 1159 1113 1420 752 
Q 1681 391 2138 391 
Q 2594 391 2855 752 
Q 3116 1113 3116 1747 
z
" transform="scale(0.015625)"/>
     </defs>
     <use xlink:href="#DejaVuSans-54"/>
     <use xlink:href="#DejaVuSans-68" transform="translate(61.083984 0)"/>
     <use xlink:href="#DejaVuSans-65" transform="translate(124.462891 0)"/>
     <use xlink:href="#DejaVuSans-20" transform="translate(185.986328 0)"/>
     <use xlink:href="#DejaVuSans-74" transform="translate(217.773438 0)"/>
     <use xlink:href="#DejaVuSans-77" transform="translate(256.982422 0)"/>
     <use xlink:href="#DejaVuSans-6f" transform="translate(338.769531 0)"/>
     <use xlink:href="#DejaVuSans-20" transform="translate(399.951172 0)"/>
     <use xlink:href="#DejaVuSans-4e" transform="translate(431.738281 0)"/>
     <use xlink:href="#DejaVuSans-6f" transform="translate(506.542969 0)"/>
     <use xlink:href="#DejaVuSans-72" transform="translate(567.724609 0)"/>
     <use xlink:href="#DejaVuSans-74" transform="translate(608.837891 0)"/>
     <use xlink:href="#DejaVuSans-68" transform="translate(648.046875 0)"/>
     <use xlink:href="#DejaVuSans-20" transform="translate(711.425781 0)"/>
     <use xlink:href="#DejaVuSans-6c" transform="translate(743.212891 0)"/>
     <use xlink:href="#DejaVuSans-69" transform="translate(770.996094 0)"/>
     <use xlink:href="#DejaVuSans-6e" transform="translate(798.779297 0)"/>
     <use xlink:href="#DejaVuSans-65" transform="translate(862.158203 0)"/>
     <use xlink:href="#DejaVuSans-73" transform="translate(923.681641 0)"/>
     <use xlink:href="#DejaVuSans-20" transform="translate(975.78125 0)"/>
     <use xlink:href="#DejaVuSans-61" transform="translate(1007.568359 0)"/>
     <use xlink:href="#DejaVuSans-72" transform="translate(1068.847656 0)"/>
     <use xlink:href="#DejaVuSans-65" transform="translate(1107.710938 0)"/>
     <use xlink:href="#DejaVuSans-20" transform="translate(1169.234375 0)"/>
     <use xlink:href="#DejaVuSans-70" transform="translate(1201.021484 0)"/>
     <use xlink:href="#DejaVuSans-61" transform="translate(1264.498047 0)"/>
     <use xlink:href="#DejaVuSans-72" transform="translate(1325.777344 0)"/>
     <use xlink:href="#DejaVuSans-61" transform="translate(1366.890625 0)"/>
     <use xlink:href="#DejaVuSans-6c" transform="translate(1428.169922 0)"/>
     <use xlink:href="#DejaVuSans-6c" transform="translate(1455.953125 0)"/>
     <use xlink:href="#DejaVuSans-65" transform="translate(1483.736328 0)"/>
     <use xlink:href="#DejaVuSans-6c" transform="translate(1545.259766 0)"/>
    </g>
   </g>
   <g id="line2d_3">
    <path d="M 65.469349 185.797505 
L 211.483421 132.652729 
" clip-path="url(#p246481d1ef)" style="fill: none; stroke: #2874a6; stroke-width: 2.6; stroke-linecap: square"/>
   </g>
   <g id="line2d_4">
    <path d="M 211.483421 132.652729 
L 251.342003 242.163284 
" clip-path="url(#p246481d1ef)" style="fill: none; stroke: #1e8449; stroke-width: 2.6; stroke-linecap: square"/>
   </g>
   <g id="line2d_5">
    <path d="M 65.469349 185.797505 
L 251.342003 242.163284 
" clip-path="url(#p246481d1ef)" style="fill: none; stroke-dasharray: 8.14,3.52; stroke-dashoffset: 0; stroke: #c0392b; stroke-width: 2.2"/>
   </g>
   <g id="patch_2">
    <path d="M 101.972867 172.511311 
C 99.246657 165.021111 94.280015 158.548458 87.750632 153.976535 
C 81.22125 149.404612 73.440253 146.951273 65.469349 146.951273 
" clip-path="url(#p246481d1ef)" style="fill: none; stroke: #2874a6; stroke-width: 1.6; stroke-linejoin: miter"/>
   </g>
   <g id="patch_3">
    <path d="M 224.769615 169.156247 
C 233.349647 166.033371 240.559906 159.983246 245.125245 152.075846 
C 249.690585 144.168445 251.325018 134.899116 249.739492 125.907152 
C 248.153966 116.915188 243.447804 108.763876 236.453298 102.894789 
C 229.458792 97.025701 220.614101 93.806497 211.483421 93.806497 
" clip-path="url(#p246481d1ef)" style="fill: none; stroke: #1e8449; stroke-width: 1.6; stroke-linejoin: miter"/>
   </g>
   <g id="patch_4">
    <path d="M 132.383504 206.089186 
C 134.564474 198.897188 135.571744 191.400381 135.366483 183.88777 
C 135.161223 176.375158 133.746105 168.944536 131.175681 161.882356 
" clip-path="url(#p246481d1ef)" style="fill: none; stroke: #c0392b; stroke-width: 1.6; stroke-linejoin: miter"/>
   </g>
   <g id="line2d_6">
    <path d="M 199.315582 137.081461 
L 203.744313 149.2493 
L 215.912153 144.820569 
" clip-path="url(#p246481d1ef)" style="fill: none; stroke: #7a8592; stroke-width: 1.1; stroke-linecap: square"/>
   </g>
   <g id="patch_5">
    <path d="M 260.511626 166.754537 
Q 239.629605 156.015212 218.747584 145.275887 
" style="fill: none; stroke: #7a8592; stroke-width: 1.1; stroke-linecap: round"/>
   </g>
   <g id="PathCollection_1">
    <defs>
     <path id="m51591abc46" d="M 0 3.605551 
C 0.956203 3.605551 1.873372 3.225648 2.54951 2.54951 
C 3.225648 1.873372 3.605551 0.956203 3.605551 0 
C 3.605551 -0.956203 3.225648 -1.873372 2.54951 -2.54951 
C 1.873372 -3.225648 0.956203 -3.605551 0 -3.605551 
C -0.956203 -3.605551 -1.873372 -3.225648 -2.54951 -2.54951 
C -3.225648 -1.873372 -3.605551 -0.956203 -3.605551 0 
C -3.605551 0.956203 -3.225648 1.873372 -2.54951 2.54951 
C -1.873372 3.225648 -0.956203 3.605551 0 3.605551 
z
" style="stroke: #1f2328"/>
    </defs>
    <g clip-path="url(#p246481d1ef)">
     <use xlink:href="#m51591abc46" x="65.469349" y="185.797505" style="fill: #1f2328; stroke: #1f2328"/>
    </g>
   </g>
   <g id="PathCollection_2">
    <g clip-path="url(#p246481d1ef)">
     <use xlink:href="#m51591abc46" x="211.483421" y="132.652729" style="fill: #1f2328; stroke: #1f2328"/>
    </g>
   </g>
   <g id="PathCollection_3">
    <g clip-path="url(#p246481d1ef)">
     <use xlink:href="#m51591abc46" x="251.342003" y="242.163284" style="fill: #1f2328; stroke: #1f2328"/>
    </g>
   </g>
   <g id="text_7">
    <!-- $070^{\circ}$ -->
    <g style="fill: #2874a6" transform="translate(80.360405 137.239715) scale(0.115 -0.115)">
     <defs>
      <path id="DejaVuSans-30" d="M 2034 4250 
Q 1547 4250 1301 3770 
Q 1056 3291 1056 2328 
Q 1056 1369 1301 889 
Q 1547 409 2034 409 
Q 2525 409 2770 889 
Q 3016 1369 3016 2328 
Q 3016 3291 2770 3770 
Q 2525 4250 2034 4250 
z
M 2034 4750 
Q 2819 4750 3233 4129 
Q 3647 3509 3647 2328 
Q 3647 1150 3233 529 
Q 2819 -91 2034 -91 
Q 1250 -91 836 529 
Q 422 1150 422 2328 
Q 422 3509 836 4129 
Q 1250 4750 2034 4750 
z
" transform="scale(0.015625)"/>
      <path id="DejaVuSans-37" d="M 525 4666 
L 3525 4666 
L 3525 4397 
L 1831 0 
L 1172 0 
L 2766 4134 
L 525 4134 
L 525 4666 
z
" transform="scale(0.015625)"/>
      <path id="DejaVuSans-2218" d="M 2000 2619 
Q 1750 2619 1578 2445 
Q 1406 2272 1406 2022 
Q 1406 1775 1578 1605 
Q 1750 1435 2000 1435 
Q 2250 1435 2422 1605 
Q 2594 1775 2594 2022 
Q 2594 2269 2420 2444 
Q 2247 2619 2000 2619 
z
M 2000 3022 
Q 2200 3022 2384 2945 
Q 2569 2869 2703 2725 
Q 2847 2585 2919 2406 
Q 2991 2228 2991 2022 
Q 2991 1610 2702 1324 
Q 2413 1038 1994 1038 
Q 1572 1038 1290 1319 
Q 1009 1600 1009 2022 
Q 1009 2441 1296 2731 
Q 1584 3022 2000 3022 
z
" transform="scale(0.015625)"/>
     </defs>
     <use xlink:href="#DejaVuSans-30" transform="translate(0 0.78125)"/>
     <use xlink:href="#DejaVuSans-37" transform="translate(63.623047 0.78125)"/>
     <use xlink:href="#DejaVuSans-30" transform="translate(127.246094 0.78125)"/>
     <use xlink:href="#DejaVuSans-2218" transform="translate(191.826172 39.0625) scale(0.7)"/>
    </g>
   </g>
   <g id="text_8">
    <!-- $160^{\circ}$ -->
    <g style="fill: #1e8449" transform="translate(232.201412 100.280869) scale(0.115 -0.115)">
     <defs>
      <path id="DejaVuSans-31" d="M 794 531 
L 1825 531 
L 1825 4091 
L 703 3866 
L 703 4441 
L 1819 4666 
L 2450 4666 
L 2450 531 
L 3481 531 
L 3481 0 
L 794 0 
L 794 531 
z
" transform="scale(0.015625)"/>
      <path id="DejaVuSans-36" d="M 2113 2584 
Q 1688 2584 1439 2293 
Q 1191 2003 1191 1497 
Q 1191 994 1439 701 
Q 1688 409 2113 409 
Q 2538 409 2786 701 
Q 3034 994 3034 1497 
Q 3034 2003 2786 2293 
Q 2538 2584 2113 2584 
z
M 3366 4563 
L 3366 3988 
Q 3128 4100 2886 4159 
Q 2644 4219 2406 4219 
Q 1781 4219 1451 3797 
Q 1122 3375 1075 2522 
Q 1259 2794 1537 2939 
Q 1816 3084 2150 3084 
Q 2853 3084 3261 2657 
Q 3669 2231 3669 1497 
Q 3669 778 3244 343 
Q 2819 -91 2113 -91 
Q 1303 -91 875 529 
Q 447 1150 447 2328 
Q 447 3434 972 4092 
Q 1497 4750 2381 4750 
Q 2619 4750 2861 4703 
Q 3103 4656 3366 4563 
z
" transform="scale(0.015625)"/>
     </defs>
     <use xlink:href="#DejaVuSans-31" transform="translate(0 0.78125)"/>
     <use xlink:href="#DejaVuSans-36" transform="translate(63.623047 0.78125)"/>
     <use xlink:href="#DejaVuSans-30" transform="translate(127.246094 0.78125)"/>
     <use xlink:href="#DejaVuSans-2218" transform="translate(191.826172 39.0625) scale(0.7)"/>
    </g>
   </g>
   <g id="text_9">
    <!-- $P\hat{Q}R = 90^{\circ}$ -->
    <g style="fill: #1f2328" transform="translate(264.880009 171.553887) scale(0.115 -0.115)">
     <defs>
      <path id="DejaVuSans-302" d="M -1831 5119 
L -1369 5119 
L -603 3944 
L -1038 3944 
L -1600 4709 
L -2163 3944 
L -2597 3944 
L -1831 5119 
z
M -1600 3584 
L -1600 3584 
z
" transform="scale(0.015625)"/>
      <path id="DejaVuSans-3d" d="M 678 2906 
L 4684 2906 
L 4684 2381 
L 678 2381 
L 678 2906 
z
M 678 1631 
L 4684 1631 
L 4684 1100 
L 678 1100 
L 678 1631 
z
" transform="scale(0.015625)"/>
      <path id="DejaVuSans-39" d="M 703 97 
L 703 672 
Q 941 559 1184 500 
Q 1428 441 1663 441 
Q 2288 441 2617 861 
Q 2947 1281 2994 2138 
Q 2813 1869 2534 1725 
Q 2256 1581 1919 1581 
Q 1219 1581 811 2004 
Q 403 2428 403 3163 
Q 403 3881 828 4315 
Q 1253 4750 1959 4750 
Q 2769 4750 3195 4129 
Q 3622 3509 3622 2328 
Q 3622 1225 3098 567 
Q 2575 -91 1691 -91 
Q 1453 -91 1209 -44 
Q 966 3 703 97 
z
M 1959 2075 
Q 2384 2075 2632 2365 
Q 2881 2656 2881 3163 
Q 2881 3666 2632 3958 
Q 2384 4250 1959 4250 
Q 1534 4250 1286 3958 
Q 1038 3666 1038 3163 
Q 1038 2656 1286 2365 
Q 1534 2075 1959 2075 
z
" transform="scale(0.015625)"/>
     </defs>
     <use xlink:href="#DejaVuSans-Oblique-50" transform="translate(0 0.296875)"/>
     <use xlink:href="#DejaVuSans-302" transform="translate(134.558594 31.015625)"/>
     <use xlink:href="#DejaVuSans-Oblique-51" transform="translate(60.302734 0.296875)"/>
     <use xlink:href="#DejaVuSans-Oblique-52" transform="translate(139.013672 0.296875)"/>
     <use xlink:href="#DejaVuSans-3d" transform="translate(227.978516 0.296875)"/>
     <use xlink:href="#DejaVuSans-39" transform="translate(331.25 0.296875)"/>
     <use xlink:href="#DejaVuSans-30" transform="translate(394.873047 0.296875)"/>
     <use xlink:href="#DejaVuSans-2218" transform="translate(459.453125 38.578125) scale(0.7)"/>
    </g>
   </g>
   <g id="text_10">
    <!-- $Q\hat{P}R = ?$ -->
    <g style="fill: #c0392b" transform="translate(123.614063 184.502631) scale(0.115 -0.115)">
     <defs>
      <path id="DejaVuSans-3f" d="M 1222 794 
L 1856 794 
L 1856 0 
L 1222 0 
L 1222 794 
z
M 1838 1253 
L 1241 1253 
L 1241 1734 
Q 1241 2050 1328 2253 
Q 1416 2456 1697 2725 
L 1978 3003 
Q 2156 3169 2236 3316 
Q 2316 3463 2316 3616 
Q 2316 3894 2111 4066 
Q 1906 4238 1569 4238 
Q 1322 4238 1042 4128 
Q 763 4019 459 3809 
L 459 4397 
Q 753 4575 1054 4662 
Q 1356 4750 1678 4750 
Q 2253 4750 2601 4447 
Q 2950 4144 2950 3647 
Q 2950 3409 2837 3195 
Q 2725 2981 2444 2713 
L 2169 2444 
Q 2022 2297 1961 2214 
Q 1900 2131 1875 2053 
Q 1856 1988 1847 1894 
Q 1838 1800 1838 1638 
L 1838 1253 
z
" transform="scale(0.015625)"/>
     </defs>
     <use xlink:href="#DejaVuSans-Oblique-51" transform="translate(0 0.609375)"/>
     <use xlink:href="#DejaVuSans-302" transform="translate(141.364746 30.015625)"/>
     <use xlink:href="#DejaVuSans-Oblique-50" transform="translate(78.710938 0.609375)"/>
     <use xlink:href="#DejaVuSans-Oblique-52" transform="translate(139.013672 0.609375)"/>
     <use xlink:href="#DejaVuSans-3d" transform="translate(227.978516 0.609375)"/>
     <use xlink:href="#DejaVuSans-3f" transform="translate(331.25 0.609375)"/>
    </g>
   </g>
   <g id="text_11">
    <!-- $12$ km -->
    <g style="fill: #2874a6" transform="translate(119.457711 150.332693) rotate(-20) scale(0.115 -0.115)">
     <defs>
      <path id="DejaVuSans-32" d="M 1228 531 
L 3431 531 
L 3431 0 
L 469 0 
L 469 531 
Q 828 903 1448 1529 
Q 2069 2156 2228 2338 
Q 2531 2678 2651 2914 
Q 2772 3150 2772 3378 
Q 2772 3750 2511 3984 
Q 2250 4219 1831 4219 
Q 1534 4219 1204 4116 
Q 875 4013 500 3803 
L 500 4441 
Q 881 4594 1212 4672 
Q 1544 4750 1819 4750 
Q 2544 4750 2975 4387 
Q 3406 4025 3406 3419 
Q 3406 3131 3298 2873 
Q 3191 2616 2906 2266 
Q 2828 2175 2409 1742 
Q 1991 1309 1228 531 
z
" transform="scale(0.015625)"/>
      <path id="DejaVuSans-6b" d="M 581 4863 
L 1159 4863 
L 1159 1991 
L 2875 3500 
L 3609 3500 
L 1753 1863 
L 3688 0 
L 2938 0 
L 1159 1709 
L 1159 0 
L 581 0 
L 581 4863 
z
" transform="scale(0.015625)"/>
      <path id="DejaVuSans-6d" d="M 3328 2828 
Q 3544 3216 3844 3400 
Q 4144 3584 4550 3584 
Q 5097 3584 5394 3201 
Q 5691 2819 5691 2113 
L 5691 0 
L 5113 0 
L 5113 2094 
Q 5113 2597 4934 2840 
Q 4756 3084 4391 3084 
Q 3944 3084 3684 2787 
Q 3425 2491 3425 1978 
L 3425 0 
L 2847 0 
L 2847 2094 
Q 2847 2600 2669 2842 
Q 2491 3084 2119 3084 
Q 1678 3084 1418 2786 
Q 1159 2488 1159 1978 
L 1159 0 
L 581 0 
L 581 3500 
L 1159 3500 
L 1159 2956 
Q 1356 3278 1631 3431 
Q 1906 3584 2284 3584 
Q 2666 3584 2933 3390 
Q 3200 3197 3328 2828 
z
" transform="scale(0.015625)"/>
     </defs>
     <use xlink:href="#DejaVuSans-31" transform="translate(0 0.015625)"/>
     <use xlink:href="#DejaVuSans-32" transform="translate(63.623047 0.015625)"/>
     <use xlink:href="#DejaVuSans-20" transform="translate(127.246094 0.015625)"/>
     <use xlink:href="#DejaVuSans-6b" transform="translate(159.033203 0.015625)"/>
     <use xlink:href="#DejaVuSans-6d" transform="translate(216.943359 0.015625)"/>
    </g>
   </g>
   <g id="text_12">
    <!-- $9$ km -->
    <g style="fill: #1e8449" transform="translate(230.906537 187.408006) scale(0.115 -0.115)">
     <use xlink:href="#DejaVuSans-39" transform="translate(0 0.015625)"/>
     <use xlink:href="#DejaVuSans-20" transform="translate(63.623047 0.015625)"/>
     <use xlink:href="#DejaVuSans-6b" transform="translate(95.410156 0.015625)"/>
     <use xlink:href="#DejaVuSans-6d" transform="translate(153.320312 0.015625)"/>
    </g>
   </g>
   <g id="text_13">
    <!-- $PR = ?$ -->
    <g style="fill: #c0392b" transform="translate(159.074589 233.882797) rotate(-343) scale(0.115 -0.115)">
     <use xlink:href="#DejaVuSans-Oblique-50" transform="translate(0 0.78125)"/>
     <use xlink:href="#DejaVuSans-Oblique-52" transform="translate(60.302734 0.78125)"/>
     <use xlink:href="#DejaVuSans-3d" transform="translate(149.267578 0.78125)"/>
     <use xlink:href="#DejaVuSans-3f" transform="translate(252.539062 0.78125)"/>
    </g>
   </g>
  </g>
 </g>
 <defs>
  <clipPath id="p246481d1ef">
   <rect x="7.2" y="23.938203" width="388.462326" height="278.398"/>
  </clipPath>
 </defs>
</svg>
